SplineFontDB: 3.2
FontName: NotoSerif-CondensedBlack
FullName: Noto Serif Condensed Black
FamilyName: Noto Serif Condensed Black
Weight: Black
Copyright: Copyright 2015 Google Inc. All Rights Reserved.
Version: 2.002; ttfautohint (v1.8.2)
ItalicAngle: 0
UnderlinePosition: -125
UnderlineWidth: 50
Ascent: 800
Descent: 200
InvalidEm: 0
sfntRevision: 0x00020083
LayerCount: 2
Layer: 0 1 "+BBcEMAQ0BD0EOAQ5 +BD8EOwQwBD0A" 1
Layer: 1 1 "+BB8ENQRABDUENAQ9BDgEOQAA +BD8EOwQwBD0A" 0
XUID: [1021 42 1189819461 9732914]
StyleMap: 0x0040
FSType: 0
OS2Version: 4
OS2_WeightWidthSlopeOnly: 1
OS2_UseTypoMetrics: 0
CreationTime: 1561037343
ModificationTime: 1584532210
PfmFamily: 17
TTFWeight: 900
TTFWidth: 3
LineGap: 0
VLineGap: 0
Panose: 2 2 10 6 6 5 5 2 2 4
OS2TypoAscent: 1069
OS2TypoAOffset: 0
OS2TypoDescent: -293
OS2TypoDOffset: 0
OS2TypoLinegap: 0
OS2WinAscent: 1069
OS2WinAOffset: 0
OS2WinDescent: 293
OS2WinDOffset: 0
HheadAscent: 1069
HheadAOffset: 0
HheadDescent: -293
HheadDOffset: 0
OS2SubXSize: 650
OS2SubYSize: 600
OS2SubXOff: 0
OS2SubYOff: 75
OS2SupXSize: 650
OS2SupYSize: 600
OS2SupXOff: 0
OS2SupYOff: 350
OS2StrikeYSize: 50
OS2StrikeYPos: 322
OS2CapHeight: 714
OS2XHeight: 536
OS2Vendor: 'GOOG'
OS2CodePages: 0000019f.00000000
OS2UnicodeRanges: e00002ff.4000201f.08000029.00100000
Lookup: 1 0 0 "'aalt' Access All Alternates lookup 0" { "'aalt' Access All Alternates lookup 0 subtable"  } ['aalt' ('DFLT' <'dflt' > 'cyrl' <'MKD ' 'SRB ' 'dflt' > 'grek' <'dflt' > 'latn' <'APPH' 'CAT ' 'IPPH' 'MAH ' 'MOL ' 'NAV ' 'ROM ' 'dflt' > ) ]
Lookup: 3 0 0 "'aalt' Access All Alternates lookup 1" { "'aalt' Access All Alternates lookup 1 subtable"  } ['aalt' ('DFLT' <'dflt' > 'cyrl' <'MKD ' 'SRB ' 'dflt' > 'grek' <'dflt' > 'latn' <'APPH' 'CAT ' 'IPPH' 'MAH ' 'MOL ' 'NAV ' 'ROM ' 'dflt' > ) ]

StartChar: .notdef
Encoding: 65536 -1 0
Width: 587
Flags: W
LayerCount: 2
Fore
SplineSet
85 0 m 1,0,-1
 85 714 l 1,1,-1
 496 714 l 1,2,-1
 496 0 l 1,3,-1
 85 0 l 1,0,-1
136 51 m 1,4,-1
 445 51 l 1,5,-1
 445 663 l 1,6,-1
 136 663 l 1,7,-1
 136 51 l 1,4,-1
EndSplineSet
EndChar

StartChar: exclam
Encoding: 33 33 4
Width: 358
Flags: W
LayerCount: 2
Fore
SplineSet
144 236 m 1,0,-1
 83 714 l 1,1,-1
 275 714 l 1,2,-1
 215 236 l 1,3,-1
 144 236 l 1,0,-1
180 -8 m 0,4,5
 145 -8 145 -8 120.5 10.5 c 128,-1,6
 96 29 96 29 96 77 c 256,7,8
 96 125 96 125 120.5 143.5 c 128,-1,9
 145 162 145 162 180 162 c 0,10,11
 214 162 214 162 239 143.5 c 128,-1,12
 264 125 264 125 264 77 c 256,13,14
 264 29 264 29 239 10.5 c 128,-1,15
 214 -8 214 -8 180 -8 c 0,4,5
EndSplineSet
Substitution2: "'smcp' Lowercase to Small Capitals lookup 38 subtable" exclam.sc
Substitution2: "'c2sc' Capitals to Small Capitals lookup 37 subtable" exclam.sc
Substitution2: "'aalt' Access All Alternates lookup 0 subtable" exclam.sc
EndChar

StartChar: quotedbl
Encoding: 34 34 5
Width: 515
Flags: W
LayerCount: 2
Fore
SplineSet
328 423 m 1,0,-1
 279 714 l 1,1,-1
 449 714 l 1,2,-1
 400 423 l 1,3,-1
 328 423 l 1,0,-1
115 423 m 1,4,-1
 66 714 l 1,5,-1
 236 714 l 1,6,-1
 187 423 l 1,7,-1
 115 423 l 1,4,-1
EndSplineSet
EndChar

StartChar: numbersign
Encoding: 35 35 6
Width: 497
Flags: W
LayerCount: 2
Fore
SplineSet
64 0 m 1,0,-1
 102 198 l 1,1,-1
 20 198 l 1,2,-1
 20 274 l 1,3,-1
 116 274 l 1,4,-1
 149 444 l 1,5,-1
 52 444 l 1,6,-1
 52 522 l 1,7,-1
 164 522 l 1,8,-1
 198 714 l 1,9,-1
 278 714 l 1,10,-1
 243 522 l 1,11,-1
 317 522 l 1,12,-1
 354 714 l 1,13,-1
 433 714 l 1,14,-1
 396 522 l 1,15,-1
 477 522 l 1,16,-1
 477 444 l 1,17,-1
 382 444 l 1,18,-1
 350 274 l 1,19,-1
 445 274 l 1,20,-1
 445 198 l 1,21,-1
 334 198 l 1,22,-1
 298 0 l 1,23,-1
 219 0 l 1,24,-1
 255 198 l 1,25,-1
 181 198 l 1,26,-1
 143 0 l 1,27,-1
 64 0 l 1,0,-1
195 274 m 1,28,-1
 271 274 l 1,29,-1
 304 444 l 1,30,-1
 229 444 l 1,31,-1
 195 274 l 1,28,-1
EndSplineSet
EndChar

StartChar: dollar
Encoding: 36 36 7
Width: 497
Flags: W
LayerCount: 2
Fore
SplineSet
229 -79 m 1,0,-1
 229 41 l 1,1,2
 172 44 172 44 135 59 c 128,-1,3
 98 74 98 74 77 96.5 c 128,-1,4
 56 119 56 119 48 142.5 c 128,-1,5
 40 166 40 166 40 186 c 0,6,7
 40 218 40 218 55.5 236.5 c 128,-1,8
 71 255 71 255 93.5 263 c 128,-1,9
 116 271 116 271 137 271 c 1,10,11
 137 200 137 200 156 157 c 128,-1,12
 175 114 175 114 229 101 c 1,13,-1
 229 305 l 1,14,15
 160 337 160 337 122.5 368.5 c 128,-1,16
 85 400 85 400 70.5 434 c 128,-1,17
 56 468 56 468 56 509 c 0,18,19
 56 583 56 583 105.5 628.5 c 128,-1,20
 155 674 155 674 229 684 c 1,21,-1
 229 760 l 1,22,-1
 283 760 l 1,23,-1
 283 684 l 1,24,25
 360 681 360 681 398.5 653.5 c 128,-1,26
 437 626 437 626 437 590 c 0,27,28
 437 560 437 560 414.5 537 c 128,-1,29
 392 514 392 514 331 514 c 1,30,31
 331 557 331 557 317.5 587 c 128,-1,32
 304 617 304 617 283 628 c 1,33,-1
 283 440 l 1,34,35
 327 419 327 419 369 393.5 c 128,-1,36
 411 368 411 368 438 331 c 128,-1,37
 465 294 465 294 465 239 c 0,38,39
 465 162 465 162 416.5 108.5 c 128,-1,40
 368 55 368 55 283 43 c 1,41,-1
 283 -79 l 1,42,-1
 229 -79 l 1,0,-1
229 470 m 1,43,-1
 229 630 l 1,44,45
 210 626 210 626 193 607 c 128,-1,46
 176 588 176 588 176 557 c 0,47,48
 176 532 176 532 188.5 510.5 c 128,-1,49
 201 489 201 489 229 470 c 1,43,-1
283 102 m 1,50,51
 311 111 311 111 326 134 c 128,-1,52
 341 157 341 157 341 187 c 0,53,54
 341 215 341 215 328 238.5 c 128,-1,55
 315 262 315 262 283 283 c 1,56,-1
 283 102 l 1,50,51
EndSplineSet
EndChar

StartChar: percent
Encoding: 37 37 8
Width: 807
Flags: W
LayerCount: 2
Fore
SplineSet
192 280 m 0,0,1
 102 280 102 280 62.5 341.5 c 128,-1,2
 23 403 23 403 23 503 c 0,3,4
 23 604 23 604 62.5 664 c 128,-1,5
 102 724 102 724 193 724 c 0,6,7
 279 724 279 724 320.5 664 c 128,-1,8
 362 604 362 604 362 503 c 0,9,10
 362 403 362 403 320 341.5 c 128,-1,11
 278 280 278 280 192 280 c 0,0,1
216 0 m 1,12,-1
 512 714 l 1,13,-1
 588 714 l 1,14,-1
 293 0 l 1,15,-1
 216 0 l 1,12,-1
193 334 m 256,16,17
 223 334 223 334 234.5 378 c 128,-1,18
 246 422 246 422 246 503 c 0,19,20
 246 582 246 582 234.5 626 c 128,-1,21
 223 670 223 670 193 670 c 256,22,23
 163 670 163 670 150.5 626 c 128,-1,24
 138 582 138 582 138 503 c 0,25,26
 138 422 138 422 150.5 378 c 128,-1,27
 163 334 163 334 193 334 c 256,16,17
615 -10 m 0,28,29
 525 -10 525 -10 485 51.5 c 128,-1,30
 445 113 445 113 445 213 c 0,31,32
 445 314 445 314 485 374 c 128,-1,33
 525 434 525 434 616 434 c 0,34,35
 701 434 701 434 742.5 374 c 128,-1,36
 784 314 784 314 784 213 c 0,37,38
 784 113 784 113 742.5 51.5 c 128,-1,39
 701 -10 701 -10 615 -10 c 0,28,29
615 44 m 256,40,41
 645 44 645 44 657 88 c 128,-1,42
 669 132 669 132 669 213 c 0,43,44
 669 292 669 292 657 336 c 128,-1,45
 645 380 645 380 616 380 c 0,46,47
 586 380 586 380 573.5 336 c 128,-1,48
 561 292 561 292 561 213 c 0,49,50
 561 132 561 132 573 88 c 128,-1,51
 585 44 585 44 615 44 c 256,40,41
EndSplineSet
EndChar

StartChar: ampersand
Encoding: 38 38 9
Width: 746
Flags: W
LayerCount: 2
Fore
SplineSet
279 -10 m 0,0,1
 168 -10 168 -10 104.5 43 c 128,-1,2
 41 96 41 96 41 199 c 0,3,4
 41 259 41 259 66.5 296.5 c 128,-1,5
 92 334 92 334 130 357.5 c 128,-1,6
 168 381 168 381 207 397 c 1,7,8
 170 444 170 444 155.5 481 c 128,-1,9
 141 518 141 518 141 563 c 0,10,11
 141 639 141 639 188 681.5 c 128,-1,12
 235 724 235 724 326 724 c 0,13,14
 388 724 388 724 427 704.5 c 128,-1,15
 466 685 466 685 485 652.5 c 128,-1,16
 504 620 504 620 504 582 c 0,17,18
 504 523 504 523 472.5 483 c 128,-1,19
 441 443 441 443 381 409 c 1,20,-1
 493 264 l 1,21,22
 496 286 496 286 498 318 c 128,-1,23
 500 350 500 350 500 382 c 2,24,-1
 500 429 l 1,25,-1
 710 429 l 1,26,-1
 710 371 l 1,27,-1
 691 371 l 2,28,29
 671 371 671 371 652.5 368.5 c 128,-1,30
 634 366 634 366 619.5 353 c 128,-1,31
 605 340 605 340 598 309 c 0,32,33
 591 283 591 283 582 254 c 128,-1,34
 573 225 573 225 562 195 c 1,35,-1
 654 88 l 2,36,37
 670 69 670 69 689.5 63.5 c 128,-1,38
 709 58 709 58 724 58 c 2,39,-1
 732 58 l 1,40,-1
 732 0 l 1,41,-1
 532 0 l 1,42,-1
 471 74 l 1,43,44
 443 40 443 40 393 15 c 128,-1,45
 343 -10 343 -10 279 -10 c 0,0,1
339 457 m 1,46,47
 364 480 364 480 375.5 509 c 128,-1,48
 387 538 387 538 387 581 c 0,49,50
 387 618 387 618 373 639 c 128,-1,51
 359 660 359 660 336 660 c 0,52,53
 284 660 284 660 284 580 c 0,54,55
 284 547 284 547 299.5 518 c 128,-1,56
 315 489 315 489 339 457 c 1,46,47
318 65 m 0,57,58
 353 65 353 65 381.5 83.5 c 128,-1,59
 410 102 410 102 427 127 c 1,60,-1
 249 347 l 1,61,62
 224 323 224 323 217.5 286.5 c 128,-1,63
 211 250 211 250 211 204 c 0,64,65
 211 138 211 138 240 101.5 c 128,-1,66
 269 65 269 65 318 65 c 0,57,58
EndSplineSet
Substitution2: "'smcp' Lowercase to Small Capitals lookup 38 subtable" ampersand.sc
Substitution2: "'c2sc' Capitals to Small Capitals lookup 37 subtable" ampersand.sc
Substitution2: "'aalt' Access All Alternates lookup 0 subtable" ampersand.sc
EndChar

StartChar: quotesingle
Encoding: 39 39 10
Width: 302
Flags: W
LayerCount: 2
Fore
SplineSet
115 423 m 1,0,-1
 66 714 l 1,1,-1
 236 714 l 1,2,-1
 187 423 l 1,3,-1
 115 423 l 1,0,-1
EndSplineSet
EndChar

StartChar: parenleft
Encoding: 40 40 11
Width: 389
Flags: W
LayerCount: 2
Fore
SplineSet
361 -143 m 1,0,1
 194 -71 194 -71 122 46.5 c 128,-1,2
 50 164 50 164 50 318 c 256,3,4
 50 472 50 472 122 588.5 c 128,-1,5
 194 705 194 705 361 777 c 1,6,-1
 361 707 l 1,7,8
 310 666 310 666 281.5 605 c 128,-1,9
 253 544 253 544 241.5 470.5 c 128,-1,10
 230 397 230 397 230 318 c 256,11,12
 230 239 230 239 241.5 165 c 128,-1,13
 253 91 253 91 281.5 29.5 c 128,-1,14
 310 -32 310 -32 361 -72 c 1,15,-1
 361 -143 l 1,0,1
EndSplineSet
Substitution2: "'smcp' Lowercase to Small Capitals lookup 38 subtable" parenleft.sc
Substitution2: "'c2sc' Capitals to Small Capitals lookup 37 subtable" parenleft.sc
Substitution2: "'sups' Superscript lookup 22 subtable" uni207D
Substitution2: "'subs' Subscript lookup 21 subtable" uni208D
AlternateSubs2: "'aalt' Access All Alternates lookup 1 subtable" uni208D uni207D parenleft.sc
EndChar

StartChar: parenright
Encoding: 41 41 12
Width: 389
Flags: W
LayerCount: 2
Fore
SplineSet
28 -143 m 1,0,-1
 28 -72 l 1,1,2
 78 -32 78 -32 106.5 29.5 c 128,-1,3
 135 91 135 91 147 165 c 128,-1,4
 159 239 159 239 159 318 c 256,5,6
 159 397 159 397 147 470.5 c 128,-1,7
 135 544 135 544 106.5 605 c 128,-1,8
 78 666 78 666 28 707 c 1,9,-1
 28 777 l 1,10,11
 195 705 195 705 267 588.5 c 128,-1,12
 339 472 339 472 339 318 c 256,13,14
 339 164 339 164 267 46.5 c 128,-1,15
 195 -71 195 -71 28 -143 c 1,0,-1
EndSplineSet
Substitution2: "'smcp' Lowercase to Small Capitals lookup 38 subtable" parenright.sc
Substitution2: "'c2sc' Capitals to Small Capitals lookup 37 subtable" parenright.sc
Substitution2: "'sups' Superscript lookup 22 subtable" uni207E
Substitution2: "'subs' Subscript lookup 21 subtable" uni208E
AlternateSubs2: "'aalt' Access All Alternates lookup 1 subtable" uni208E uni207E parenright.sc
EndChar

StartChar: asterisk
Encoding: 42 42 13
Width: 444
Flags: W
LayerCount: 2
Fore
SplineSet
169 359 m 1,0,-1
 201 525 l 1,1,-1
 73 413 l 1,2,-1
 28 521 l 1,3,-1
 161 560 l 1,4,-1
 28 598 l 1,5,-1
 73 707 l 1,6,-1
 202 594 l 1,7,-1
 169 760 l 1,8,-1
 283 760 l 1,9,-1
 246 597 l 1,10,-1
 375 705 l 1,11,-1
 422 597 l 1,12,-1
 290 560 l 1,13,-1
 422 522 l 1,14,-1
 375 415 l 1,15,-1
 246 523 l 1,16,-1
 282 359 l 1,17,-1
 169 359 l 1,0,-1
EndSplineSet
EndChar

StartChar: plus
Encoding: 43 43 14
Width: 468
Flags: W
LayerCount: 2
Fore
SplineSet
195 141 m 1,0,-1
 195 320 l 1,1,-1
 42 320 l 1,2,-1
 42 395 l 1,3,-1
 195 395 l 1,4,-1
 195 574 l 1,5,-1
 273 574 l 1,6,-1
 273 395 l 1,7,-1
 426 395 l 1,8,-1
 426 320 l 1,9,-1
 273 320 l 1,10,-1
 273 141 l 1,11,-1
 195 141 l 1,0,-1
EndSplineSet
Substitution2: "'sups' Superscript lookup 22 subtable" uni207A
Substitution2: "'subs' Subscript lookup 21 subtable" uni208A
AlternateSubs2: "'aalt' Access All Alternates lookup 1 subtable" uni208A uni207A
EndChar

StartChar: comma
Encoding: 44 44 15
Width: 289
Flags: W
LayerCount: 2
Fore
SplineSet
50 -154 m 1,0,-1
 50 -98 l 1,1,2
 85 -83 85 -83 104 -67.5 c 128,-1,3
 123 -52 123 -52 123 -25 c 0,4,5
 123 -11 123 -11 113 -4 c 128,-1,6
 103 3 103 3 90.5 12 c 128,-1,7
 78 21 78 21 68 38 c 128,-1,8
 58 55 58 55 58 88 c 0,9,10
 58 123 58 123 80 141.5 c 128,-1,11
 102 160 102 160 132 160 c 0,12,13
 176 160 176 160 196.5 127 c 128,-1,14
 217 94 217 94 217 39 c 0,15,16
 217 -23 217 -23 179 -75.5 c 128,-1,17
 141 -128 141 -128 50 -154 c 1,0,-1
EndSplineSet
EndChar

StartChar: hyphen
Encoding: 45 45 16
Width: 274
Flags: W
LayerCount: 2
Fore
SplineSet
22 214 m 1,0,-1
 22 331 l 1,1,-1
 252 331 l 1,2,-1
 252 214 l 1,3,-1
 22 214 l 1,0,-1
EndSplineSet
EndChar

StartChar: period
Encoding: 46 46 17
Width: 289
Flags: W
LayerCount: 2
Fore
SplineSet
144 -8 m 0,0,1
 108 -8 108 -8 83.5 10 c 128,-1,2
 59 28 59 28 59 76 c 256,3,4
 59 124 59 124 83.5 142 c 128,-1,5
 108 160 108 160 144 160 c 0,6,7
 178 160 178 160 204 142 c 128,-1,8
 230 124 230 124 230 76 c 256,9,10
 230 28 230 28 204 10 c 128,-1,11
 178 -8 178 -8 144 -8 c 0,0,1
EndSplineSet
EndChar

StartChar: slash
Encoding: 47 47 18
Width: 254
Flags: W
LayerCount: 2
Fore
SplineSet
0 -121 m 1,0,-1
 185 760 l 1,1,-1
 254 760 l 1,2,-1
 73 -121 l 1,3,-1
 0 -121 l 1,0,-1
EndSplineSet
Substitution2: "'frac' Diagonal Fractions lookup 26 subtable" fraction
Substitution2: "'aalt' Access All Alternates lookup 0 subtable" fraction
EndChar

StartChar: zero
Encoding: 48 48 19
Width: 497
Flags: W
LayerCount: 2
Fore
SplineSet
249 -10 m 0,0,1
 162 -10 162 -10 113 35.5 c 128,-1,2
 64 81 64 81 44 164 c 128,-1,3
 24 247 24 247 24 359 c 0,4,5
 24 470 24 470 44 552 c 128,-1,6
 64 634 64 634 113.5 679 c 128,-1,7
 163 724 163 724 250 724 c 0,8,9
 332 724 332 724 380.5 679.5 c 128,-1,10
 429 635 429 635 450.5 552.5 c 128,-1,11
 472 470 472 470 472 358 c 256,12,13
 472 246 472 246 450.5 163.5 c 128,-1,14
 429 81 429 81 380 35.5 c 128,-1,15
 331 -10 331 -10 249 -10 c 0,0,1
249 59 m 0,16,17
 274 59 274 59 285 94.5 c 128,-1,18
 296 130 296 130 299 197 c 128,-1,19
 302 264 302 264 302 358 c 0,20,21
 302 500 302 500 294 577.5 c 128,-1,22
 286 655 286 655 250 655 c 0,23,24
 211 655 211 655 202.5 577.5 c 128,-1,25
 194 500 194 500 194 358 c 0,26,27
 194 264 194 264 197 197 c 128,-1,28
 200 130 200 130 211.5 94.5 c 128,-1,29
 223 59 223 59 249 59 c 0,16,17
EndSplineSet
Substitution2: "'zero' Slashed Zero lookup 42 subtable" zero.slash
Substitution2: "'case' Case-Sensitive Forms lookup 39 subtable" zero.lf
Substitution2: "'onum' Oldstyle Figures lookup 36 subtable" zero.tosf
Substitution2: "'pnum' Proportional Numbers lookup 34 subtable" zero.lf
Substitution2: "'frac' Diagonal Fractions lookup 27 subtable" zero.numr
Substitution2: "'dnom' Denominators lookup 25 subtable" zero.dnom
Substitution2: "'numr' Numerators lookup 24 subtable" zero.numr
Substitution2: "'sups' Superscript lookup 22 subtable" uni2070
Substitution2: "'subs' Subscript lookup 21 subtable" uni2080
AlternateSubs2: "'aalt' Access All Alternates lookup 1 subtable" uni2070 zero.lf zero.tosf zero.dnom zero.numr uni2080
EndChar

StartChar: one
Encoding: 49 49 20
Width: 497
Flags: W
LayerCount: 2
Fore
SplineSet
69 0 m 1,0,-1
 69 58 l 1,1,-1
 145 58 l 2,2,3
 166 58 166 58 179.5 71.5 c 128,-1,4
 193 85 193 85 193 120 c 2,5,-1
 193 605 l 1,6,7
 161 561 161 561 133.5 536.5 c 128,-1,8
 106 512 106 512 79 512 c 0,9,10
 56 512 56 512 39.5 534 c 128,-1,11
 23 556 23 556 23 594 c 1,12,13
 49 601 49 601 84 617 c 128,-1,14
 119 633 119 633 164 669 c 2,15,-1
 225 718 l 1,16,-1
 356 718 l 1,17,-1
 356 120 l 2,18,19
 356 93 356 93 367.5 75.5 c 128,-1,20
 379 58 379 58 405 58 c 2,21,-1
 465 58 l 1,22,-1
 465 0 l 1,23,-1
 69 0 l 1,0,-1
EndSplineSet
Substitution2: "'case' Case-Sensitive Forms lookup 39 subtable" one.lf
Substitution2: "'onum' Oldstyle Figures lookup 36 subtable" one.tosf
Substitution2: "'pnum' Proportional Numbers lookup 34 subtable" one.lf
Substitution2: "'frac' Diagonal Fractions lookup 27 subtable" one.numr
Substitution2: "'dnom' Denominators lookup 25 subtable" one.dnom
Substitution2: "'numr' Numerators lookup 24 subtable" one.numr
Substitution2: "'sups' Superscript lookup 22 subtable" uni00B9
Substitution2: "'subs' Subscript lookup 21 subtable" uni2081
AlternateSubs2: "'aalt' Access All Alternates lookup 1 subtable" uni00B9 one.lf one.tosf one.dnom one.numr uni2081
EndChar

StartChar: two
Encoding: 50 50 21
Width: 497
Flags: W
LayerCount: 2
Fore
SplineSet
25 0 m 1,0,-1
 25 107 l 1,1,-1
 140 239 l 2,2,3
 197 305 197 305 228 356 c 128,-1,4
 259 407 259 407 271.5 452.5 c 128,-1,5
 284 498 284 498 284 549 c 0,6,7
 284 611 284 611 268 635 c 128,-1,8
 252 659 252 659 231 659 c 0,9,10
 197 659 197 659 178 619.5 c 128,-1,11
 159 580 159 580 159 484 c 1,12,13
 124 484 124 484 93.5 492 c 128,-1,14
 63 500 63 500 44 521 c 128,-1,15
 25 542 25 542 25 581 c 0,16,17
 25 615 25 615 47 648 c 128,-1,18
 69 681 69 681 115 702.5 c 128,-1,19
 161 724 161 724 231 724 c 0,20,21
 341 724 341 724 396 676 c 128,-1,22
 451 628 451 628 451 550 c 0,23,24
 451 495 451 495 428 444 c 128,-1,25
 405 393 405 393 355.5 336.5 c 128,-1,26
 306 280 306 280 226 208 c 2,27,-1
 137 122 l 1,28,-1
 327 122 l 2,29,30
 344 122 344 122 367 137.5 c 128,-1,31
 390 153 390 153 399 189 c 2,32,-1
 409 225 l 1,33,-1
 472 225 l 1,34,-1
 468 0 l 1,35,-1
 25 0 l 1,0,-1
EndSplineSet
Substitution2: "'case' Case-Sensitive Forms lookup 39 subtable" two.lf
Substitution2: "'onum' Oldstyle Figures lookup 36 subtable" two.tosf
Substitution2: "'pnum' Proportional Numbers lookup 34 subtable" two.lf
Substitution2: "'frac' Diagonal Fractions lookup 27 subtable" two.numr
Substitution2: "'dnom' Denominators lookup 25 subtable" two.dnom
Substitution2: "'numr' Numerators lookup 24 subtable" two.numr
Substitution2: "'sups' Superscript lookup 22 subtable" uni00B2
Substitution2: "'subs' Subscript lookup 21 subtable" uni2082
AlternateSubs2: "'aalt' Access All Alternates lookup 1 subtable" uni00B2 two.lf two.tosf two.dnom two.numr uni2082
EndChar

StartChar: three
Encoding: 51 51 22
Width: 497
Flags: W
LayerCount: 2
Fore
SplineSet
216 -10 m 0,0,1
 106 -10 106 -10 60.5 28 c 128,-1,2
 15 66 15 66 15 123 c 0,3,4
 15 164 15 164 42.5 185 c 128,-1,5
 70 206 70 206 105 206 c 1,6,7
 105 138 105 138 136 102 c 128,-1,8
 167 66 167 66 211 66 c 0,9,10
 235 66 235 66 256 78 c 128,-1,11
 277 90 277 90 290 120 c 128,-1,12
 303 150 303 150 303 206 c 256,13,14
 303 262 303 262 273 299.5 c 128,-1,15
 243 337 243 337 183 337 c 2,16,-1
 117 337 l 1,17,-1
 117 403 l 1,18,-1
 188 403 l 2,19,20
 245 403 245 403 263 442.5 c 128,-1,21
 281 482 281 482 281 546 c 0,22,23
 281 598 281 598 265 628.5 c 128,-1,24
 249 659 249 659 223 659 c 0,25,26
 198 659 198 659 182.5 636 c 128,-1,27
 167 613 167 613 160 577 c 128,-1,28
 153 541 153 541 153 501 c 1,29,30
 96 501 96 501 61.5 521 c 128,-1,31
 27 541 27 541 27 589 c 0,32,33
 27 623 27 623 49 654 c 128,-1,34
 71 685 71 685 116 704.5 c 128,-1,35
 161 724 161 724 231 724 c 0,36,37
 333 724 333 724 391 681 c 128,-1,38
 449 638 449 638 449 558 c 0,39,40
 449 491 449 491 411 447.5 c 128,-1,41
 373 404 373 404 319 380 c 1,42,43
 356 371 356 371 391 350.5 c 128,-1,44
 426 330 426 330 448.5 294.5 c 128,-1,45
 471 259 471 259 471 205 c 0,46,47
 471 124 471 124 436 77 c 128,-1,48
 401 30 401 30 343 10 c 128,-1,49
 285 -10 285 -10 216 -10 c 0,0,1
EndSplineSet
Substitution2: "'case' Case-Sensitive Forms lookup 39 subtable" three.lf
Substitution2: "'onum' Oldstyle Figures lookup 36 subtable" three.tosf
Substitution2: "'pnum' Proportional Numbers lookup 34 subtable" three.lf
Substitution2: "'frac' Diagonal Fractions lookup 27 subtable" three.numr
Substitution2: "'dnom' Denominators lookup 25 subtable" three.dnom
Substitution2: "'numr' Numerators lookup 24 subtable" three.numr
Substitution2: "'sups' Superscript lookup 22 subtable" uni00B3
Substitution2: "'subs' Subscript lookup 21 subtable" uni2083
AlternateSubs2: "'aalt' Access All Alternates lookup 1 subtable" uni00B3 three.lf three.tosf three.dnom three.numr uni2083
EndChar

StartChar: four
Encoding: 52 52 23
Width: 497
Flags: W
LayerCount: 2
Fore
SplineSet
137 0 m 1,0,-1
 137 58 l 1,1,-1
 163 58 l 2,2,3
 192 58 192 58 213.5 70 c 128,-1,4
 235 82 235 82 235 130 c 2,5,-1
 235 183 l 1,6,-1
 11 183 l 1,7,-1
 11 251 l 1,8,-1
 241 714 l 1,9,-1
 397 714 l 1,10,-1
 397 252 l 1,11,-1
 475 252 l 1,12,-1
 475 183 l 1,13,-1
 397 183 l 1,14,-1
 397 130 l 2,15,16
 397 82 397 82 418 70 c 128,-1,17
 439 58 439 58 469 58 c 2,18,-1
 481 58 l 1,19,-1
 481 0 l 1,20,-1
 137 0 l 1,0,-1
84 252 m 1,21,-1
 235 252 l 1,22,-1
 235 431 l 2,23,24
 235 474 235 474 236.5 515 c 128,-1,25
 238 556 238 556 241 602 c 1,26,27
 229 569 229 569 211 525.5 c 128,-1,28
 193 482 193 482 180 453 c 2,29,-1
 84 252 l 1,21,-1
EndSplineSet
Substitution2: "'case' Case-Sensitive Forms lookup 39 subtable" four.lf
Substitution2: "'onum' Oldstyle Figures lookup 36 subtable" four.tosf
Substitution2: "'pnum' Proportional Numbers lookup 34 subtable" four.lf
Substitution2: "'frac' Diagonal Fractions lookup 27 subtable" four.numr
Substitution2: "'dnom' Denominators lookup 25 subtable" four.dnom
Substitution2: "'numr' Numerators lookup 24 subtable" four.numr
Substitution2: "'sups' Superscript lookup 22 subtable" uni2074
Substitution2: "'subs' Subscript lookup 21 subtable" uni2084
AlternateSubs2: "'aalt' Access All Alternates lookup 1 subtable" uni2074 four.lf four.tosf four.dnom four.numr uni2084
EndChar

StartChar: five
Encoding: 53 53 24
Width: 497
Flags: W
LayerCount: 2
Fore
SplineSet
219 -10 m 0,0,1
 152 -10 152 -10 109.5 8 c 128,-1,2
 67 26 67 26 47 56 c 128,-1,3
 27 86 27 86 27 120 c 0,4,5
 27 157 27 157 51 175.5 c 128,-1,6
 75 194 75 194 109 194 c 1,7,8
 109 165 109 165 116.5 134.5 c 128,-1,9
 124 104 124 104 143.5 83.5 c 128,-1,10
 163 63 163 63 199 63 c 0,11,12
 223 63 223 63 244.5 77 c 128,-1,13
 266 91 266 91 280 125 c 128,-1,14
 294 159 294 159 294 220 c 0,15,16
 294 367 294 367 184 367 c 0,17,18
 159 367 159 367 138 361 c 128,-1,19
 117 355 117 355 94 350 c 1,20,-1
 53 372 l 1,21,-1
 84 714 l 1,22,-1
 431 714 l 1,23,-1
 435 520 l 1,24,-1
 375 520 l 1,25,-1
 365 554 l 2,26,27
 360 572 360 572 353 582.5 c 128,-1,28
 346 593 346 593 329 593 c 2,29,-1
 139 593 l 1,30,-1
 124 421 l 1,31,32
 139 428 139 428 168.5 432.5 c 128,-1,33
 198 437 198 437 217 437 c 0,34,35
 332 437 332 437 397 383 c 128,-1,36
 462 329 462 329 462 220 c 0,37,38
 462 150 462 150 436.5 105 c 128,-1,39
 411 60 411 60 372.5 35 c 128,-1,40
 334 10 334 10 292.5 0 c 128,-1,41
 251 -10 251 -10 219 -10 c 0,0,1
EndSplineSet
Substitution2: "'case' Case-Sensitive Forms lookup 39 subtable" five.lf
Substitution2: "'onum' Oldstyle Figures lookup 36 subtable" five.tosf
Substitution2: "'pnum' Proportional Numbers lookup 34 subtable" five.lf
Substitution2: "'frac' Diagonal Fractions lookup 27 subtable" five.numr
Substitution2: "'dnom' Denominators lookup 25 subtable" five.dnom
Substitution2: "'numr' Numerators lookup 24 subtable" five.numr
Substitution2: "'sups' Superscript lookup 22 subtable" uni2075
Substitution2: "'subs' Subscript lookup 21 subtable" uni2085
AlternateSubs2: "'aalt' Access All Alternates lookup 1 subtable" uni2075 five.lf five.tosf five.dnom five.numr uni2085
EndChar

StartChar: six
Encoding: 54 54 25
Width: 497
Flags: W
LayerCount: 2
Fore
SplineSet
260 -10 m 0,0,1
 155 -10 155 -10 92.5 73 c 128,-1,2
 30 156 30 156 30 331 c 0,3,4
 30 518 30 518 93.5 621 c 128,-1,5
 157 724 157 724 282 724 c 0,6,7
 345 724 345 724 383.5 708 c 128,-1,8
 422 692 422 692 439.5 666.5 c 128,-1,9
 457 641 457 641 457 611 c 0,10,11
 457 576 457 576 430.5 551.5 c 128,-1,12
 404 527 404 527 338 527 c 1,13,14
 338 581 338 581 322.5 621 c 128,-1,15
 307 661 307 661 277 661 c 0,16,17
 234 661 234 661 212.5 593 c 128,-1,18
 191 525 191 525 185 405 c 1,19,20
 204 418 204 418 229.5 429 c 128,-1,21
 255 440 255 440 297 440 c 0,22,23
 378 440 378 440 426.5 385 c 128,-1,24
 475 330 475 330 475 231 c 0,25,26
 475 124 475 124 422 57 c 128,-1,27
 369 -10 369 -10 260 -10 c 0,0,1
261 60 m 0,28,29
 287 60 287 60 303.5 97.5 c 128,-1,30
 320 135 320 135 320 221 c 0,31,32
 320 302 320 302 301.5 336.5 c 128,-1,33
 283 371 283 371 255 371 c 0,34,35
 234 371 234 371 216 360 c 128,-1,36
 198 349 198 349 186 339 c 1,37,38
 186 196 186 196 203.5 128 c 128,-1,39
 221 60 221 60 261 60 c 0,28,29
EndSplineSet
Substitution2: "'case' Case-Sensitive Forms lookup 39 subtable" six.lf
Substitution2: "'onum' Oldstyle Figures lookup 36 subtable" six.tosf
Substitution2: "'pnum' Proportional Numbers lookup 34 subtable" six.lf
Substitution2: "'frac' Diagonal Fractions lookup 27 subtable" six.numr
Substitution2: "'dnom' Denominators lookup 25 subtable" six.dnom
Substitution2: "'numr' Numerators lookup 24 subtable" six.numr
Substitution2: "'sups' Superscript lookup 22 subtable" uni2076
Substitution2: "'subs' Subscript lookup 21 subtable" uni2086
AlternateSubs2: "'aalt' Access All Alternates lookup 1 subtable" uni2076 six.lf six.tosf six.dnom six.numr uni2086
EndChar

StartChar: seven
Encoding: 55 55 26
Width: 497
Flags: W
LayerCount: 2
Fore
SplineSet
126 0 m 1,0,-1
 372 593 l 1,1,-1
 161 593 l 2,2,3
 116 593 116 593 110 541 c 2,4,-1
 102 492 l 1,5,-1
 38 492 l 1,6,-1
 43 714 l 1,7,-1
 462 714 l 1,8,-1
 462 657 l 1,9,-1
 225 0 l 1,10,-1
 126 0 l 1,0,-1
EndSplineSet
Substitution2: "'case' Case-Sensitive Forms lookup 39 subtable" seven.lf
Substitution2: "'onum' Oldstyle Figures lookup 36 subtable" seven.tosf
Substitution2: "'pnum' Proportional Numbers lookup 34 subtable" seven.lf
Substitution2: "'frac' Diagonal Fractions lookup 27 subtable" seven.numr
Substitution2: "'dnom' Denominators lookup 25 subtable" seven.dnom
Substitution2: "'numr' Numerators lookup 24 subtable" seven.numr
Substitution2: "'sups' Superscript lookup 22 subtable" uni2077
Substitution2: "'subs' Subscript lookup 21 subtable" uni2087
AlternateSubs2: "'aalt' Access All Alternates lookup 1 subtable" uni2077 seven.lf seven.tosf seven.dnom seven.numr uni2087
EndChar

StartChar: eight
Encoding: 56 56 27
Width: 497
Flags: W
LayerCount: 2
Fore
SplineSet
243 -10 m 0,0,1
 163 -10 163 -10 113.5 15.5 c 128,-1,2
 64 41 64 41 40.5 83 c 128,-1,3
 17 125 17 125 17 174 c 0,4,5
 17 252 17 252 56 294.5 c 128,-1,6
 95 337 95 337 152 360 c 1,7,8
 100 392 100 392 69 433 c 128,-1,9
 38 474 38 474 38 541 c 0,10,11
 38 592 38 592 59.5 633 c 128,-1,12
 81 674 81 674 129 699 c 128,-1,13
 177 724 177 724 255 724 c 0,14,15
 323 724 323 724 368 702 c 128,-1,16
 413 680 413 680 435 642.5 c 128,-1,17
 457 605 457 605 457 560 c 0,18,19
 457 495 457 495 426.5 456.5 c 128,-1,20
 396 418 396 418 340 391 c 1,21,22
 391 363 391 363 421.5 334.5 c 128,-1,23
 452 306 452 306 466 270.5 c 128,-1,24
 480 235 480 235 480 186 c 0,25,26
 480 99 480 99 418.5 44.5 c 128,-1,27
 357 -10 357 -10 243 -10 c 0,0,1
275 425 m 1,28,29
 292 442 292 442 304.5 473 c 128,-1,30
 317 504 317 504 317 556 c 0,31,32
 317 601 317 601 299.5 631 c 128,-1,33
 282 661 282 661 252 661 c 0,34,35
 223 661 223 661 208 634.5 c 128,-1,36
 193 608 193 608 193 561 c 0,37,38
 193 509 193 509 215.5 477.5 c 128,-1,39
 238 446 238 446 275 425 c 1,28,29
247 54 m 0,40,41
 279 54 279 54 299 83 c 128,-1,42
 319 112 319 112 319 166 c 0,43,44
 319 214 319 214 289.5 252 c 128,-1,45
 260 290 260 290 209 322 c 1,46,47
 187 299 187 299 174.5 265.5 c 128,-1,48
 162 232 162 232 162 184 c 0,49,50
 162 117 162 117 187 85.5 c 128,-1,51
 212 54 212 54 247 54 c 0,40,41
EndSplineSet
Substitution2: "'case' Case-Sensitive Forms lookup 39 subtable" eight.lf
Substitution2: "'onum' Oldstyle Figures lookup 36 subtable" eight.tosf
Substitution2: "'pnum' Proportional Numbers lookup 34 subtable" eight.lf
Substitution2: "'frac' Diagonal Fractions lookup 27 subtable" eight.numr
Substitution2: "'dnom' Denominators lookup 25 subtable" eight.dnom
Substitution2: "'numr' Numerators lookup 24 subtable" eight.numr
Substitution2: "'sups' Superscript lookup 22 subtable" uni2078
Substitution2: "'subs' Subscript lookup 21 subtable" uni2088
AlternateSubs2: "'aalt' Access All Alternates lookup 1 subtable" uni2078 eight.lf eight.tosf eight.dnom eight.numr uni2088
EndChar

StartChar: nine
Encoding: 57 57 28
Width: 497
Flags: W
LayerCount: 2
Fore
SplineSet
202 -10 m 0,0,1
 118 -10 118 -10 81.5 25 c 128,-1,2
 45 60 45 60 45 107 c 0,3,4
 45 130 45 130 59 152 c 128,-1,5
 73 174 73 174 108 180 c 1,6,7
 117 146 117 146 129 118 c 128,-1,8
 141 90 141 90 160 73.5 c 128,-1,9
 179 57 179 57 210 57 c 0,10,11
 304 57 304 57 313 334 c 1,12,13
 292 307 292 307 265.5 291.5 c 128,-1,14
 239 276 239 276 195 276 c 0,15,16
 119 276 119 276 70.5 330 c 128,-1,17
 22 384 22 384 22 485 c 0,18,19
 22 557 22 557 47.5 610.5 c 128,-1,20
 73 664 73 664 120.5 694 c 128,-1,21
 168 724 168 724 234 724 c 0,22,23
 301 724 301 724 353.5 690.5 c 128,-1,24
 406 657 406 657 436.5 582.5 c 128,-1,25
 467 508 467 508 467 386 c 0,26,27
 467 272 467 272 440 182.5 c 128,-1,28
 413 93 413 93 354.5 41.5 c 128,-1,29
 296 -10 296 -10 202 -10 c 0,0,1
244 352 m 0,30,31
 283 353 283 353 313 402 c 1,32,33
 312 495 312 495 304 550 c 128,-1,34
 296 605 296 605 281 629 c 128,-1,35
 266 653 266 653 243 653 c 0,36,37
 211 653 211 653 193.5 612.5 c 128,-1,38
 176 572 176 572 176 488 c 0,39,40
 176 426 176 426 193 389.5 c 128,-1,41
 210 353 210 353 244 352 c 0,30,31
EndSplineSet
Substitution2: "'case' Case-Sensitive Forms lookup 39 subtable" nine.lf
Substitution2: "'onum' Oldstyle Figures lookup 36 subtable" nine.tosf
Substitution2: "'pnum' Proportional Numbers lookup 34 subtable" nine.lf
Substitution2: "'frac' Diagonal Fractions lookup 27 subtable" nine.numr
Substitution2: "'dnom' Denominators lookup 25 subtable" nine.dnom
Substitution2: "'numr' Numerators lookup 24 subtable" nine.numr
Substitution2: "'sups' Superscript lookup 22 subtable" uni2079
Substitution2: "'subs' Subscript lookup 21 subtable" uni2089
AlternateSubs2: "'aalt' Access All Alternates lookup 1 subtable" uni2079 nine.lf nine.tosf nine.dnom nine.numr uni2089
EndChar

StartChar: colon
Encoding: 58 58 29
Width: 281
Flags: W
LayerCount: 2
Fore
SplineSet
140 377 m 0,0,1
 104 377 104 377 79.5 395 c 128,-1,2
 55 413 55 413 55 461 c 256,3,4
 55 509 55 509 79.5 527 c 128,-1,5
 104 545 104 545 140 545 c 0,6,7
 173 545 173 545 199 527 c 128,-1,8
 225 509 225 509 225 461 c 256,9,10
 225 413 225 413 199 395 c 128,-1,11
 173 377 173 377 140 377 c 0,0,1
140 -8 m 0,12,13
 104 -8 104 -8 79.5 10 c 128,-1,14
 55 28 55 28 55 76 c 256,15,16
 55 124 55 124 79.5 142 c 128,-1,17
 104 160 104 160 140 160 c 0,18,19
 173 160 173 160 199 142 c 128,-1,20
 225 124 225 124 225 76 c 256,21,22
 225 28 225 28 199 10 c 128,-1,23
 173 -8 173 -8 140 -8 c 0,12,13
EndSplineSet
EndChar

StartChar: semicolon
Encoding: 59 59 30
Width: 281
Flags: W
LayerCount: 2
Fore
SplineSet
140 377 m 0,0,1
 104 377 104 377 79.5 395 c 128,-1,2
 55 413 55 413 55 461 c 256,3,4
 55 509 55 509 79.5 527 c 128,-1,5
 104 545 104 545 140 545 c 0,6,7
 174 545 174 545 199.5 527 c 128,-1,8
 225 509 225 509 225 461 c 256,9,10
 225 413 225 413 199.5 395 c 128,-1,11
 174 377 174 377 140 377 c 0,0,1
51 -154 m 1,12,-1
 51 -98 l 1,13,14
 87 -83 87 -83 106 -68 c 128,-1,15
 125 -53 125 -53 125 -25 c 0,16,17
 125 -11 125 -11 115 -4 c 128,-1,18
 105 3 105 3 92.5 12 c 128,-1,19
 80 21 80 21 70 38 c 128,-1,20
 60 55 60 55 60 88 c 0,21,22
 60 123 60 123 82 141.5 c 128,-1,23
 104 160 104 160 134 160 c 0,24,25
 178 160 178 160 198.5 127 c 128,-1,26
 219 94 219 94 219 39 c 0,27,28
 219 -23 219 -23 181 -75.5 c 128,-1,29
 143 -128 143 -128 51 -154 c 1,12,-1
EndSplineSet
EndChar

StartChar: less
Encoding: 60 60 31
Width: 468
Flags: W
LayerCount: 2
Fore
SplineSet
426 99 m 1,0,-1
 42 336 l 1,1,-1
 42 379 l 1,2,-1
 426 617 l 1,3,-1
 426 533 l 1,4,-1
 145 357 l 1,5,-1
 426 183 l 1,6,-1
 426 99 l 1,0,-1
EndSplineSet
EndChar

StartChar: equal
Encoding: 61 61 32
Width: 468
Flags: W
LayerCount: 2
Fore
SplineSet
39 413 m 1,0,-1
 39 487 l 1,1,-1
 430 487 l 1,2,-1
 430 413 l 1,3,-1
 39 413 l 1,0,-1
39 227 m 1,4,-1
 39 301 l 1,5,-1
 430 301 l 1,6,-1
 430 227 l 1,7,-1
 39 227 l 1,4,-1
EndSplineSet
Substitution2: "'sups' Superscript lookup 22 subtable" uni207C
Substitution2: "'subs' Subscript lookup 21 subtable" uni208C
AlternateSubs2: "'aalt' Access All Alternates lookup 1 subtable" uni208C uni207C
EndChar

StartChar: greater
Encoding: 62 62 33
Width: 468
Flags: W
LayerCount: 2
Fore
SplineSet
42 99 m 1,0,-1
 42 183 l 1,1,-1
 323 357 l 1,2,-1
 42 533 l 1,3,-1
 42 617 l 1,4,-1
 426 379 l 1,5,-1
 426 336 l 1,6,-1
 42 99 l 1,0,-1
EndSplineSet
EndChar

StartChar: question
Encoding: 63 63 34
Width: 503
Flags: W
LayerCount: 2
Fore
SplineSet
195 233 m 1,0,-1
 172 349 l 1,1,2
 222 374 222 374 247 405.5 c 128,-1,3
 272 437 272 437 280.5 474 c 128,-1,4
 289 511 289 511 289 552 c 0,5,6
 289 600 289 600 274.5 630 c 128,-1,7
 260 660 260 660 234 660 c 0,8,9
 175 660 175 660 175 519 c 1,10,11
 104 519 104 519 66 536 c 128,-1,12
 28 553 28 553 28 599 c 0,13,14
 28 631 28 631 50 659.5 c 128,-1,15
 72 688 72 688 117 706 c 128,-1,16
 162 724 162 724 233 724 c 0,17,18
 340 724 340 724 403 675.5 c 128,-1,19
 466 627 466 627 466 539 c 0,20,21
 466 487 466 487 447 449 c 128,-1,22
 428 411 428 411 388.5 381 c 128,-1,23
 349 351 349 351 288 323 c 1,24,-1
 265 233 l 1,25,-1
 195 233 l 1,0,-1
228 -8 m 0,26,27
 192 -8 192 -8 168 10.5 c 128,-1,28
 144 29 144 29 144 77 c 256,29,30
 144 125 144 125 168 143.5 c 128,-1,31
 192 162 192 162 228 162 c 0,32,33
 262 162 262 162 287 143.5 c 128,-1,34
 312 125 312 125 312 77 c 256,35,36
 312 29 312 29 287 10.5 c 128,-1,37
 262 -8 262 -8 228 -8 c 0,26,27
EndSplineSet
Substitution2: "'smcp' Lowercase to Small Capitals lookup 38 subtable" question.sc
Substitution2: "'c2sc' Capitals to Small Capitals lookup 37 subtable" question.sc
Substitution2: "'aalt' Access All Alternates lookup 0 subtable" question.sc
EndChar

StartChar: at
Encoding: 64 64 35
Width: 813
Flags: W
LayerCount: 2
Fore
SplineSet
419 -142 m 0,0,1
 346 -142 346 -142 279 -119 c 128,-1,2
 212 -96 212 -96 159 -49 c 128,-1,3
 106 -2 106 -2 75.5 70.5 c 128,-1,4
 45 143 45 143 45 243 c 0,5,6
 45 356 45 356 81 444 c 128,-1,7
 117 532 117 532 177 592 c 128,-1,8
 237 652 237 652 313 683 c 128,-1,9
 389 714 389 714 468 714 c 0,10,11
 560 714 560 714 630 675.5 c 128,-1,12
 700 637 700 637 739.5 563 c 128,-1,13
 779 489 779 489 779 383 c 0,14,15
 779 287 779 287 753.5 218.5 c 128,-1,16
 728 150 728 150 687.5 113.5 c 128,-1,17
 647 77 647 77 600 77 c 0,18,19
 561 77 561 77 533 96.5 c 128,-1,20
 505 116 505 116 489 170 c 1,21,-1
 482 170 l 1,22,23
 464 131 464 131 434 104 c 128,-1,24
 404 77 404 77 355 77 c 0,25,26
 296 77 296 77 256 120 c 128,-1,27
 216 163 216 163 216 248 c 0,28,29
 216 296 216 296 230.5 345.5 c 128,-1,30
 245 395 245 395 274.5 436.5 c 128,-1,31
 304 478 304 478 349 503.5 c 128,-1,32
 394 529 394 529 454 529 c 0,33,34
 482 529 482 529 510 519.5 c 128,-1,35
 538 510 538 510 549 499 c 1,36,-1
 586 520 l 1,37,-1
 619 520 l 1,38,-1
 584 275 l 2,39,40
 581 253 581 253 579.5 232 c 128,-1,41
 578 211 578 211 578 204 c 0,42,43
 578 159 578 159 590 146 c 128,-1,44
 602 133 602 133 611 133 c 0,45,46
 632 133 632 133 654.5 160 c 128,-1,47
 677 187 677 187 692.5 241.5 c 128,-1,48
 708 296 708 296 708 378 c 0,49,50
 708 472 708 472 676 535 c 128,-1,51
 644 598 644 598 588.5 629.5 c 128,-1,52
 533 661 533 661 462 661 c 0,53,54
 400 661 400 661 341.5 632 c 128,-1,55
 283 603 283 603 236.5 548.5 c 128,-1,56
 190 494 190 494 163 416 c 128,-1,57
 136 338 136 338 136 239 c 0,58,59
 136 128 136 128 173 56.5 c 128,-1,60
 210 -15 210 -15 276 -50 c 128,-1,61
 342 -85 342 -85 429 -85 c 0,62,63
 509 -85 509 -85 571 -60 c 128,-1,64
 633 -35 633 -35 676 -3 c 1,65,-1
 698 -47 l 1,66,67
 646 -86 646 -86 581.5 -114 c 128,-1,68
 517 -142 517 -142 419 -142 c 0,0,1
393 136 m 0,69,70
 415 136 415 136 429 152 c 128,-1,71
 443 168 443 168 451 193 c 128,-1,72
 459 218 459 218 464 246 c 2,73,-1
 499 457 l 1,74,75
 494 470 494 470 480 477.5 c 128,-1,76
 466 485 466 485 454 485 c 0,77,78
 425 485 425 485 404.5 459.5 c 128,-1,79
 384 434 384 434 370.5 395 c 128,-1,80
 357 356 357 356 351 313.5 c 128,-1,81
 345 271 345 271 345 236 c 0,82,83
 345 183 345 183 358.5 159.5 c 128,-1,84
 372 136 372 136 393 136 c 0,69,70
EndSplineSet
EndChar

StartChar: A
Encoding: 65 65 36
Width: 696
GlyphClass: 2
Flags: W
AnchorPoint: "Anchor-2" 583 714 basechar 0
AnchorPoint: "Anchor-1" 349 714 basechar 0
AnchorPoint: "Anchor-0" 349 0 basechar 0
LayerCount: 2
Fore
SplineSet
6 0 m 1,0,-1
 6 58 l 1,1,-1
 12 58 l 2,2,3
 35 58 35 58 53 71 c 128,-1,4
 71 84 71 84 85 128 c 2,5,-1
 274 714 l 1,6,-1
 434 714 l 1,7,-1
 615 121 l 2,8,9
 625 87 625 87 643.5 72.5 c 128,-1,10
 662 58 662 58 687 58 c 2,11,-1
 696 58 l 1,12,-1
 696 0 l 1,13,-1
 369 0 l 1,14,-1
 369 58 l 1,15,-1
 405 58 l 2,16,17
 418 58 418 58 429.5 64.5 c 128,-1,18
 441 71 441 71 441 90 c 0,19,20
 441 103 441 103 437.5 118 c 128,-1,21
 434 133 434 133 432 140 c 2,22,-1
 404 233 l 1,23,-1
 203 233 l 1,24,-1
 183 157 l 2,25,26
 180 145 180 145 175.5 125.5 c 128,-1,27
 171 106 171 106 171 92 c 0,28,29
 171 76 171 76 178 67 c 128,-1,30
 185 58 185 58 203 58 c 2,31,-1
 246 58 l 1,32,-1
 246 0 l 1,33,-1
 6 0 l 1,0,-1
223 299 m 1,34,-1
 385 299 l 1,35,-1
 336 490 l 2,36,37
 328 519 328 519 320.5 549.5 c 128,-1,38
 313 580 313 580 308 613 c 1,39,40
 301 581 301 581 293.5 550.5 c 128,-1,41
 286 520 286 520 278 492 c 2,42,-1
 223 299 l 1,34,-1
EndSplineSet
Substitution2: "'c2sc' Capitals to Small Capitals lookup 37 subtable" a.sc
Substitution2: "Single Substitution lookup 32 subtable" ordfeminine
AlternateSubs2: "'aalt' Access All Alternates lookup 1 subtable" ordfeminine a.sc
EndChar

StartChar: B
Encoding: 66 66 37
Width: 636
GlyphClass: 2
Flags: W
AnchorPoint: "Anchor-2" 616 714 basechar 0
AnchorPoint: "Anchor-1" 318 714 basechar 0
AnchorPoint: "Anchor-0" 318 0 basechar 0
LayerCount: 2
Fore
SplineSet
18 0 m 1,0,-1
 18 58 l 1,1,-1
 64 58 l 2,2,3
 100 58 100 58 100 115 c 2,4,-1
 100 599 l 2,5,6
 100 634 100 634 87 645.5 c 128,-1,7
 74 657 74 657 62 657 c 2,8,-1
 18 657 l 1,9,-1
 18 714 l 1,10,-1
 308 714 l 2,11,12
 442 714 442 714 513 674 c 128,-1,13
 584 634 584 634 584 540 c 0,14,15
 584 494 584 494 565.5 462.5 c 128,-1,16
 547 431 547 431 517 411 c 128,-1,17
 487 391 487 391 452 381 c 1,18,-1
 452 376 l 1,19,20
 521 364 521 364 565.5 320.5 c 128,-1,21
 610 277 610 277 610 197 c 0,22,23
 610 98 610 98 542 49 c 128,-1,24
 474 0 474 0 335 0 c 2,25,-1
 18 0 l 1,0,-1
276 407 m 1,26,-1
 300 407 l 2,27,28
 350 407 350 407 375 435.5 c 128,-1,29
 400 464 400 464 400 531 c 0,30,31
 400 597 400 597 373.5 623 c 128,-1,32
 347 649 347 649 299 649 c 2,33,-1
 276 649 l 1,34,-1
 276 407 l 1,26,-1
276 66 m 1,35,-1
 321 66 l 2,36,37
 368 66 368 66 394.5 95.5 c 128,-1,38
 421 125 421 125 421 200 c 0,39,40
 421 341 421 341 323 341 c 2,41,-1
 276 341 l 1,42,-1
 276 66 l 1,35,-1
EndSplineSet
Substitution2: "'c2sc' Capitals to Small Capitals lookup 37 subtable" b.sc
Substitution2: "'aalt' Access All Alternates lookup 0 subtable" b.sc
EndChar

StartChar: C
Encoding: 67 67 38
Width: 626
GlyphClass: 2
Flags: W
AnchorPoint: "Anchor-2" 606 714 basechar 0
AnchorPoint: "Anchor-1" 356 714 basechar 0
AnchorPoint: "Anchor-0" 356 0 basechar 0
LayerCount: 2
Fore
SplineSet
370 -10 m 0,0,1
 262 -10 262 -10 190.5 36 c 128,-1,2
 119 82 119 82 83.5 164.5 c 128,-1,3
 48 247 48 247 48 358 c 0,4,5
 48 466 48 466 84 548.5 c 128,-1,6
 120 631 120 631 191.5 677.5 c 128,-1,7
 263 724 263 724 369 724 c 0,8,9
 478 724 478 724 532.5 689.5 c 128,-1,10
 587 655 587 655 587 606 c 0,11,12
 587 567 587 567 554 540 c 128,-1,13
 521 513 521 513 452 513 c 1,14,15
 452 547 452 547 443.5 579.5 c 128,-1,16
 435 612 435 612 415 634 c 128,-1,17
 395 656 395 656 359 656 c 0,18,19
 287 656 287 656 260.5 578 c 128,-1,20
 234 500 234 500 234 358 c 0,21,22
 234 207 234 207 271 140.5 c 128,-1,23
 308 74 308 74 400 74 c 0,24,25
 447 74 447 74 480.5 89.5 c 128,-1,26
 514 105 514 105 537 128.5 c 128,-1,27
 560 152 560 152 574 175 c 1,28,29
 581 169 581 169 584.5 155.5 c 128,-1,30
 588 142 588 142 588 131 c 0,31,32
 588 109 588 109 578.5 84.5 c 128,-1,33
 569 60 569 60 545.5 38.5 c 128,-1,34
 522 17 522 17 479 3.5 c 128,-1,35
 436 -10 436 -10 370 -10 c 0,0,1
EndSplineSet
Substitution2: "'c2sc' Capitals to Small Capitals lookup 37 subtable" c.sc
Substitution2: "'aalt' Access All Alternates lookup 0 subtable" c.sc
EndChar

StartChar: D
Encoding: 68 68 39
Width: 704
GlyphClass: 2
Flags: W
AnchorPoint: "Anchor-3" 352 357 basechar 0
AnchorPoint: "Anchor-2" 684 714 basechar 0
AnchorPoint: "Anchor-1" 352 714 basechar 0
AnchorPoint: "Anchor-0" 352 0 basechar 0
LayerCount: 2
Fore
SplineSet
19 0 m 1,0,-1
 19 58 l 1,1,-1
 66 58 l 2,2,3
 82 58 82 58 91 73 c 128,-1,4
 100 88 100 88 100 114 c 2,5,-1
 100 600 l 2,6,7
 100 631 100 631 88.5 644 c 128,-1,8
 77 657 77 657 58 657 c 2,9,-1
 19 657 l 1,10,-1
 19 714 l 1,11,-1
 326 714 l 2,12,13
 480 714 480 714 568.5 629.5 c 128,-1,14
 657 545 657 545 657 375 c 0,15,16
 657 265 657 265 619.5 180.5 c 128,-1,17
 582 96 582 96 508 48 c 128,-1,18
 434 0 434 0 326 0 c 2,19,-1
 19 0 l 1,0,-1
276 67 m 1,20,-1
 305 67 l 2,21,22
 385 67 385 67 427 150.5 c 128,-1,23
 469 234 469 234 469 375 c 256,24,25
 469 516 469 516 427 582.5 c 128,-1,26
 385 649 385 649 305 649 c 2,27,-1
 276 649 l 1,28,-1
 276 67 l 1,20,-1
EndSplineSet
Substitution2: "'c2sc' Capitals to Small Capitals lookup 37 subtable" d.sc
Substitution2: "'aalt' Access All Alternates lookup 0 subtable" d.sc
EndChar

StartChar: E
Encoding: 69 69 40
Width: 597
GlyphClass: 2
Flags: W
AnchorPoint: "Anchor-2" 577 714 basechar 0
AnchorPoint: "Anchor-1" 299 714 basechar 0
AnchorPoint: "Anchor-0" 299 0 basechar 0
LayerCount: 2
Fore
SplineSet
19 0 m 1,0,-1
 19 58 l 1,1,-1
 64 58 l 2,2,3
 100 58 100 58 100 109 c 2,4,-1
 100 600 l 2,5,6
 100 637 100 637 88 647 c 128,-1,7
 76 657 76 657 62 657 c 2,8,-1
 19 657 l 1,9,-1
 19 714 l 1,10,-1
 543 714 l 1,11,-1
 546 526 l 1,12,-1
 472 526 l 1,13,-1
 467 574 l 2,14,15
 465 613 465 613 452 631 c 128,-1,16
 439 649 439 649 408 649 c 2,17,-1
 276 649 l 1,18,-1
 276 406 l 1,19,-1
 484 406 l 1,20,-1
 484 341 l 1,21,-1
 276 341 l 1,22,-1
 276 66 l 1,23,-1
 434 66 l 2,24,25
 463 66 463 66 477 86.5 c 128,-1,26
 491 107 491 107 496 140 c 2,27,-1
 503 188 l 1,28,-1
 575 188 l 1,29,-1
 570 0 l 1,30,-1
 19 0 l 1,0,-1
EndSplineSet
Substitution2: "'c2sc' Capitals to Small Capitals lookup 37 subtable" e.sc
Substitution2: "'aalt' Access All Alternates lookup 0 subtable" e.sc
EndChar

StartChar: F
Encoding: 70 70 41
Width: 570
GlyphClass: 2
Flags: W
AnchorPoint: "Anchor-2" 550 714 basechar 0
AnchorPoint: "Anchor-1" 285 714 basechar 0
AnchorPoint: "Anchor-0" 189 0 basechar 0
LayerCount: 2
Fore
SplineSet
19 0 m 1,0,-1
 19 58 l 1,1,-1
 50 58 l 2,2,3
 78 58 78 58 89 69 c 128,-1,4
 100 80 100 80 100 108 c 2,5,-1
 100 604 l 2,6,7
 100 633 100 633 89 645 c 128,-1,8
 78 657 78 657 63 657 c 2,9,-1
 19 657 l 1,10,-1
 19 714 l 1,11,-1
 541 714 l 1,12,-1
 546 526 l 1,13,-1
 472 526 l 1,14,-1
 467 576 l 2,15,16
 463 619 463 619 446.5 634 c 128,-1,17
 430 649 430 649 413 649 c 2,18,-1
 276 649 l 1,19,-1
 276 383 l 1,20,-1
 484 383 l 1,21,-1
 484 318 l 1,22,-1
 276 318 l 1,23,-1
 276 110 l 2,24,25
 276 84 276 84 286.5 71 c 128,-1,26
 297 58 297 58 324 58 c 2,27,-1
 376 58 l 1,28,-1
 376 0 l 1,29,-1
 19 0 l 1,0,-1
EndSplineSet
Substitution2: "'c2sc' Capitals to Small Capitals lookup 37 subtable" f.sc
Substitution2: "'aalt' Access All Alternates lookup 0 subtable" f.sc
EndChar

StartChar: G
Encoding: 71 71 42
Width: 716
GlyphClass: 2
Flags: W
AnchorPoint: "Anchor-2" 696 714 basechar 0
AnchorPoint: "Anchor-1" 388 714 basechar 0
AnchorPoint: "Anchor-0" 388 0 basechar 0
LayerCount: 2
Fore
SplineSet
389 -10 m 0,0,1
 274 -10 274 -10 198.5 36 c 128,-1,2
 123 82 123 82 85.5 164.5 c 128,-1,3
 48 247 48 247 48 358 c 0,4,5
 48 466 48 466 87 548.5 c 128,-1,6
 126 631 126 631 202.5 677.5 c 128,-1,7
 279 724 279 724 392 724 c 0,8,9
 511 724 511 724 571.5 689.5 c 128,-1,10
 632 655 632 655 632 606 c 0,11,12
 632 570 632 570 599 542.5 c 128,-1,13
 566 515 566 515 495 515 c 1,14,15
 495 582 495 582 467.5 619 c 128,-1,16
 440 656 440 656 390 656 c 0,17,18
 305 656 305 656 269 579 c 128,-1,19
 233 502 233 502 233 358 c 0,20,21
 233 215 233 215 271 138.5 c 128,-1,22
 309 62 309 62 402 62 c 0,23,24
 420 62 420 62 445 67 c 1,25,-1
 445 209 l 2,26,27
 445 247 445 247 433.5 263.5 c 128,-1,28
 422 280 422 280 389 280 c 2,29,-1
 373 280 l 1,30,-1
 373 338 l 1,31,-1
 676 338 l 1,32,-1
 676 280 l 1,33,-1
 668 280 l 2,34,35
 639 280 639 280 630.5 263 c 128,-1,36
 622 246 622 246 622 205 c 2,37,-1
 622 47 l 1,38,39
 565 19 565 19 508 4.5 c 128,-1,40
 451 -10 451 -10 389 -10 c 0,0,1
EndSplineSet
Substitution2: "'c2sc' Capitals to Small Capitals lookup 37 subtable" g.sc
Substitution2: "'aalt' Access All Alternates lookup 0 subtable" g.sc
EndChar

StartChar: H
Encoding: 72 72 43
Width: 740
GlyphClass: 2
Flags: W
AnchorPoint: "Anchor-3" 370 357 basechar 0
AnchorPoint: "Anchor-2" 720 714 basechar 0
AnchorPoint: "Anchor-1" 370 714 basechar 0
AnchorPoint: "Anchor-0" 370 0 basechar 0
LayerCount: 2
Fore
SplineSet
19 0 m 1,0,-1
 19 58 l 1,1,-1
 66 58 l 2,2,3
 81 58 81 58 90.5 72.5 c 128,-1,4
 100 87 100 87 100 111 c 2,5,-1
 100 601 l 2,6,7
 100 631 100 631 87.5 644 c 128,-1,8
 75 657 75 657 57 657 c 2,9,-1
 19 657 l 1,10,-1
 19 714 l 1,11,-1
 341 714 l 1,12,-1
 341 657 l 1,13,-1
 308 657 l 2,14,15
 277 657 277 657 277 605 c 2,16,-1
 277 406 l 1,17,-1
 464 406 l 1,18,-1
 464 602 l 2,19,20
 464 631 464 631 456 644 c 128,-1,21
 448 657 448 657 428 657 c 2,22,-1
 401 657 l 1,23,-1
 401 714 l 1,24,-1
 723 714 l 1,25,-1
 723 657 l 1,26,-1
 676 657 l 2,27,28
 660 657 660 657 651 644 c 128,-1,29
 642 631 642 631 642 602 c 2,30,-1
 642 112 l 2,31,32
 642 86 642 86 651.5 72 c 128,-1,33
 661 58 661 58 676 58 c 2,34,-1
 723 58 l 1,35,-1
 723 0 l 1,36,-1
 401 0 l 1,37,-1
 401 58 l 1,38,-1
 429 58 l 2,39,40
 464 58 464 58 464 116 c 2,41,-1
 464 340 l 1,42,-1
 277 340 l 1,43,-1
 277 111 l 2,44,45
 277 87 277 87 284.5 72.5 c 128,-1,46
 292 58 292 58 308 58 c 2,47,-1
 341 58 l 1,48,-1
 341 0 l 1,49,-1
 19 0 l 1,0,-1
EndSplineSet
Substitution2: "'c2sc' Capitals to Small Capitals lookup 37 subtable" h.sc
Substitution2: "'aalt' Access All Alternates lookup 0 subtable" h.sc
EndChar

StartChar: I
Encoding: 73 73 44
Width: 376
GlyphClass: 2
Flags: W
AnchorPoint: "Anchor-2" 356 714 basechar 0
AnchorPoint: "Anchor-1" 189 714 basechar 0
AnchorPoint: "Anchor-0" 189 0 basechar 0
LayerCount: 2
Fore
SplineSet
19 0 m 1,0,-1
 19 58 l 1,1,-1
 66 58 l 2,2,3
 77 58 77 58 88.5 70 c 128,-1,4
 100 82 100 82 100 109 c 2,5,-1
 100 601 l 2,6,7
 100 631 100 631 88.5 644 c 128,-1,8
 77 657 77 657 66 657 c 2,9,-1
 19 657 l 1,10,-1
 19 714 l 1,11,-1
 359 714 l 1,12,-1
 359 657 l 1,13,-1
 310 657 l 2,14,15
 294 657 294 657 285.5 644 c 128,-1,16
 277 631 277 631 277 600 c 2,17,-1
 277 110 l 2,18,19
 277 85 277 85 287 71.5 c 128,-1,20
 297 58 297 58 310 58 c 2,21,-1
 359 58 l 1,22,-1
 359 0 l 1,23,-1
 19 0 l 1,0,-1
EndSplineSet
Substitution2: "'c2sc' Capitals to Small Capitals lookup 37 subtable" i.sc
Substitution2: "'aalt' Access All Alternates lookup 0 subtable" i.sc
EndChar

StartChar: J
Encoding: 74 74 45
Width: 377
GlyphClass: 2
Flags: W
AnchorPoint: "Anchor-2" 342 714 basechar 0
AnchorPoint: "Anchor-1" 196 714 basechar 0
AnchorPoint: "Anchor-0" 117 -240 basechar 0
LayerCount: 2
Fore
SplineSet
-23 -240 m 1,0,-1
 -23 -177 l 1,1,-1
 -2 -177 l 2,2,3
 20 -177 20 -177 44.5 -160.5 c 128,-1,4
 69 -144 69 -144 87 -105 c 128,-1,5
 105 -66 105 -66 105 -1 c 2,6,-1
 105 603 l 2,7,8
 105 631 105 631 93.5 644 c 128,-1,9
 82 657 82 657 71 657 c 2,10,-1
 24 657 l 1,11,-1
 24 714 l 1,12,-1
 364 714 l 1,13,-1
 364 657 l 1,14,-1
 317 657 l 2,15,16
 305 657 305 657 293.5 644 c 128,-1,17
 282 631 282 631 282 601 c 2,18,-1
 282 0 l 2,19,20
 282 -68 282 -68 259.5 -114 c 128,-1,21
 237 -160 237 -160 199.5 -188 c 128,-1,22
 162 -216 162 -216 115.5 -228 c 128,-1,23
 69 -240 69 -240 22 -240 c 2,24,-1
 -23 -240 l 1,0,-1
EndSplineSet
Substitution2: "'c2sc' Capitals to Small Capitals lookup 37 subtable" j.sc
Substitution2: "'aalt' Access All Alternates lookup 0 subtable" j.sc
EndChar

StartChar: K
Encoding: 75 75 46
Width: 691
GlyphClass: 2
Flags: W
AnchorPoint: "Anchor-2" 671 714 basechar 0
AnchorPoint: "Anchor-1" 346 714 basechar 0
AnchorPoint: "Anchor-0" 346 0 basechar 0
LayerCount: 2
Fore
SplineSet
19 0 m 1,0,-1
 19 58 l 1,1,-1
 56 58 l 2,2,3
 74 58 74 58 87 70 c 128,-1,4
 100 82 100 82 100 110 c 2,5,-1
 100 606 l 2,6,7
 100 632 100 632 89 644.5 c 128,-1,8
 78 657 78 657 62 657 c 2,9,-1
 19 657 l 1,10,-1
 19 714 l 1,11,-1
 341 714 l 1,12,-1
 341 657 l 1,13,-1
 311 657 l 2,14,15
 277 657 277 657 277 605 c 2,16,-1
 277 352 l 1,17,-1
 397 519 l 2,18,19
 422 554 422 554 436 577.5 c 128,-1,20
 450 601 450 601 450 625 c 0,21,22
 450 642 450 642 438 650 c 128,-1,23
 426 658 426 658 395 658 c 1,24,-1
 395 714 l 1,25,-1
 663 714 l 1,26,-1
 663 658 l 1,27,28
 623 658 623 658 591 633.5 c 128,-1,29
 559 609 559 609 529 572 c 2,30,-1
 412 432 l 1,31,-1
 586 144 l 2,32,33
 616 95 616 95 635 76.5 c 128,-1,34
 654 58 654 58 685 58 c 2,35,-1
 691 58 l 1,36,-1
 691 0 l 1,37,-1
 605 0 l 2,38,39
 542 0 542 0 504 11 c 128,-1,40
 466 22 466 22 441.5 49.5 c 128,-1,41
 417 77 417 77 392 127 c 2,42,-1
 297 312 l 1,43,-1
 277 285 l 1,44,-1
 277 109 l 2,45,46
 277 82 277 82 289.5 70 c 128,-1,47
 302 58 302 58 320 58 c 2,48,-1
 341 58 l 1,49,-1
 341 0 l 1,50,-1
 19 0 l 1,0,-1
EndSplineSet
Substitution2: "'c2sc' Capitals to Small Capitals lookup 37 subtable" k.sc
Substitution2: "'aalt' Access All Alternates lookup 0 subtable" k.sc
EndChar

StartChar: L
Encoding: 76 76 47
Width: 598
GlyphClass: 2
Flags: W
AnchorPoint: "Anchor-3" 299 357 basechar 0
AnchorPoint: "Anchor-2" 578 714 basechar 0
AnchorPoint: "Anchor-1" 299 714 basechar 0
AnchorPoint: "Anchor-0" 299 0 basechar 0
LayerCount: 2
Fore
SplineSet
19 0 m 1,0,-1
 19 58 l 1,1,-1
 66 58 l 2,2,3
 77 58 77 58 88.5 70 c 128,-1,4
 100 82 100 82 100 109 c 2,5,-1
 100 602 l 2,6,7
 100 631 100 631 87.5 644 c 128,-1,8
 75 657 75 657 58 657 c 2,9,-1
 19 657 l 1,10,-1
 19 714 l 1,11,-1
 359 714 l 1,12,-1
 359 657 l 1,13,-1
 316 657 l 2,14,15
 292 657 292 657 285 644.5 c 128,-1,16
 278 632 278 632 278 605 c 2,17,-1
 278 66 l 1,18,-1
 435 66 l 2,19,20
 459 66 459 66 476 85 c 128,-1,21
 493 104 493 104 505 151 c 2,22,-1
 523 226 l 1,23,-1
 575 226 l 1,24,-1
 570 0 l 1,25,-1
 19 0 l 1,0,-1
EndSplineSet
Substitution2: "'c2sc' Capitals to Small Capitals lookup 37 subtable" l.sc
Substitution2: "'aalt' Access All Alternates lookup 0 subtable" l.sc
EndChar

StartChar: M
Encoding: 77 77 48
Width: 850
GlyphClass: 2
Flags: W
AnchorPoint: "Anchor-2" 830 714 basechar 0
AnchorPoint: "Anchor-1" 425 714 basechar 0
AnchorPoint: "Anchor-0" 425 0 basechar 0
LayerCount: 2
Fore
SplineSet
19 0 m 1,0,-1
 19 58 l 1,1,-1
 48 58 l 2,2,3
 72 58 72 58 86 70.5 c 128,-1,4
 100 83 100 83 100 115 c 2,5,-1
 100 599 l 2,6,7
 100 631 100 631 88 644 c 128,-1,8
 76 657 76 657 62 657 c 2,9,-1
 19 657 l 1,10,-1
 19 714 l 1,11,-1
 312 714 l 1,12,-1
 425 268 l 1,13,-1
 534 714 l 1,14,-1
 832 714 l 1,15,-1
 832 657 l 1,16,-1
 785 657 l 2,17,18
 774 657 774 657 763 644.5 c 128,-1,19
 752 632 752 632 752 605 c 2,20,-1
 752 109 l 2,21,22
 752 58 752 58 795 58 c 2,23,-1
 832 58 l 1,24,-1
 832 0 l 1,25,-1
 514 0 l 1,26,-1
 514 58 l 1,27,-1
 528 58 l 2,28,29
 556 58 556 58 567 71.5 c 128,-1,30
 578 85 578 85 578 121 c 2,31,-1
 578 605 l 1,32,-1
 426 0 l 1,33,-1
 336 0 l 1,34,-1
 175 606 l 1,35,-1
 175 120 l 2,36,37
 175 78 175 78 192.5 68 c 128,-1,38
 210 58 210 58 242 58 c 2,39,-1
 249 58 l 1,40,-1
 249 0 l 1,41,-1
 19 0 l 1,0,-1
EndSplineSet
Substitution2: "'c2sc' Capitals to Small Capitals lookup 37 subtable" m.sc
Substitution2: "'aalt' Access All Alternates lookup 0 subtable" m.sc
EndChar

StartChar: N
Encoding: 78 78 49
Width: 712
GlyphClass: 2
Flags: W
AnchorPoint: "Anchor-2" 692 714 basechar 0
AnchorPoint: "Anchor-1" 356 714 basechar 0
AnchorPoint: "Anchor-0" 356 0 basechar 0
LayerCount: 2
Fore
SplineSet
19 0 m 1,0,-1
 19 58 l 1,1,-1
 48 58 l 2,2,3
 72 58 72 58 86 68 c 128,-1,4
 100 78 100 78 100 120 c 2,5,-1
 100 598 l 2,6,7
 100 637 100 637 86.5 647 c 128,-1,8
 73 657 73 657 56 657 c 2,9,-1
 19 657 l 1,10,-1
 19 714 l 1,11,-1
 260 714 l 1,12,-1
 549 236 l 1,13,-1
 549 598 l 2,14,15
 549 632 549 632 536.5 644.5 c 128,-1,16
 524 657 524 657 507 657 c 2,17,-1
 468 657 l 1,18,-1
 468 714 l 1,19,-1
 705 714 l 1,20,-1
 705 657 l 1,21,-1
 668 657 l 2,22,23
 648 657 648 657 636 643 c 128,-1,24
 624 629 624 629 624 594 c 2,25,-1
 624 0 l 1,26,-1
 508 0 l 1,27,-1
 175 544 l 1,28,-1
 175 120 l 2,29,30
 175 78 175 78 184.5 68 c 128,-1,31
 194 58 194 58 217 58 c 2,32,-1
 255 58 l 1,33,-1
 255 0 l 1,34,-1
 19 0 l 1,0,-1
EndSplineSet
Substitution2: "'c2sc' Capitals to Small Capitals lookup 37 subtable" n.sc
Substitution2: "'aalt' Access All Alternates lookup 0 subtable" n.sc
EndChar

StartChar: O
Encoding: 79 79 50
Width: 725
GlyphClass: 2
Flags: W
AnchorPoint: "Anchor-3" 362 357 basechar 0
AnchorPoint: "Anchor-2" 705 714 basechar 0
AnchorPoint: "Anchor-1" 362 714 basechar 0
AnchorPoint: "Anchor-0" 362 0 basechar 0
LayerCount: 2
Fore
SplineSet
363 -10 m 0,0,1
 257 -10 257 -10 187 36 c 128,-1,2
 117 82 117 82 82.5 165 c 128,-1,3
 48 248 48 248 48 359 c 256,4,5
 48 470 48 470 82.5 552 c 128,-1,6
 117 634 117 634 187.5 679.5 c 128,-1,7
 258 725 258 725 364 725 c 0,8,9
 465 725 465 725 534.5 679.5 c 128,-1,10
 604 634 604 634 640.5 551.5 c 128,-1,11
 677 469 677 469 677 358 c 256,12,13
 677 247 677 247 640.5 164.5 c 128,-1,14
 604 82 604 82 534 36 c 128,-1,15
 464 -10 464 -10 363 -10 c 0,0,1
363 60 m 0,16,17
 434 60 434 60 463 138.5 c 128,-1,18
 492 217 492 217 492 358 c 256,19,20
 492 499 492 499 463 577.5 c 128,-1,21
 434 656 434 656 364 656 c 0,22,23
 293 656 293 656 263.5 577.5 c 128,-1,24
 234 499 234 499 234 358 c 256,25,26
 234 217 234 217 263.5 138.5 c 128,-1,27
 293 60 293 60 363 60 c 0,16,17
EndSplineSet
Substitution2: "'c2sc' Capitals to Small Capitals lookup 37 subtable" o.sc
Substitution2: "Single Substitution lookup 32 subtable" ordmasculine
AlternateSubs2: "'aalt' Access All Alternates lookup 1 subtable" ordmasculine o.sc
EndChar

StartChar: P
Encoding: 80 80 51
Width: 586
GlyphClass: 2
Flags: W
AnchorPoint: "Anchor-2" 613 714 basechar 0
AnchorPoint: "Anchor-1" 294 714 basechar 0
AnchorPoint: "Anchor-0" 189 0 basechar 0
LayerCount: 2
Fore
SplineSet
19 0 m 1,0,-1
 19 58 l 1,1,-1
 54 58 l 2,2,3
 72 58 72 58 86 68 c 128,-1,4
 100 78 100 78 100 120 c 2,5,-1
 100 598 l 2,6,7
 100 637 100 637 86.5 647 c 128,-1,8
 73 657 73 657 58 657 c 2,9,-1
 19 657 l 1,10,-1
 19 714 l 1,11,-1
 316 714 l 2,12,13
 454 714 454 714 519 660.5 c 128,-1,14
 584 607 584 607 584 501 c 0,15,16
 584 435 584 435 555.5 383 c 128,-1,17
 527 331 527 331 464 300.5 c 128,-1,18
 401 270 401 270 297 270 c 2,19,-1
 277 270 l 1,20,-1
 277 115 l 2,21,22
 277 76 277 76 289 67 c 128,-1,23
 301 58 301 58 318 58 c 2,24,-1
 377 58 l 1,25,-1
 377 0 l 1,26,-1
 19 0 l 1,0,-1
276 333 m 1,27,-1
 288 333 l 2,28,29
 346 333 346 333 373 371 c 128,-1,30
 400 409 400 409 400 497 c 0,31,32
 400 576 400 576 375.5 613.5 c 128,-1,33
 351 651 351 651 301 651 c 2,34,-1
 276 651 l 1,35,-1
 276 333 l 1,27,-1
EndSplineSet
Substitution2: "'c2sc' Capitals to Small Capitals lookup 37 subtable" p.sc
Substitution2: "'aalt' Access All Alternates lookup 0 subtable" p.sc
EndChar

StartChar: Q
Encoding: 81 81 52
Width: 725
GlyphClass: 2
Flags: W
AnchorPoint: "Anchor-2" 705 714 basechar 0
AnchorPoint: "Anchor-1" 362 714 basechar 0
AnchorPoint: "Anchor-0" 362 -238 basechar 0
LayerCount: 2
Fore
SplineSet
521 -238 m 2,0,1
 464 -238 464 -238 410.5 -214 c 128,-1,2
 357 -190 357 -190 321.5 -138.5 c 128,-1,3
 286 -87 286 -87 280 -2 c 1,4,5
 163 22 163 22 105.5 118 c 128,-1,6
 48 214 48 214 48 359 c 0,7,8
 48 470 48 470 82.5 552 c 128,-1,9
 117 634 117 634 187.5 679.5 c 128,-1,10
 258 725 258 725 364 725 c 0,11,12
 465 725 465 725 534.5 679.5 c 128,-1,13
 604 634 604 634 640.5 551.5 c 128,-1,14
 677 469 677 469 677 358 c 0,15,16
 677 220 677 220 622.5 126.5 c 128,-1,17
 568 33 568 33 465 2 c 1,18,19
 470 -74 470 -74 490.5 -112 c 128,-1,20
 511 -150 511 -150 538.5 -162.5 c 128,-1,21
 566 -175 566 -175 590 -175 c 2,22,-1
 604 -175 l 1,23,-1
 604 -238 l 1,24,-1
 521 -238 l 2,0,1
363 60 m 0,25,26
 434 60 434 60 463 138.5 c 128,-1,27
 492 217 492 217 492 358 c 256,28,29
 492 499 492 499 463 577.5 c 128,-1,30
 434 656 434 656 364 656 c 0,31,32
 293 656 293 656 263.5 577.5 c 128,-1,33
 234 499 234 499 234 358 c 256,34,35
 234 217 234 217 263.5 138.5 c 128,-1,36
 293 60 293 60 363 60 c 0,25,26
EndSplineSet
Substitution2: "'c2sc' Capitals to Small Capitals lookup 37 subtable" q.sc
Substitution2: "'aalt' Access All Alternates lookup 0 subtable" q.sc
EndChar

StartChar: R
Encoding: 82 82 53
Width: 666
GlyphClass: 2
Flags: W
AnchorPoint: "Anchor-2" 646 714 basechar 0
AnchorPoint: "Anchor-1" 333 714 basechar 0
AnchorPoint: "Anchor-0" 333 0 basechar 0
LayerCount: 2
Fore
SplineSet
19 0 m 1,0,-1
 19 58 l 1,1,-1
 53 58 l 2,2,3
 69 58 69 58 84.5 67 c 128,-1,4
 100 76 100 76 100 115 c 2,5,-1
 100 598 l 2,6,7
 100 624 100 624 91.5 636.5 c 128,-1,8
 83 649 83 649 72 653 c 128,-1,9
 61 657 61 657 53 657 c 2,10,-1
 19 657 l 1,11,-1
 19 714 l 1,12,-1
 338 714 l 2,13,14
 437 714 437 714 495 691 c 128,-1,15
 553 668 553 668 578.5 625.5 c 128,-1,16
 604 583 604 583 604 525 c 0,17,18
 604 468 604 468 587 431 c 128,-1,19
 570 394 570 394 541.5 372.5 c 128,-1,20
 513 351 513 351 479 340 c 1,21,-1
 580 143 l 2,22,23
 603 98 603 98 620.5 78 c 128,-1,24
 638 58 638 58 659 58 c 2,25,-1
 666 58 l 1,26,-1
 666 0 l 1,27,-1
 624 0 l 2,28,29
 547 0 547 0 493.5 17 c 128,-1,30
 440 34 440 34 416 90 c 2,31,-1
 323 307 l 1,32,-1
 277 307 l 1,33,-1
 277 115 l 2,34,35
 277 76 277 76 289 67 c 128,-1,36
 301 58 301 58 320 58 c 2,37,-1
 341 58 l 1,38,-1
 341 0 l 1,39,-1
 19 0 l 1,0,-1
277 370 m 1,40,-1
 317 370 l 2,41,42
 368 370 368 370 391.5 406.5 c 128,-1,43
 415 443 415 443 415 514 c 0,44,45
 415 586 415 586 389.5 618.5 c 128,-1,46
 364 651 364 651 315 651 c 2,47,-1
 277 651 l 1,48,-1
 277 370 l 1,40,-1
EndSplineSet
Substitution2: "'c2sc' Capitals to Small Capitals lookup 37 subtable" r.sc
Substitution2: "'aalt' Access All Alternates lookup 0 subtable" r.sc
EndChar

StartChar: S
Encoding: 83 83 54
Width: 534
GlyphClass: 2
Flags: W
AnchorPoint: "Anchor-2" 514 714 basechar 0
AnchorPoint: "Anchor-1" 267 714 basechar 0
AnchorPoint: "Anchor-0" 267 0 basechar 0
LayerCount: 2
Fore
SplineSet
251 -10 m 0,0,1
 180 -10 180 -10 134.5 3.5 c 128,-1,2
 89 17 89 17 64.5 38 c 128,-1,3
 40 59 40 59 30.5 83 c 128,-1,4
 21 107 21 107 21 128 c 0,5,6
 21 169 21 169 38 191.5 c 128,-1,7
 55 214 55 214 82 223.5 c 128,-1,8
 109 233 109 233 139 233 c 1,9,10
 139 168 139 168 159 129 c 128,-1,11
 179 90 179 90 209.5 72 c 128,-1,12
 240 54 240 54 271 54 c 0,13,14
 317 54 317 54 342 84.5 c 128,-1,15
 367 115 367 115 367 154 c 0,16,17
 367 205 367 205 325 235.5 c 128,-1,18
 283 266 283 266 211 299 c 0,19,20
 144 330 144 330 107 364 c 128,-1,21
 70 398 70 398 55 437.5 c 128,-1,22
 40 477 40 477 40 524 c 0,23,24
 40 586 40 586 71.5 630.5 c 128,-1,25
 103 675 103 675 157 699.5 c 128,-1,26
 211 724 211 724 279 724 c 0,27,28
 350 724 350 724 395.5 705.5 c 128,-1,29
 441 687 441 687 462 658.5 c 128,-1,30
 483 630 483 630 483 600 c 0,31,32
 483 564 483 564 454.5 540 c 128,-1,33
 426 516 426 516 355 516 c 1,34,35
 355 550 355 550 343.5 583 c 128,-1,36
 332 616 332 616 310.5 637.5 c 128,-1,37
 289 659 289 659 257 659 c 256,38,39
 225 659 225 659 202.5 638.5 c 128,-1,40
 180 618 180 618 180 576 c 0,41,42
 180 553 180 553 191.5 531 c 128,-1,43
 203 509 203 509 236.5 485 c 128,-1,44
 270 461 270 461 336 432 c 0,45,46
 403 402 403 402 440.5 368.5 c 128,-1,47
 478 335 478 335 493.5 295.5 c 128,-1,48
 509 256 509 256 509 208 c 0,49,50
 509 143 509 143 477 94 c 128,-1,51
 445 45 445 45 387.5 17.5 c 128,-1,52
 330 -10 330 -10 251 -10 c 0,0,1
EndSplineSet
Substitution2: "'c2sc' Capitals to Small Capitals lookup 37 subtable" s.sc
Substitution2: "'aalt' Access All Alternates lookup 0 subtable" s.sc
EndChar

StartChar: T
Encoding: 84 84 55
Width: 603
GlyphClass: 2
Flags: W
AnchorPoint: "Anchor-3" 302 357 basechar 0
AnchorPoint: "Anchor-2" 583 714 basechar 0
AnchorPoint: "Anchor-1" 302 714 basechar 0
AnchorPoint: "Anchor-0" 302 0 basechar 0
LayerCount: 2
Fore
SplineSet
130 0 m 1,0,-1
 130 58 l 1,1,-1
 158 58 l 2,2,3
 183 58 183 58 198 69 c 128,-1,4
 213 80 213 80 213 122 c 2,5,-1
 213 649 l 1,6,-1
 153 649 l 2,7,8
 113 649 113 649 98 632 c 128,-1,9
 83 615 83 615 80 582 c 2,10,-1
 71 512 l 1,11,-1
 2 512 l 1,12,-1
 7 714 l 1,13,-1
 597 714 l 1,14,-1
 601 512 l 1,15,-1
 532 512 l 1,16,-1
 525 582 l 2,17,18
 521 615 521 615 506 632 c 128,-1,19
 491 649 491 649 452 649 c 2,20,-1
 392 649 l 1,21,-1
 392 120 l 2,22,23
 392 78 392 78 407 68 c 128,-1,24
 422 58 422 58 446 58 c 2,25,-1
 475 58 l 1,26,-1
 475 0 l 1,27,-1
 130 0 l 1,0,-1
EndSplineSet
Substitution2: "'c2sc' Capitals to Small Capitals lookup 37 subtable" t.sc
Substitution2: "'aalt' Access All Alternates lookup 0 subtable" t.sc
EndChar

StartChar: U
Encoding: 85 85 56
Width: 680
GlyphClass: 2
Flags: W
AnchorPoint: "Anchor-2" 673 714 basechar 0
AnchorPoint: "Anchor-1" 355 714 basechar 0
AnchorPoint: "Anchor-0" 340 0 basechar 0
LayerCount: 2
Fore
SplineSet
350 -10 m 0,0,1
 276 -10 276 -10 219 13 c 128,-1,2
 162 36 162 36 129.5 86 c 128,-1,3
 97 136 97 136 97 218 c 2,4,-1
 97 598 l 2,5,6
 97 637 97 637 80.5 647 c 128,-1,7
 64 657 64 657 41 657 c 2,8,-1
 15 657 l 1,9,-1
 15 714 l 1,10,-1
 356 714 l 1,11,-1
 356 657 l 1,12,-1
 330 657 l 2,13,14
 307 657 307 657 290.5 646.5 c 128,-1,15
 274 636 274 636 274 594 c 2,16,-1
 274 210 l 2,17,18
 274 127 274 127 305.5 96.5 c 128,-1,19
 337 66 337 66 394 66 c 0,20,21
 440 66 440 66 474 101.5 c 128,-1,22
 508 137 508 137 508 217 c 2,23,-1
 508 598 l 2,24,25
 508 637 508 637 492 647 c 128,-1,26
 476 657 476 657 453 657 c 2,27,-1
 427 657 l 1,28,-1
 427 714 l 1,29,-1
 666 714 l 1,30,-1
 666 657 l 1,31,-1
 639 657 l 2,32,33
 615 657 615 657 599 646.5 c 128,-1,34
 583 636 583 636 583 594 c 2,35,-1
 583 215 l 2,36,37
 583 148 583 148 559.5 97.5 c 128,-1,38
 536 47 536 47 484.5 18.5 c 128,-1,39
 433 -10 433 -10 350 -10 c 0,0,1
EndSplineSet
Substitution2: "'c2sc' Capitals to Small Capitals lookup 37 subtable" u.sc
Substitution2: "'aalt' Access All Alternates lookup 0 subtable" u.sc
EndChar

StartChar: V
Encoding: 86 86 57
Width: 632
GlyphClass: 2
Flags: W
AnchorPoint: "Anchor-2" 612 714 basechar 0
AnchorPoint: "Anchor-1" 316 714 basechar 0
AnchorPoint: "Anchor-0" 316 0 basechar 0
LayerCount: 2
Fore
SplineSet
255 0 m 1,0,-1
 76 611 l 2,1,2
 68 638 68 638 54 647.5 c 128,-1,3
 40 657 40 657 27 657 c 2,4,-1
 0 657 l 1,5,-1
 0 714 l 1,6,-1
 319 714 l 1,7,-1
 319 657 l 1,8,-1
 277 657 l 2,9,10
 251 657 251 657 251 632 c 0,11,12
 251 621 251 621 255 606.5 c 128,-1,13
 259 592 259 592 262 579 c 2,14,-1
 340 283 l 2,15,16
 344 266 344 266 350.5 233.5 c 128,-1,17
 357 201 357 201 359 178 c 1,18,19
 363 200 363 200 370 228 c 128,-1,20
 377 256 377 256 383 279 c 2,21,-1
 463 570 l 2,22,23
 469 590 469 590 473.5 606.5 c 128,-1,24
 478 623 478 623 478 634 c 0,25,26
 478 643 478 643 472.5 650 c 128,-1,27
 467 657 467 657 455 657 c 2,28,-1
 404 657 l 1,29,-1
 404 714 l 1,30,-1
 632 714 l 1,31,-1
 632 657 l 1,32,-1
 601 657 l 2,33,34
 581 657 581 657 570 644 c 128,-1,35
 559 631 559 631 546 586 c 2,36,-1
 373 0 l 1,37,-1
 255 0 l 1,0,-1
EndSplineSet
Substitution2: "'c2sc' Capitals to Small Capitals lookup 37 subtable" v.sc
Substitution2: "'aalt' Access All Alternates lookup 0 subtable" v.sc
EndChar

StartChar: W
Encoding: 87 87 58
Width: 956
GlyphClass: 2
Flags: W
AnchorPoint: "Anchor-2" 936 714 basechar 0
AnchorPoint: "Anchor-1" 478 714 basechar 0
AnchorPoint: "Anchor-0" 478 0 basechar 0
LayerCount: 2
Fore
SplineSet
221 0 m 1,0,-1
 69 604 l 2,1,2
 61 635 61 635 46.5 646 c 128,-1,3
 32 657 32 657 6 657 c 2,4,-1
 -5 657 l 1,5,-1
 -5 714 l 1,6,-1
 328 714 l 1,7,-1
 328 657 l 1,8,-1
 307 657 l 2,9,10
 255 657 255 657 255 611 c 0,11,12
 255 602 255 602 258.5 582 c 128,-1,13
 262 562 262 562 265 547 c 2,14,-1
 311 340 l 2,15,16
 316 318 316 318 321.5 289.5 c 128,-1,17
 327 261 327 261 332 233.5 c 128,-1,18
 337 206 337 206 340 186 c 1,19,20
 345 216 345 216 353.5 247 c 128,-1,21
 362 278 362 278 373 317 c 2,22,-1
 483 707 l 1,23,-1
 579 707 l 1,24,-1
 674 346 l 2,25,26
 686 298 686 298 695.5 257 c 128,-1,27
 705 216 705 216 711 183 c 1,28,29
 716 216 716 216 725.5 261 c 128,-1,30
 735 306 735 306 744 348 c 2,31,-1
 786 548 l 2,32,33
 789 563 789 563 792 582.5 c 128,-1,34
 795 602 795 602 795 613 c 0,35,36
 795 637 795 637 782.5 647 c 128,-1,37
 770 657 770 657 741 657 c 2,38,-1
 720 657 l 1,39,-1
 720 714 l 1,40,-1
 962 714 l 1,41,-1
 962 657 l 1,42,-1
 945 657 l 2,43,44
 920 657 920 657 905 642.5 c 128,-1,45
 890 628 890 628 879 579 c 2,46,-1
 746 0 l 1,47,-1
 601 0 l 1,48,-1
 488 450 l 1,49,-1
 365 0 l 1,50,-1
 221 0 l 1,0,-1
EndSplineSet
Substitution2: "'c2sc' Capitals to Small Capitals lookup 37 subtable" w.sc
Substitution2: "'aalt' Access All Alternates lookup 0 subtable" w.sc
EndChar

StartChar: X
Encoding: 88 88 59
Width: 694
GlyphClass: 2
Flags: W
AnchorPoint: "Anchor-2" 674 714 basechar 0
AnchorPoint: "Anchor-1" 348 714 basechar 0
AnchorPoint: "Anchor-0" 348 0 basechar 0
LayerCount: 2
Fore
SplineSet
10 0 m 1,0,-1
 10 58 l 1,1,-1
 15 58 l 2,2,3
 47 58 47 58 67 77.5 c 128,-1,4
 87 97 87 97 107 127 c 2,5,-1
 267 352 l 1,6,-1
 121 604 l 2,7,8
 107 629 107 629 93.5 643 c 128,-1,9
 80 657 80 657 45 657 c 2,10,-1
 33 657 l 1,11,-1
 33 714 l 1,12,-1
 365 714 l 1,13,-1
 365 657 l 1,14,-1
 360 657 l 2,15,16
 329 657 329 657 319 647 c 128,-1,17
 309 637 309 637 309 625 c 0,18,19
 309 615 309 615 317 599 c 128,-1,20
 325 583 325 583 334 569 c 2,21,-1
 403 452 l 1,22,-1
 474 567 l 2,23,24
 481 579 481 579 490 596.5 c 128,-1,25
 499 614 499 614 499 628 c 0,26,27
 499 646 499 646 485 651.5 c 128,-1,28
 471 657 471 657 450 657 c 2,29,-1
 446 657 l 1,30,-1
 446 714 l 1,31,-1
 662 714 l 1,32,-1
 662 657 l 1,33,-1
 654 657 l 2,34,35
 628 657 628 657 610.5 641 c 128,-1,36
 593 625 593 625 567 585 c 2,37,-1
 439 390 l 1,38,-1
 602 111 l 2,39,40
 619 81 619 81 637 69.5 c 128,-1,41
 655 58 655 58 672 58 c 2,42,-1
 683 58 l 1,43,-1
 683 0 l 1,44,-1
 353 0 l 1,45,-1
 353 58 l 1,46,-1
 357 58 l 2,47,48
 410 58 410 58 410 91 c 0,49,50
 410 102 410 102 405 114.5 c 128,-1,51
 400 127 400 127 381 160 c 2,52,-1
 304 291 l 1,53,-1
 211 154 l 2,54,55
 202 140 202 140 195 124.5 c 128,-1,56
 188 109 188 109 188 93 c 0,57,58
 188 76 188 76 198.5 67 c 128,-1,59
 209 58 209 58 238 58 c 2,60,-1
 242 58 l 1,61,-1
 242 0 l 1,62,-1
 10 0 l 1,0,-1
EndSplineSet
Substitution2: "'c2sc' Capitals to Small Capitals lookup 37 subtable" x.sc
Substitution2: "'aalt' Access All Alternates lookup 0 subtable" x.sc
EndChar

StartChar: Y
Encoding: 89 89 60
Width: 657
GlyphClass: 2
Flags: W
AnchorPoint: "Anchor-2" 637 714 basechar 0
AnchorPoint: "Anchor-1" 329 714 basechar 0
AnchorPoint: "Anchor-0" 329 0 basechar 0
LayerCount: 2
Fore
SplineSet
148 0 m 1,0,-1
 148 58 l 1,1,-1
 180 58 l 2,2,3
 208 58 208 58 224.5 70.5 c 128,-1,4
 241 83 241 83 241 125 c 2,5,-1
 241 243 l 1,6,-1
 78 604 l 2,7,8
 64 634 64 634 53.5 645.5 c 128,-1,9
 43 657 43 657 15 657 c 2,10,-1
 3 657 l 1,11,-1
 3 714 l 1,12,-1
 339 714 l 1,13,-1
 339 657 l 1,14,-1
 336 657 l 2,15,16
 307 657 307 657 289.5 643.5 c 128,-1,17
 272 630 272 630 272 606 c 0,18,19
 272 594 272 594 275 579.5 c 128,-1,20
 278 565 278 565 285 550 c 2,21,-1
 350 406 l 2,22,23
 362 379 362 379 369 359 c 128,-1,24
 376 339 376 339 383 315 c 1,25,26
 392 341 392 341 404 370.5 c 128,-1,27
 416 400 416 400 429 433 c 2,28,-1
 476 546 l 2,29,30
 485 570 485 570 488 585 c 128,-1,31
 491 600 491 600 491 606 c 0,32,33
 491 634 491 634 476 645.5 c 128,-1,34
 461 657 461 657 429 657 c 2,35,-1
 412 657 l 1,36,-1
 412 714 l 1,37,-1
 656 714 l 1,38,-1
 656 657 l 1,39,-1
 645 657 l 2,40,41
 620 657 620 657 607 641.5 c 128,-1,42
 594 626 594 626 572 580 c 2,43,-1
 420 242 l 1,44,-1
 420 124 l 2,45,46
 420 82 420 82 435 70 c 128,-1,47
 450 58 450 58 470 58 c 2,48,-1
 513 58 l 1,49,-1
 513 0 l 1,50,-1
 148 0 l 1,0,-1
EndSplineSet
Substitution2: "'c2sc' Capitals to Small Capitals lookup 37 subtable" y.sc
Substitution2: "'aalt' Access All Alternates lookup 0 subtable" y.sc
EndChar

StartChar: Z
Encoding: 90 90 61
Width: 637
GlyphClass: 2
Flags: W
AnchorPoint: "Anchor-2" 617 714 basechar 0
AnchorPoint: "Anchor-1" 319 714 basechar 0
AnchorPoint: "Anchor-0" 319 0 basechar 0
LayerCount: 2
Fore
SplineSet
40 0 m 1,0,-1
 40 54 l 1,1,-1
 372 649 l 1,2,-1
 212 649 l 2,3,4
 167 649 167 649 154.5 623.5 c 128,-1,5
 142 598 142 598 139 554 c 2,6,-1
 135 496 l 1,7,-1
 57 496 l 1,8,-1
 62 714 l 1,9,-1
 573 714 l 1,10,-1
 573 660 l 1,11,-1
 241 66 l 1,12,-1
 408 66 l 2,13,14
 451 66 451 66 473.5 81.5 c 128,-1,15
 496 97 496 97 504.5 122 c 128,-1,16
 513 147 513 147 515 173 c 2,17,-1
 519 219 l 1,18,-1
 597 219 l 1,19,-1
 592 0 l 1,20,-1
 40 0 l 1,0,-1
EndSplineSet
Substitution2: "'c2sc' Capitals to Small Capitals lookup 37 subtable" z.sc
Substitution2: "'aalt' Access All Alternates lookup 0 subtable" z.sc
EndChar

StartChar: bracketleft
Encoding: 91 91 62
Width: 402
Flags: W
LayerCount: 2
Fore
SplineSet
88 -128 m 1,0,-1
 88 760 l 1,1,-1
 369 760 l 1,2,-1
 369 703 l 1,3,-1
 331 703 l 2,4,5
 301 703 301 703 279.5 690.5 c 128,-1,6
 258 678 258 678 258 631 c 2,7,-1
 258 2 l 2,8,9
 258 -46 258 -46 279.5 -58 c 128,-1,10
 301 -70 301 -70 331 -70 c 2,11,-1
 369 -70 l 1,12,-1
 369 -128 l 1,13,-1
 88 -128 l 1,0,-1
EndSplineSet
Substitution2: "'smcp' Lowercase to Small Capitals lookup 38 subtable" bracketleft.sc
Substitution2: "'c2sc' Capitals to Small Capitals lookup 37 subtable" bracketleft.sc
Substitution2: "'aalt' Access All Alternates lookup 0 subtable" bracketleft.sc
EndChar

StartChar: backslash
Encoding: 92 92 63
Width: 254
Flags: W
LayerCount: 2
Fore
SplineSet
182 -121 m 1,0,-1
 0 760 l 1,1,-1
 72 760 l 1,2,-1
 254 -121 l 1,3,-1
 182 -121 l 1,0,-1
EndSplineSet
EndChar

StartChar: bracketright
Encoding: 93 93 64
Width: 402
Flags: W
LayerCount: 2
Fore
SplineSet
33 -128 m 1,0,-1
 33 -70 l 1,1,-1
 71 -70 l 2,2,3
 101 -70 101 -70 122 -58 c 128,-1,4
 143 -46 143 -46 143 2 c 2,5,-1
 143 631 l 2,6,7
 143 678 143 678 122 690.5 c 128,-1,8
 101 703 101 703 71 703 c 2,9,-1
 33 703 l 1,10,-1
 33 760 l 1,11,-1
 313 760 l 1,12,-1
 313 -128 l 1,13,-1
 33 -128 l 1,0,-1
EndSplineSet
Substitution2: "'smcp' Lowercase to Small Capitals lookup 38 subtable" bracketright.sc
Substitution2: "'c2sc' Capitals to Small Capitals lookup 37 subtable" bracketright.sc
Substitution2: "'aalt' Access All Alternates lookup 0 subtable" bracketright.sc
EndChar

StartChar: asciicircum
Encoding: 94 94 65
Width: 468
Flags: W
LayerCount: 2
Fore
SplineSet
22 254 m 1,0,-1
 211 714 l 1,1,-1
 255 714 l 1,2,-1
 445 254 l 1,3,-1
 369 254 l 1,4,-1
 233 598 l 1,5,-1
 97 254 l 1,6,-1
 22 254 l 1,0,-1
EndSplineSet
EndChar

StartChar: underscore
Encoding: 95 95 66
Width: 405
Flags: W
LayerCount: 2
Fore
SplineSet
-5 -142 m 1,0,-1
 -5 -83 l 1,1,-1
 409 -83 l 1,2,-1
 409 -142 l 1,3,-1
 -5 -142 l 1,0,-1
EndSplineSet
EndChar

StartChar: grave
Encoding: 96 96 67
Width: 344
Flags: W
LayerCount: 2
Fore
SplineSet
224 606 m 1,0,1
 200 620 200 620 172 639.5 c 128,-1,2
 144 659 144 659 117 681 c 128,-1,3
 90 703 90 703 69 723 c 128,-1,4
 48 743 48 743 40 756 c 1,5,-1
 40 766 l 1,6,-1
 212 766 l 1,7,8
 221 744 221 744 238 717 c 128,-1,9
 255 690 255 690 273 664 c 128,-1,10
 291 638 291 638 304 619 c 1,11,-1
 304 606 l 1,12,-1
 224 606 l 1,0,1
EndSplineSet
EndChar

StartChar: a
Encoding: 97 97 68
Width: 554
GlyphClass: 2
Flags: W
AnchorPoint: "Anchor-2" 534 536 basechar 0
AnchorPoint: "Anchor-1" 277 536 basechar 0
AnchorPoint: "Anchor-0" 277 0 basechar 0
LayerCount: 2
Fore
SplineSet
176 -10 m 0,0,1
 119 -10 119 -10 77.5 30 c 128,-1,2
 36 70 36 70 36 154 c 0,3,4
 36 236 36 236 84.5 275 c 128,-1,5
 133 314 133 314 231 318 c 2,6,-1
 303 321 l 1,7,-1
 303 374 l 2,8,9
 303 485 303 485 257 485 c 0,10,11
 237 485 237 485 224.5 457.5 c 128,-1,12
 212 430 212 430 212 377 c 1,13,14
 141 377 141 377 107 393 c 128,-1,15
 73 409 73 409 73 446 c 0,16,17
 73 482 73 482 100.5 505.5 c 128,-1,18
 128 529 128 529 173 539.5 c 128,-1,19
 218 550 218 550 272 550 c 0,20,21
 374 550 374 550 425 512 c 128,-1,22
 476 474 476 474 476 381 c 2,23,-1
 476 128 l 2,24,25
 476 87 476 87 487 72.5 c 128,-1,26
 498 58 498 58 528 58 c 2,27,-1
 532 58 l 1,28,-1
 532 0 l 1,29,-1
 334 0 l 1,30,-1
 312 62 l 1,31,-1
 303 62 l 1,32,33
 283 35 283 35 266 19.5 c 128,-1,34
 249 4 249 4 228 -3 c 128,-1,35
 207 -10 207 -10 176 -10 c 0,0,1
246 66 m 0,36,37
 272 66 272 66 288 100.5 c 128,-1,38
 304 135 304 135 304 191 c 2,39,-1
 304 264 l 1,40,-1
 277 261 l 2,41,42
 240 257 240 257 226 230 c 128,-1,43
 212 203 212 203 212 151 c 0,44,45
 212 66 212 66 246 66 c 0,36,37
EndSplineSet
Substitution2: "'smcp' Lowercase to Small Capitals lookup 38 subtable" a.sc
Substitution2: "Single Substitution lookup 32 subtable" ordfeminine
AlternateSubs2: "'aalt' Access All Alternates lookup 1 subtable" ordfeminine a.sc
EndChar

StartChar: b
Encoding: 98 98 69
Width: 597
GlyphClass: 2
Flags: W
AnchorPoint: "Anchor-2" 580 760 basechar 0
AnchorPoint: "Anchor-1" 299 760 basechar 0
AnchorPoint: "Anchor-0" 299 0 basechar 0
LayerCount: 2
Fore
SplineSet
378 -10 m 0,0,1
 327 -10 327 -10 294 14.5 c 128,-1,2
 261 39 261 39 242 78 c 1,3,-1
 234 78 l 1,4,-1
 201 0 l 1,5,-1
 14 0 l 1,6,-1
 14 58 l 1,7,-1
 19 58 l 2,8,9
 34 58 34 58 48.5 62.5 c 128,-1,10
 63 67 63 67 73 82 c 128,-1,11
 83 97 83 97 83 127 c 2,12,-1
 83 637 l 2,13,14
 83 678 83 678 64 690.5 c 128,-1,15
 45 703 45 703 17 703 c 2,16,-1
 14 703 l 1,17,-1
 14 760 l 1,18,-1
 256 760 l 1,19,-1
 256 595 l 2,20,21
 256 567 256 567 253.5 533.5 c 128,-1,22
 251 500 251 500 248 477 c 1,23,-1
 253 477 l 1,24,25
 272 507 272 507 303.5 527.5 c 128,-1,26
 335 548 335 548 385 548 c 0,27,28
 470 548 470 548 515 481.5 c 128,-1,29
 560 415 560 415 560 270 c 256,30,31
 560 125 560 125 513.5 57.5 c 128,-1,32
 467 -10 467 -10 378 -10 c 0,0,1
324 68 m 0,33,34
 357 68 357 68 372 120.5 c 128,-1,35
 387 173 387 173 387 272 c 0,36,37
 387 373 387 373 372 422.5 c 128,-1,38
 357 472 357 472 323 472 c 0,39,40
 283 472 283 472 269 422 c 128,-1,41
 255 372 255 372 255 271 c 0,42,43
 255 173 255 173 269.5 120.5 c 128,-1,44
 284 68 284 68 324 68 c 0,33,34
EndSplineSet
Substitution2: "'smcp' Lowercase to Small Capitals lookup 38 subtable" b.sc
Substitution2: "'aalt' Access All Alternates lookup 0 subtable" b.sc
EndChar

StartChar: c
Encoding: 99 99 70
Width: 489
GlyphClass: 2
Flags: W
AnchorPoint: "Anchor-2" 469 536 basechar 0
AnchorPoint: "Anchor-1" 265 536 basechar 0
AnchorPoint: "Anchor-0" 265 0 basechar 0
LayerCount: 2
Fore
SplineSet
269 -10 m 0,0,1
 199 -10 199 -10 146.5 15.5 c 128,-1,2
 94 41 94 41 65 101.5 c 128,-1,3
 36 162 36 162 36 266 c 0,4,5
 36 375 36 375 67 437 c 128,-1,6
 98 499 98 499 150 524.5 c 128,-1,7
 202 550 202 550 267 550 c 0,8,9
 339 550 339 550 380.5 535 c 128,-1,10
 422 520 422 520 440 495.5 c 128,-1,11
 458 471 458 471 458 444 c 0,12,13
 458 423 458 423 448 401.5 c 128,-1,14
 438 380 438 380 408 365 c 128,-1,15
 378 350 378 350 317 350 c 1,16,17
 317 386 317 386 313 416.5 c 128,-1,18
 309 447 309 447 299 466 c 128,-1,19
 289 485 289 485 273 485 c 0,20,21
 253 485 253 485 239 465.5 c 128,-1,22
 225 446 225 446 217.5 398.5 c 128,-1,23
 210 351 210 351 210 267 c 0,24,25
 210 168 210 168 231 117.5 c 128,-1,26
 252 67 252 67 302 67 c 0,27,28
 347 67 347 67 379 91.5 c 128,-1,29
 411 116 411 116 427 152 c 1,30,31
 456 136 456 136 456 105 c 0,32,33
 456 80 456 80 439.5 53 c 128,-1,34
 423 26 423 26 382 8 c 128,-1,35
 341 -10 341 -10 269 -10 c 0,0,1
EndSplineSet
Substitution2: "'smcp' Lowercase to Small Capitals lookup 38 subtable" c.sc
Substitution2: "'aalt' Access All Alternates lookup 0 subtable" c.sc
EndChar

StartChar: d
Encoding: 100 100 71
Width: 597
GlyphClass: 2
Flags: W
AnchorPoint: "Anchor-3" 299 268 basechar 0
AnchorPoint: "Anchor-2" 571 760 basechar 0
AnchorPoint: "Anchor-1" 299 760 basechar 0
AnchorPoint: "Anchor-0" 299 0 basechar 0
LayerCount: 2
Fore
SplineSet
215 -10 m 0,0,1
 129 -10 129 -10 81.5 56.5 c 128,-1,2
 34 123 34 123 34 267 c 0,3,4
 34 412 34 412 81 480 c 128,-1,5
 128 548 128 548 212 548 c 0,6,7
 260 548 260 548 289 528 c 128,-1,8
 318 508 318 508 336 478 c 1,9,-1
 341 478 l 1,10,11
 340 500 340 500 339.5 530.5 c 128,-1,12
 339 561 339 561 339 590 c 2,13,-1
 339 642 l 2,14,15
 339 682 339 682 318.5 692.5 c 128,-1,16
 298 703 298 703 269 703 c 2,17,-1
 261 703 l 1,18,-1
 261 760 l 1,19,-1
 512 760 l 1,20,-1
 512 137 l 2,21,22
 512 91 512 91 527.5 74.5 c 128,-1,23
 543 58 543 58 575 58 c 2,24,-1
 583 58 l 1,25,-1
 583 0 l 1,26,-1
 388 0 l 1,27,-1
 357 73 l 1,28,-1
 352 73 l 1,29,30
 332 34 332 34 299 12 c 128,-1,31
 266 -10 266 -10 215 -10 c 0,0,1
269 68 m 0,32,33
 310 68 310 68 324.5 119 c 128,-1,34
 339 170 339 170 339 269 c 0,35,36
 339 367 339 367 324.5 419.5 c 128,-1,37
 310 472 310 472 270 472 c 0,38,39
 236 472 236 472 222 419.5 c 128,-1,40
 208 367 208 367 208 268 c 0,41,42
 208 168 208 168 222 118 c 128,-1,43
 236 68 236 68 269 68 c 0,32,33
EndSplineSet
Substitution2: "'smcp' Lowercase to Small Capitals lookup 38 subtable" d.sc
Substitution2: "'aalt' Access All Alternates lookup 0 subtable" d.sc
EndChar

StartChar: e
Encoding: 101 101 72
Width: 529
GlyphClass: 2
Flags: W
AnchorPoint: "Anchor-2" 509 536 basechar 0
AnchorPoint: "Anchor-1" 275 536 basechar 0
AnchorPoint: "Anchor-0" 275 0 basechar 0
LayerCount: 2
Fore
SplineSet
283 -10 m 0,0,1
 157 -10 157 -10 96.5 62.5 c 128,-1,2
 36 135 36 135 36 265 c 0,3,4
 36 406 36 406 98 478 c 128,-1,5
 160 550 160 550 272 550 c 0,6,7
 376 550 376 550 436 488.5 c 128,-1,8
 496 427 496 427 496 308 c 2,9,-1
 496 256 l 1,10,-1
 210 256 l 1,11,12
 211 159 211 159 240.5 114 c 128,-1,13
 270 69 270 69 327 69 c 0,14,15
 373 69 373 69 399.5 94.5 c 128,-1,16
 426 120 426 120 441 158 c 1,17,18
 457 154 457 154 468 141.5 c 128,-1,19
 479 129 479 129 479 111 c 0,20,21
 479 83 479 83 459.5 55 c 128,-1,22
 440 27 440 27 397 8.5 c 128,-1,23
 354 -10 354 -10 283 -10 c 0,0,1
212 323 m 1,24,-1
 327 323 l 1,25,26
 327 398 327 398 315 440 c 128,-1,27
 303 482 303 482 277 482 c 0,28,29
 249 482 249 482 230.5 441 c 128,-1,30
 212 400 212 400 212 323 c 1,24,-1
EndSplineSet
Substitution2: "'smcp' Lowercase to Small Capitals lookup 38 subtable" e.sc
Substitution2: "'aalt' Access All Alternates lookup 0 subtable" e.sc
EndChar

StartChar: f
Encoding: 102 102 73
Width: 385
GlyphClass: 2
Flags: W
AnchorPoint: "Anchor-2" 458 769 basechar 0
AnchorPoint: "Anchor-1" 257 769 basechar 0
AnchorPoint: "Anchor-0" 193 0 basechar 0
LayerCount: 2
Fore
SplineSet
12 0 m 1,0,-1
 12 58 l 1,1,-1
 37 58 l 2,2,3
 45 58 45 58 58.5 62 c 128,-1,4
 72 66 72 66 82.5 79 c 128,-1,5
 93 92 93 92 93 120 c 2,6,-1
 93 459 l 1,7,-1
 16 459 l 1,8,-1
 16 536 l 1,9,-1
 93 536 l 1,10,-1
 93 567 l 2,11,12
 93 662 93 662 137 715.5 c 128,-1,13
 181 769 181 769 290 769 c 0,14,15
 356 769 356 769 389.5 757.5 c 128,-1,16
 423 746 423 746 434.5 729 c 128,-1,17
 446 712 446 712 446 694 c 0,18,19
 446 675 446 675 437 658 c 128,-1,20
 428 641 428 641 403 630.5 c 128,-1,21
 378 620 378 620 331 620 c 1,22,23
 331 635 331 635 328.5 655.5 c 128,-1,24
 326 676 326 676 319.5 691.5 c 128,-1,25
 313 707 313 707 301 707 c 0,26,27
 284 707 284 707 274.5 682 c 128,-1,28
 265 657 265 657 265 589 c 2,29,-1
 265 536 l 1,30,-1
 385 536 l 1,31,-1
 385 459 l 1,32,-1
 265 459 l 1,33,-1
 265 120 l 2,34,35
 265 92 265 92 274.5 79 c 128,-1,36
 284 66 284 66 297.5 62 c 128,-1,37
 311 58 311 58 321 58 c 2,38,-1
 368 58 l 1,39,-1
 368 0 l 1,40,-1
 12 0 l 1,0,-1
EndSplineSet
Substitution2: "'smcp' Lowercase to Small Capitals lookup 38 subtable" f.sc
Substitution2: "'aalt' Access All Alternates lookup 0 subtable" f.sc
EndChar

StartChar: g
Encoding: 103 103 74
Width: 509
GlyphClass: 2
Flags: W
AnchorPoint: "Anchor-2" 519 536 basechar 0
AnchorPoint: "Anchor-1" 244 536 basechar 0
AnchorPoint: "Anchor-0" 254 -234 basechar 0
LayerCount: 2
Fore
SplineSet
211 -234 m 0,0,1
 -13 -234 -13 -234 -13 -101 c 0,2,3
 -13 -52 -13 -52 21 -20.5 c 128,-1,4
 55 11 55 11 113 16 c 1,5,6
 85 26 85 26 60.5 45.5 c 128,-1,7
 36 65 36 65 36 102 c 0,8,9
 36 136 36 136 62.5 161 c 128,-1,10
 89 186 89 186 132 209 c 1,11,12
 87 223 87 223 56 261.5 c 128,-1,13
 25 300 25 300 25 365 c 0,14,15
 25 454 25 454 74.5 502 c 128,-1,16
 124 550 124 550 231 550 c 0,17,18
 267 550 267 550 293 543.5 c 128,-1,19
 319 537 319 537 345 524 c 1,20,21
 367 549 367 549 389.5 566.5 c 128,-1,22
 412 584 412 584 448 584 c 0,23,24
 479 584 479 584 495.5 565.5 c 128,-1,25
 512 547 512 547 512 523 c 0,26,27
 512 497 512 497 497 478 c 128,-1,28
 482 459 482 459 443 459 c 1,29,30
 443 484 443 484 431.5 494.5 c 128,-1,31
 420 505 420 505 411 505 c 0,32,33
 401 505 401 505 394 501.5 c 128,-1,34
 387 498 387 498 382 496 c 1,35,36
 404 475 404 475 420 445 c 128,-1,37
 436 415 436 415 436 370 c 0,38,39
 436 289 436 289 387 238.5 c 128,-1,40
 338 188 338 188 231 188 c 0,41,42
 222 188 222 188 205 189 c 128,-1,43
 188 190 188 190 180 192 c 1,44,45
 171 188 171 188 162 174 c 128,-1,46
 153 160 153 160 153 144 c 0,47,48
 153 127 153 127 164.5 120 c 128,-1,49
 176 113 176 113 191 113 c 2,50,-1
 297 113 l 2,51,52
 391 113 391 113 437.5 73.5 c 128,-1,53
 484 34 484 34 484 -40 c 0,54,55
 484 -130 484 -130 417 -182 c 128,-1,56
 350 -234 350 -234 211 -234 c 0,0,1
229 251 m 0,57,58
 266 251 266 251 276 283.5 c 128,-1,59
 286 316 286 316 286 365 c 0,60,61
 286 416 286 416 276.5 451 c 128,-1,62
 267 486 267 486 230 486 c 0,63,64
 194 486 194 486 183.5 450 c 128,-1,65
 173 414 173 414 173 364 c 0,66,67
 173 316 173 316 183.5 283.5 c 128,-1,68
 194 251 194 251 229 251 c 0,57,58
214 -170 m 0,69,70
 279 -170 279 -170 316 -146.5 c 128,-1,71
 353 -123 353 -123 353 -81 c 0,72,73
 353 -58 353 -58 339.5 -42.5 c 128,-1,74
 326 -27 326 -27 296 -27 c 2,75,-1
 182 -27 l 2,76,77
 169 -27 169 -27 154 -33.5 c 128,-1,78
 139 -40 139 -40 128 -56 c 128,-1,79
 117 -72 117 -72 117 -100 c 0,80,81
 117 -136 117 -136 146 -153 c 128,-1,82
 175 -170 175 -170 214 -170 c 0,69,70
EndSplineSet
Substitution2: "'smcp' Lowercase to Small Capitals lookup 38 subtable" g.sc
Substitution2: "'aalt' Access All Alternates lookup 0 subtable" g.sc
EndChar

StartChar: h
Encoding: 104 104 75
Width: 611
GlyphClass: 2
Flags: W
AnchorPoint: "Anchor-3" 305 268 basechar 0
AnchorPoint: "Anchor-2" 561 760 basechar 0
AnchorPoint: "Anchor-1" 305 760 basechar 0
AnchorPoint: "Anchor-0" 305 0 basechar 0
LayerCount: 2
Fore
SplineSet
19 0 m 1,0,-1
 19 58 l 1,1,-1
 22 58 l 2,2,3
 48 58 48 58 65.5 69.5 c 128,-1,4
 83 81 83 81 83 125 c 2,5,-1
 83 644 l 2,6,7
 83 670 83 670 72 682.5 c 128,-1,8
 61 695 61 695 47.5 699 c 128,-1,9
 34 703 34 703 28 703 c 2,10,-1
 14 703 l 1,11,-1
 14 760 l 1,12,-1
 256 760 l 1,13,-1
 256 606 l 2,14,15
 256 568 256 568 254.5 532 c 128,-1,16
 253 496 253 496 251 474 c 1,17,-1
 258 474 l 1,18,19
 274 503 274 503 303 526.5 c 128,-1,20
 332 550 332 550 390 550 c 0,21,22
 464 550 464 550 498.5 504.5 c 128,-1,23
 533 459 533 459 533 358 c 2,24,-1
 533 128 l 2,25,26
 533 82 533 82 544 70 c 128,-1,27
 555 58 555 58 585 58 c 2,28,-1
 588 58 l 1,29,-1
 588 0 l 1,30,-1
 360 0 l 1,31,-1
 360 323 l 2,32,33
 360 386 360 386 349 421.5 c 128,-1,34
 338 457 338 457 310 457 c 0,35,36
 287 457 287 457 275.5 434.5 c 128,-1,37
 264 412 264 412 260 377 c 128,-1,38
 256 342 256 342 256 305 c 2,39,-1
 256 122 l 2,40,41
 256 81 256 81 269 69.5 c 128,-1,42
 282 58 282 58 311 58 c 2,43,-1
 315 58 l 1,44,-1
 315 0 l 1,45,-1
 19 0 l 1,0,-1
EndSplineSet
Substitution2: "'smcp' Lowercase to Small Capitals lookup 38 subtable" h.sc
Substitution2: "'subs' Subscript lookup 21 subtable" uni2095
AlternateSubs2: "'aalt' Access All Alternates lookup 1 subtable" h.sc uni2095
EndChar

StartChar: i
Encoding: 105 105 76
Width: 332
GlyphClass: 2
Flags: W
AnchorPoint: "Anchor-2" 296 773 basechar 0
AnchorPoint: "Anchor-1" 158 773 basechar 0
AnchorPoint: "Anchor-0" 166 0 basechar 0
LayerCount: 2
Fore
SplineSet
158 623 m 0,0,1
 118 623 118 623 91.5 642 c 128,-1,2
 65 661 65 661 65 698 c 0,3,4
 65 737 65 737 91.5 755 c 128,-1,5
 118 773 118 773 158 773 c 0,6,7
 196 773 196 773 224 755 c 128,-1,8
 252 737 252 737 252 698 c 0,9,10
 252 661 252 661 224 642 c 128,-1,11
 196 623 196 623 158 623 c 0,0,1
11 0 m 1,12,-1
 11 58 l 1,13,-1
 21 58 l 2,14,15
 46 58 46 58 61.5 73 c 128,-1,16
 77 88 77 88 77 131 c 2,17,-1
 77 412 l 2,18,19
 77 450 77 450 60.5 464.5 c 128,-1,20
 44 479 44 479 21 479 c 2,21,-1
 4 479 l 1,22,-1
 4 536 l 1,23,-1
 248 536 l 1,24,-1
 248 128 l 2,25,26
 248 87 248 87 264 72.5 c 128,-1,27
 280 58 280 58 304 58 c 2,28,-1
 314 58 l 1,29,-1
 314 0 l 1,30,-1
 11 0 l 1,12,-1
EndSplineSet
Substitution2: "'smcp' Lowercase to Small Capitals lookup 38 subtable" i.sc
Substitution2: "Single Substitution lookup 5 subtable" dotlessi
Substitution2: "Single Substitution lookup 4 subtable" dotlessi
AlternateSubs2: "'aalt' Access All Alternates lookup 1 subtable" dotlessi i.sc
EndChar

StartChar: j
Encoding: 106 106 77
Width: 335
GlyphClass: 2
Flags: W
AnchorPoint: "Anchor-2" 315 773 basechar 0
AnchorPoint: "Anchor-1" 167 773 basechar 0
AnchorPoint: "Anchor-0" 117 -240 basechar 0
LayerCount: 2
Fore
SplineSet
166 623 m 0,0,1
 127 623 127 623 99.5 642 c 128,-1,2
 72 661 72 661 72 698 c 0,3,4
 72 737 72 737 99.5 755 c 128,-1,5
 127 773 127 773 166 773 c 0,6,7
 204 773 204 773 232.5 755 c 128,-1,8
 261 737 261 737 261 698 c 0,9,10
 261 661 261 661 232.5 642 c 128,-1,11
 204 623 204 623 166 623 c 0,0,1
-23 -240 m 1,12,-1
 -23 -172 l 1,13,-1
 -17 -172 l 2,14,15
 32 -172 32 -172 57.5 -134.5 c 128,-1,16
 83 -97 83 -97 83 4 c 2,17,-1
 83 413 l 2,18,19
 83 455 83 455 63 467 c 128,-1,20
 43 479 43 479 15 479 c 2,21,-1
 12 479 l 1,22,-1
 12 536 l 1,23,-1
 256 536 l 1,24,-1
 256 -8 l 2,25,26
 256 -97 256 -97 223 -148 c 128,-1,27
 190 -199 190 -199 131.5 -219.5 c 128,-1,28
 73 -240 73 -240 -3 -240 c 2,29,-1
 -23 -240 l 1,12,-1
EndSplineSet
Substitution2: "'smcp' Lowercase to Small Capitals lookup 38 subtable" j.sc
Substitution2: "Single Substitution lookup 5 subtable" uni0237
Substitution2: "Single Substitution lookup 4 subtable" uni0237
AlternateSubs2: "'aalt' Access All Alternates lookup 1 subtable" uni0237 j.sc
EndChar

StartChar: k
Encoding: 107 107 78
Width: 596
GlyphClass: 2
Flags: W
AnchorPoint: "Anchor-2" 576 760 basechar 0
AnchorPoint: "Anchor-1" 298 760 basechar 0
AnchorPoint: "Anchor-0" 298 0 basechar 0
LayerCount: 2
Fore
SplineSet
14 0 m 1,0,-1
 14 58 l 1,1,-1
 28 58 l 2,2,3
 35 58 35 58 48 62 c 128,-1,4
 61 66 61 66 72 79 c 128,-1,5
 83 92 83 92 83 120 c 2,6,-1
 83 644 l 2,7,8
 83 670 83 670 72 682.5 c 128,-1,9
 61 695 61 695 47.5 699 c 128,-1,10
 34 703 34 703 28 703 c 2,11,-1
 14 703 l 1,12,-1
 14 760 l 1,13,-1
 256 760 l 1,14,-1
 256 378 l 2,15,16
 256 353 256 353 254.5 321.5 c 128,-1,17
 253 290 253 290 251 279 c 1,18,-1
 359 424 l 2,19,20
 367 433 367 433 367.5 440.5 c 128,-1,21
 368 448 368 448 368 452 c 0,22,23
 368 465 368 465 355 474 c 128,-1,24
 342 483 342 483 320 483 c 1,25,-1
 320 536 l 1,26,-1
 563 536 l 1,27,-1
 563 483 l 1,28,29
 533 483 533 483 503 464 c 128,-1,30
 473 445 473 445 439 400 c 2,31,-1
 395 341 l 1,32,-1
 513 143 l 2,33,34
 537 101 537 101 556 79.5 c 128,-1,35
 575 58 575 58 591 58 c 2,36,-1
 595 58 l 1,37,-1
 595 0 l 1,38,-1
 583 0 l 2,39,40
 508 0 508 0 464 8.5 c 128,-1,41
 420 17 420 17 393.5 40 c 128,-1,42
 367 63 367 63 344 107 c 2,43,-1
 280 232 l 1,44,-1
 256 198 l 1,45,-1
 256 122 l 2,46,47
 256 94 256 94 266.5 80 c 128,-1,48
 277 66 277 66 290 62 c 128,-1,49
 303 58 303 58 310 58 c 2,50,-1
 327 58 l 1,51,-1
 327 0 l 1,52,-1
 14 0 l 1,0,-1
EndSplineSet
Substitution2: "'smcp' Lowercase to Small Capitals lookup 38 subtable" k.sc
Substitution2: "'subs' Subscript lookup 21 subtable" uni2096
AlternateSubs2: "'aalt' Access All Alternates lookup 1 subtable" k.sc uni2096
EndChar

StartChar: l
Encoding: 108 108 79
Width: 338
GlyphClass: 2
Flags: W
AnchorPoint: "Anchor-3" 170 268 basechar 0
AnchorPoint: "Anchor-2" 312 760 basechar 0
AnchorPoint: "Anchor-1" 170 760 basechar 0
AnchorPoint: "Anchor-0" 170 0 basechar 0
LayerCount: 2
Fore
SplineSet
17 0 m 1,0,-1
 17 58 l 1,1,-1
 28 58 l 2,2,3
 52 58 52 58 67.5 72.5 c 128,-1,4
 83 87 83 87 83 128 c 2,5,-1
 83 644 l 2,6,7
 83 670 83 670 72 682.5 c 128,-1,8
 61 695 61 695 47.5 699 c 128,-1,9
 34 703 34 703 28 703 c 2,10,-1
 17 703 l 1,11,-1
 17 760 l 1,12,-1
 255 760 l 1,13,-1
 255 128 l 2,14,15
 255 87 255 87 271 72.5 c 128,-1,16
 287 58 287 58 311 58 c 2,17,-1
 320 58 l 1,18,-1
 320 0 l 1,19,-1
 17 0 l 1,0,-1
EndSplineSet
Substitution2: "'smcp' Lowercase to Small Capitals lookup 38 subtable" l.sc
Substitution2: "'subs' Subscript lookup 21 subtable" uni2097
AlternateSubs2: "'aalt' Access All Alternates lookup 1 subtable" l.sc uni2097
EndChar

StartChar: m
Encoding: 109 109 80
Width: 898
GlyphClass: 2
Flags: W
AnchorPoint: "Anchor-2" 875 536 basechar 0
AnchorPoint: "Anchor-1" 449 536 basechar 0
AnchorPoint: "Anchor-0" 449 0 basechar 0
LayerCount: 2
Fore
SplineSet
12 0 m 1,0,-1
 12 58 l 1,1,-1
 16 58 l 2,2,3
 45 58 45 58 61 69.5 c 128,-1,4
 77 81 77 81 77 125 c 2,5,-1
 77 418 l 2,6,7
 77 460 77 460 61.5 471.5 c 128,-1,8
 46 483 46 483 17 483 c 2,9,-1
 14 483 l 1,10,-1
 14 536 l 1,11,-1
 233 536 l 1,12,-1
 245 469 l 1,13,-1
 250 469 l 1,14,15
 267 504 267 504 299 527 c 128,-1,16
 331 550 331 550 395 550 c 0,17,18
 494 550 494 550 523 468 c 1,19,-1
 528 468 l 1,20,21
 542 504 542 504 576 527 c 128,-1,22
 610 550 610 550 668 550 c 0,23,24
 741 550 741 550 781 504.5 c 128,-1,25
 821 459 821 459 821 358 c 2,26,-1
 821 128 l 2,27,28
 821 82 821 82 832.5 70 c 128,-1,29
 844 58 844 58 873 58 c 2,30,-1
 877 58 l 1,31,-1
 877 0 l 1,32,-1
 649 0 l 1,33,-1
 649 323 l 2,34,35
 649 386 649 386 637 421.5 c 128,-1,36
 625 457 625 457 595 457 c 0,37,38
 563 457 563 457 548 415 c 128,-1,39
 533 373 533 373 533 316 c 2,40,-1
 533 128 l 2,41,42
 533 82 533 82 544 70 c 128,-1,43
 555 58 555 58 585 58 c 2,44,-1
 589 58 l 1,45,-1
 589 0 l 1,46,-1
 361 0 l 1,47,-1
 361 323 l 2,48,49
 361 386 361 386 350.5 421.5 c 128,-1,50
 340 457 340 457 309 457 c 0,51,52
 288 457 288 457 274.5 435.5 c 128,-1,53
 261 414 261 414 255 379.5 c 128,-1,54
 249 345 249 345 249 305 c 2,55,-1
 249 122 l 2,56,57
 249 81 249 81 262.5 69.5 c 128,-1,58
 276 58 276 58 305 58 c 2,59,-1
 308 58 l 1,60,-1
 308 0 l 1,61,-1
 12 0 l 1,0,-1
EndSplineSet
Substitution2: "'smcp' Lowercase to Small Capitals lookup 38 subtable" m.sc
Substitution2: "'subs' Subscript lookup 21 subtable" uni2098
AlternateSubs2: "'aalt' Access All Alternates lookup 1 subtable" m.sc uni2098
EndChar

StartChar: n
Encoding: 110 110 81
Width: 604
GlyphClass: 2
Flags: W
AnchorPoint: "Anchor-2" 581 536 basechar 0
AnchorPoint: "Anchor-1" 302 536 basechar 0
AnchorPoint: "Anchor-0" 302 0 basechar 0
LayerCount: 2
Fore
SplineSet
12 0 m 1,0,-1
 12 58 l 1,1,-1
 16 58 l 2,2,3
 46 58 46 58 61.5 69.5 c 128,-1,4
 77 81 77 81 77 125 c 2,5,-1
 77 415 l 2,6,7
 77 456 77 456 63 467.5 c 128,-1,8
 49 479 49 479 20 479 c 2,9,-1
 16 479 l 1,10,-1
 16 536 l 1,11,-1
 234 536 l 1,12,-1
 246 469 l 1,13,-1
 250 469 l 1,14,15
 267 503 267 503 296 526.5 c 128,-1,16
 325 550 325 550 384 550 c 0,17,18
 454 550 454 550 490.5 504.5 c 128,-1,19
 527 459 527 459 527 358 c 2,20,-1
 527 128 l 2,21,22
 527 82 527 82 538 70 c 128,-1,23
 549 58 549 58 579 58 c 2,24,-1
 583 58 l 1,25,-1
 583 0 l 1,26,-1
 355 0 l 1,27,-1
 355 323 l 2,28,29
 355 386 355 386 345.5 421.5 c 128,-1,30
 336 457 336 457 307 457 c 0,31,32
 285 457 285 457 272.5 435.5 c 128,-1,33
 260 414 260 414 254.5 379 c 128,-1,34
 249 344 249 344 249 305 c 2,35,-1
 249 122 l 2,36,37
 249 81 249 81 262.5 69.5 c 128,-1,38
 276 58 276 58 305 58 c 2,39,-1
 308 58 l 1,40,-1
 308 0 l 1,41,-1
 12 0 l 1,0,-1
EndSplineSet
Substitution2: "'smcp' Lowercase to Small Capitals lookup 38 subtable" n.sc
Substitution2: "'sups' Superscript lookup 22 subtable" uni207F
Substitution2: "'subs' Subscript lookup 21 subtable" uni2099
AlternateSubs2: "'aalt' Access All Alternates lookup 1 subtable" uni207F n.sc uni2099
EndChar

StartChar: o
Encoding: 111 111 82
Width: 565
GlyphClass: 2
Flags: W
AnchorPoint: "Anchor-3" 283 268 basechar 0
AnchorPoint: "Anchor-2" 552 536 basechar 0
AnchorPoint: "Anchor-1" 283 536 basechar 0
AnchorPoint: "Anchor-0" 283 0 basechar 0
LayerCount: 2
Fore
SplineSet
281 -10 m 0,0,1
 167 -10 167 -10 101.5 59.5 c 128,-1,2
 36 129 36 129 36 270 c 256,3,4
 36 411 36 411 99 480.5 c 128,-1,5
 162 550 162 550 284 550 c 0,6,7
 398 550 398 550 463.5 480.5 c 128,-1,8
 529 411 529 411 529 270 c 256,9,10
 529 129 529 129 466 59.5 c 128,-1,11
 403 -10 403 -10 281 -10 c 0,0,1
283 58 m 256,12,13
 323 58 323 58 338.5 112 c 128,-1,14
 354 166 354 166 354 270 c 0,15,16
 354 375 354 375 338 428.5 c 128,-1,17
 322 482 322 482 282 482 c 256,18,19
 242 482 242 482 227 428.5 c 128,-1,20
 212 375 212 375 212 270 c 0,21,22
 212 166 212 166 227.5 112 c 128,-1,23
 243 58 243 58 283 58 c 256,12,13
EndSplineSet
Substitution2: "'smcp' Lowercase to Small Capitals lookup 38 subtable" o.sc
Substitution2: "Single Substitution lookup 32 subtable" ordmasculine
AlternateSubs2: "'aalt' Access All Alternates lookup 1 subtable" ordmasculine o.sc
EndChar

StartChar: p
Encoding: 112 112 83
Width: 590
GlyphClass: 2
Flags: W
AnchorPoint: "Anchor-2" 577 536 basechar 0
AnchorPoint: "Anchor-1" 296 536 basechar 0
AnchorPoint: "Anchor-0" 296 -224 basechar 0
LayerCount: 2
Fore
SplineSet
8 -224 m 1,0,-1
 8 -166 l 1,1,-1
 21 -166 l 2,2,3
 29 -166 29 -166 42 -162 c 128,-1,4
 55 -158 55 -158 66 -144.5 c 128,-1,5
 77 -131 77 -131 77 -104 c 2,6,-1
 77 407 l 2,7,8
 77 454 77 454 64 466.5 c 128,-1,9
 51 479 51 479 29 479 c 2,10,-1
 25 479 l 1,11,-1
 25 536 l 1,12,-1
 212 536 l 1,13,-1
 233 464 l 1,14,-1
 237 464 l 1,15,16
 256 500 256 500 288.5 523 c 128,-1,17
 321 546 321 546 372 546 c 0,18,19
 460 546 460 546 506.5 478.5 c 128,-1,20
 553 411 553 411 553 265 c 0,21,22
 553 120 553 120 507 54 c 128,-1,23
 461 -12 461 -12 370 -12 c 0,24,25
 326 -12 326 -12 298 4 c 128,-1,26
 270 20 270 20 251 50 c 1,27,-1
 246 50 l 1,28,29
 247 26 247 26 248.5 -1.5 c 128,-1,30
 250 -29 250 -29 250 -60 c 2,31,-1
 250 -102 l 2,32,33
 250 -130 250 -130 260.5 -144 c 128,-1,34
 271 -158 271 -158 284 -162 c 128,-1,35
 297 -166 297 -166 304 -166 c 2,36,-1
 336 -166 l 1,37,-1
 336 -224 l 1,38,-1
 8 -224 l 1,0,-1
316 64 m 0,39,40
 351 64 351 64 366 113 c 128,-1,41
 381 162 381 162 381 263 c 0,42,43
 381 360 381 360 366.5 414 c 128,-1,44
 352 468 352 468 319 468 c 0,45,46
 277 468 277 468 263.5 414 c 128,-1,47
 250 360 250 360 250 265 c 0,48,49
 250 162 250 162 263 113 c 128,-1,50
 276 64 276 64 316 64 c 0,39,40
EndSplineSet
Substitution2: "'smcp' Lowercase to Small Capitals lookup 38 subtable" p.sc
Substitution2: "'subs' Subscript lookup 21 subtable" uni209A
AlternateSubs2: "'aalt' Access All Alternates lookup 1 subtable" p.sc uni209A
EndChar

StartChar: q
Encoding: 113 113 84
Width: 595
GlyphClass: 2
Flags: W
AnchorPoint: "Anchor-2" 595 536 basechar 0
AnchorPoint: "Anchor-1" 298 536 basechar 0
AnchorPoint: "Anchor-0" 298 -224 basechar 0
LayerCount: 2
Fore
SplineSet
245 -224 m 1,0,-1
 245 -166 l 1,1,-1
 269 -166 l 2,2,3
 297 -166 297 -166 318 -156.5 c 128,-1,4
 339 -147 339 -147 339 -108 c 2,5,-1
 339 -52 l 2,6,7
 339 -24 339 -24 341 7 c 128,-1,8
 343 38 343 38 345 60 c 1,9,-1
 338 60 l 1,10,11
 320 30 320 30 290 10 c 128,-1,12
 260 -10 260 -10 212 -10 c 0,13,14
 128 -10 128 -10 81 57.5 c 128,-1,15
 34 125 34 125 34 269 c 256,16,17
 34 413 34 413 82.5 479.5 c 128,-1,18
 131 546 131 546 224 546 c 0,19,20
 269 546 269 546 302 522.5 c 128,-1,21
 335 499 335 499 356 458 c 1,22,-1
 361 458 l 1,23,-1
 380 536 l 1,24,-1
 586 536 l 1,25,-1
 586 479 l 1,26,-1
 582 479 l 2,27,28
 554 479 554 479 533 466.5 c 128,-1,29
 512 454 512 454 512 409 c 2,30,-1
 512 -106 l 2,31,32
 512 -146 512 -146 532.5 -156 c 128,-1,33
 553 -166 553 -166 583 -166 c 2,34,-1
 586 -166 l 1,35,-1
 586 -224 l 1,36,-1
 245 -224 l 1,0,-1
269 66 m 0,37,38
 310 66 310 66 324.5 118.5 c 128,-1,39
 339 171 339 171 339 267 c 0,40,41
 339 371 339 371 324.5 419.5 c 128,-1,42
 310 468 310 468 270 468 c 0,43,44
 236 468 236 468 222 419.5 c 128,-1,45
 208 371 208 371 208 268 c 0,46,47
 208 171 208 171 222 118.5 c 128,-1,48
 236 66 236 66 269 66 c 0,37,38
EndSplineSet
Substitution2: "'smcp' Lowercase to Small Capitals lookup 38 subtable" q.sc
Substitution2: "'aalt' Access All Alternates lookup 0 subtable" q.sc
EndChar

StartChar: r
Encoding: 114 114 85
Width: 496
GlyphClass: 2
Flags: W
AnchorPoint: "Anchor-2" 496 536 basechar 0
AnchorPoint: "Anchor-1" 248 536 basechar 0
AnchorPoint: "Anchor-0" 175 0 basechar 0
LayerCount: 2
Fore
SplineSet
9 0 m 1,0,-1
 9 58 l 1,1,-1
 13 58 l 2,2,3
 43 58 43 58 59.5 70 c 128,-1,4
 76 82 76 82 76 130 c 2,5,-1
 76 411 l 2,6,7
 76 455 76 455 62.5 467 c 128,-1,8
 49 479 49 479 20 479 c 2,9,-1
 16 479 l 1,10,-1
 16 536 l 1,11,-1
 223 536 l 1,12,-1
 242 440 l 1,13,-1
 246 440 l 1,14,15
 268 497 268 497 301 522.5 c 128,-1,16
 334 548 334 548 386 548 c 0,17,18
 437 548 437 548 459.5 521 c 128,-1,19
 482 494 482 494 482 454 c 0,20,21
 482 402 482 402 446 379.5 c 128,-1,22
 410 357 410 357 351 357 c 1,23,24
 351 398 351 398 344 420 c 128,-1,25
 337 442 337 442 313 442 c 0,26,27
 292 442 292 442 278 417.5 c 128,-1,28
 264 393 264 393 256.5 355.5 c 128,-1,29
 249 318 249 318 249 277 c 2,30,-1
 249 125 l 2,31,32
 249 80 249 80 263.5 69 c 128,-1,33
 278 58 278 58 302 58 c 2,34,-1
 334 58 l 1,35,-1
 334 0 l 1,36,-1
 9 0 l 1,0,-1
EndSplineSet
Substitution2: "'smcp' Lowercase to Small Capitals lookup 38 subtable" r.sc
Substitution2: "'aalt' Access All Alternates lookup 0 subtable" r.sc
EndChar

StartChar: s
Encoding: 115 115 86
Width: 444
GlyphClass: 2
Flags: W
AnchorPoint: "Anchor-2" 424 536 basechar 0
AnchorPoint: "Anchor-1" 222 536 basechar 0
AnchorPoint: "Anchor-0" 222 0 basechar 0
LayerCount: 2
Fore
SplineSet
215 -10 m 0,0,1
 140 -10 140 -10 98 5.5 c 128,-1,2
 56 21 56 21 39 47 c 128,-1,3
 22 73 22 73 22 106 c 0,4,5
 22 148 22 148 49 165 c 128,-1,6
 76 182 76 182 115 182 c 1,7,8
 115 116 115 116 144 86 c 128,-1,9
 173 56 173 56 217 56 c 0,10,11
 260 56 260 56 277.5 74.5 c 128,-1,12
 295 93 295 93 295 118 c 0,13,14
 295 148 295 148 269 166.5 c 128,-1,15
 243 185 243 185 189 204 c 0,16,17
 108 232 108 232 68 270 c 128,-1,18
 28 308 28 308 28 383 c 0,19,20
 28 468 28 468 85 508.5 c 128,-1,21
 142 549 142 549 235 549 c 0,22,23
 296 549 296 549 332.5 535 c 128,-1,24
 369 521 369 521 386 499 c 128,-1,25
 403 477 403 477 403 453 c 0,26,27
 403 419 403 419 379.5 401.5 c 128,-1,28
 356 384 356 384 306 384 c 1,29,30
 306 433 306 433 281 459 c 128,-1,31
 256 485 256 485 220 485 c 0,32,33
 193 485 193 485 175.5 471 c 128,-1,34
 158 457 158 457 158 431 c 0,35,36
 158 400 158 400 179.5 382.5 c 128,-1,37
 201 365 201 365 263 343 c 0,38,39
 310 326 310 326 346 305 c 128,-1,40
 382 284 382 284 402.5 251.5 c 128,-1,41
 423 219 423 219 423 168 c 0,42,43
 423 88 423 88 370.5 39 c 128,-1,44
 318 -10 318 -10 215 -10 c 0,0,1
EndSplineSet
Substitution2: "'smcp' Lowercase to Small Capitals lookup 38 subtable" s.sc
Substitution2: "'subs' Subscript lookup 21 subtable" uni209B
AlternateSubs2: "'aalt' Access All Alternates lookup 1 subtable" s.sc uni209B
EndChar

StartChar: t
Encoding: 116 116 87
Width: 393
GlyphClass: 2
Flags: W
AnchorPoint: "Anchor-3" 197 268 basechar 0
AnchorPoint: "Anchor-2" 387 660 basechar 0
AnchorPoint: "Anchor-1" 187 660 basechar 0
AnchorPoint: "Anchor-0" 240 0 basechar 0
LayerCount: 2
Fore
SplineSet
234 -10 m 0,0,1
 166 -10 166 -10 125.5 25.5 c 128,-1,2
 85 61 85 61 85 149 c 2,3,-1
 85 466 l 1,4,-1
 20 466 l 1,5,-1
 20 520 l 1,6,7
 57 520 57 520 82 535.5 c 128,-1,8
 107 551 107 551 120 567 c 0,9,10
 132 581 132 581 143 604.5 c 128,-1,11
 154 628 154 628 160 660 c 1,12,-1
 258 660 l 1,13,-1
 258 536 l 1,14,-1
 369 536 l 1,15,-1
 369 466 l 1,16,-1
 258 466 l 1,17,-1
 258 165 l 2,18,19
 258 122 258 122 268 103 c 128,-1,20
 278 84 278 84 309 84 c 0,21,22
 348 84 348 84 377 93 c 1,23,-1
 377 19 l 1,24,25
 361 11 361 11 325 0.5 c 128,-1,26
 289 -10 289 -10 234 -10 c 0,0,1
EndSplineSet
Substitution2: "'smcp' Lowercase to Small Capitals lookup 38 subtable" t.sc
Substitution2: "'subs' Subscript lookup 21 subtable" uni209C
AlternateSubs2: "'aalt' Access All Alternates lookup 1 subtable" t.sc uni209C
EndChar

StartChar: u
Encoding: 117 117 88
Width: 611
GlyphClass: 2
Flags: W
AnchorPoint: "Anchor-2" 581 536 basechar 0
AnchorPoint: "Anchor-1" 306 536 basechar 0
AnchorPoint: "Anchor-0" 306 0 basechar 0
LayerCount: 2
Fore
SplineSet
227 -10 m 0,0,1
 146 -10 146 -10 111.5 39 c 128,-1,2
 77 88 77 88 77 188 c 2,3,-1
 77 407 l 2,4,5
 77 450 77 450 70 464.5 c 128,-1,6
 63 479 63 479 29 479 c 2,7,-1
 25 479 l 1,8,-1
 25 536 l 1,9,-1
 250 536 l 1,10,-1
 250 226 l 2,11,12
 250 155 250 155 259 119 c 128,-1,13
 268 83 268 83 298 83 c 0,14,15
 329 83 329 83 342 123 c 128,-1,16
 355 163 355 163 355 232 c 2,17,-1
 355 418 l 2,18,19
 355 460 355 460 342.5 469.5 c 128,-1,20
 330 479 330 479 307 479 c 2,21,-1
 304 479 l 1,22,-1
 304 536 l 1,23,-1
 527 536 l 1,24,-1
 527 119 l 2,25,26
 527 76 527 76 540 67 c 128,-1,27
 553 58 553 58 576 58 c 2,28,-1
 587 58 l 1,29,-1
 587 0 l 1,30,-1
 385 0 l 1,31,-1
 359 68 l 1,32,-1
 355 68 l 1,33,34
 336 30 336 30 305 10 c 128,-1,35
 274 -10 274 -10 227 -10 c 0,0,1
EndSplineSet
Substitution2: "'smcp' Lowercase to Small Capitals lookup 38 subtable" u.sc
Substitution2: "'aalt' Access All Alternates lookup 0 subtable" u.sc
EndChar

StartChar: v
Encoding: 118 118 89
Width: 553
GlyphClass: 2
Flags: W
AnchorPoint: "Anchor-2" 563 536 basechar 0
AnchorPoint: "Anchor-1" 287 536 basechar 0
AnchorPoint: "Anchor-0" 287 0 basechar 0
LayerCount: 2
Fore
SplineSet
211 0 m 1,0,-1
 72 433 l 2,1,2
 63 460 63 460 50 469.5 c 128,-1,3
 37 479 37 479 6 479 c 1,4,-1
 6 536 l 1,5,-1
 310 536 l 1,6,-1
 310 479 l 1,7,-1
 280 479 l 2,8,9
 260 479 260 479 252 471 c 128,-1,10
 244 463 244 463 244 449 c 0,11,12
 244 437 244 437 246.5 426.5 c 128,-1,13
 249 416 249 416 252 406 c 2,14,-1
 308 218 l 2,15,16
 317 188 317 188 322.5 163 c 128,-1,17
 328 138 328 138 331 114 c 1,18,19
 335 133 335 133 338.5 154 c 128,-1,20
 342 175 342 175 347 195 c 2,21,-1
 402 395 l 2,22,23
 407 411 407 411 409.5 423 c 128,-1,24
 412 435 412 435 412 450 c 0,25,26
 412 461 412 461 403.5 470 c 128,-1,27
 395 479 395 479 375 479 c 2,28,-1
 357 479 l 1,29,-1
 357 536 l 1,30,-1
 555 536 l 1,31,-1
 555 479 l 1,32,-1
 532 479 l 2,33,34
 515 479 515 479 504 464.5 c 128,-1,35
 493 450 493 450 481 408 c 2,36,-1
 362 0 l 1,37,-1
 211 0 l 1,0,-1
EndSplineSet
Substitution2: "'smcp' Lowercase to Small Capitals lookup 38 subtable" v.sc
Substitution2: "'aalt' Access All Alternates lookup 0 subtable" v.sc
EndChar

StartChar: w
Encoding: 119 119 90
Width: 753
GlyphClass: 2
Flags: W
AnchorPoint: "Anchor-2" 763 536 basechar 0
AnchorPoint: "Anchor-1" 376 536 basechar 0
AnchorPoint: "Anchor-0" 376 0 basechar 0
LayerCount: 2
Fore
SplineSet
172 0 m 1,0,-1
 60 426 l 2,1,2
 50 458 50 458 37 468.5 c 128,-1,3
 24 479 24 479 -2 479 c 2,4,-1
 -5 479 l 1,5,-1
 -5 536 l 1,6,-1
 286 536 l 1,7,-1
 286 479 l 1,8,-1
 275 479 l 2,9,10
 248 479 248 479 235 470 c 128,-1,11
 222 461 222 461 222 437 c 0,12,13
 222 428 222 428 224 415.5 c 128,-1,14
 226 403 226 403 229 392 c 2,15,-1
 252 279 l 2,16,17
 259 243 259 243 265.5 209 c 128,-1,18
 272 175 272 175 275 152 c 1,19,-1
 279 152 l 1,20,21
 281 176 281 176 287.5 203 c 128,-1,22
 294 230 294 230 301 252 c 2,23,-1
 389 531 l 1,24,-1
 448 531 l 1,25,-1
 531 236 l 2,26,27
 536 216 536 216 539.5 192 c 128,-1,28
 543 168 543 168 544 151 c 1,29,-1
 548 151 l 1,30,31
 551 174 551 174 554.5 194.5 c 128,-1,32
 558 215 558 215 564 240 c 2,33,-1
 599 380 l 2,34,35
 602 392 602 392 604.5 406.5 c 128,-1,36
 607 421 607 421 607 430 c 0,37,38
 607 479 607 479 548 479 c 2,39,-1
 543 479 l 1,40,-1
 543 536 l 1,41,-1
 755 536 l 1,42,-1
 755 479 l 1,43,-1
 743 479 l 2,44,45
 717 479 717 479 704 463.5 c 128,-1,46
 691 448 691 448 677 401 c 2,47,-1
 563 0 l 1,48,-1
 449 0 l 1,49,-1
 371 297 l 1,50,-1
 287 0 l 1,51,-1
 172 0 l 1,0,-1
EndSplineSet
Substitution2: "'smcp' Lowercase to Small Capitals lookup 38 subtable" w.sc
Substitution2: "'aalt' Access All Alternates lookup 0 subtable" w.sc
EndChar

StartChar: x
Encoding: 120 120 91
Width: 615
GlyphClass: 2
Flags: W
AnchorPoint: "Anchor-2" 595 536 basechar 0
AnchorPoint: "Anchor-1" 307 536 basechar 0
AnchorPoint: "Anchor-0" 307 0 basechar 0
LayerCount: 2
Fore
SplineSet
13 0 m 1,0,-1
 13 58 l 1,1,-1
 21 58 l 2,2,3
 53 58 53 58 71 71.5 c 128,-1,4
 89 85 89 85 117 122 c 2,5,-1
 229 270 l 1,6,-1
 117 426 l 2,7,8
 78 479 78 479 41 479 c 2,9,-1
 30 479 l 1,10,-1
 30 536 l 1,11,-1
 341 536 l 1,12,-1
 341 479 l 1,13,-1
 338 479 l 2,14,15
 311 479 311 479 302.5 470.5 c 128,-1,16
 294 462 294 462 294 450 c 0,17,18
 294 432 294 432 313 404 c 2,19,-1
 357 344 l 1,20,-1
 392 395 l 2,21,22
 402 410 402 410 409.5 422.5 c 128,-1,23
 417 435 417 435 417 448 c 0,24,25
 417 466 417 466 406.5 472.5 c 128,-1,26
 396 479 396 479 378 479 c 2,27,-1
 374 479 l 1,28,-1
 374 536 l 1,29,-1
 583 536 l 1,30,-1
 583 479 l 1,31,-1
 575 479 l 2,32,33
 550 479 550 479 534 465 c 128,-1,34
 518 451 518 451 488 413 c 2,35,-1
 395 292 l 1,36,-1
 525 111 l 2,37,38
 546 82 546 82 562.5 70 c 128,-1,39
 579 58 579 58 596 58 c 2,40,-1
 607 58 l 1,41,-1
 607 0 l 1,42,-1
 287 0 l 1,43,-1
 287 58 l 1,44,-1
 292 58 l 2,45,46
 345 58 345 58 345 91 c 0,47,48
 345 102 345 102 339 116 c 128,-1,49
 333 130 333 130 311 160 c 2,50,-1
 267 221 l 1,51,-1
 211 137 l 2,52,53
 203 125 203 125 197 113.5 c 128,-1,54
 191 102 191 102 191 91 c 0,55,56
 191 74 191 74 203 66 c 128,-1,57
 215 58 215 58 245 58 c 2,58,-1
 248 58 l 1,59,-1
 248 0 l 1,60,-1
 13 0 l 1,0,-1
EndSplineSet
Substitution2: "'smcp' Lowercase to Small Capitals lookup 38 subtable" x.sc
Substitution2: "'aalt' Access All Alternates lookup 0 subtable" x.sc
EndChar

StartChar: y
Encoding: 121 121 92
Width: 520
GlyphClass: 2
Flags: W
AnchorPoint: "Anchor-2" 530 536 basechar 0
AnchorPoint: "Anchor-1" 261 536 basechar 0
AnchorPoint: "Anchor-0" 145 -224 basechar 0
LayerCount: 2
Fore
SplineSet
17 -224 m 1,0,-1
 17 -161 l 1,1,2
 80 -161 80 -161 117 -142 c 128,-1,3
 154 -123 154 -123 175 -89 c 128,-1,4
 196 -55 196 -55 209 -11 c 1,5,-1
 54 433 l 2,6,7
 44 463 44 463 32.5 471 c 128,-1,8
 21 479 21 479 2 479 c 2,9,-1
 -3 479 l 1,10,-1
 -3 536 l 1,11,-1
 283 536 l 1,12,-1
 283 479 l 1,13,-1
 279 479 l 2,14,15
 250 479 250 479 238.5 470 c 128,-1,16
 227 461 227 461 227 446 c 0,17,18
 227 435 227 435 229.5 423 c 128,-1,19
 232 411 232 411 236 398 c 2,20,-1
 282 241 l 2,21,22
 291 208 291 208 296.5 179.5 c 128,-1,23
 302 151 302 151 303 132 c 1,24,25
 308 175 308 175 316 206 c 2,26,-1
 368 391 l 2,27,28
 371 400 371 400 374.5 417.5 c 128,-1,29
 378 435 378 435 378 446 c 0,30,31
 378 464 378 464 366.5 470 c 128,-1,32
 355 476 355 476 330 478 c 2,33,-1
 325 479 l 1,34,-1
 325 536 l 1,35,-1
 520 536 l 1,36,-1
 520 479 l 1,37,-1
 517 479 l 2,38,39
 493 478 493 478 477 461.5 c 128,-1,40
 461 445 461 445 449 409 c 2,41,-1
 317 4 l 2,42,43
 295 -64 295 -64 274 -108 c 128,-1,44
 253 -152 253 -152 225 -177.5 c 128,-1,45
 197 -203 197 -203 152 -213.5 c 128,-1,46
 107 -224 107 -224 37 -224 c 2,47,-1
 17 -224 l 1,0,-1
EndSplineSet
Substitution2: "'smcp' Lowercase to Small Capitals lookup 38 subtable" y.sc
Substitution2: "'aalt' Access All Alternates lookup 0 subtable" y.sc
EndChar

StartChar: z
Encoding: 122 122 93
Width: 478
GlyphClass: 2
Flags: W
AnchorPoint: "Anchor-2" 472 536 basechar 0
AnchorPoint: "Anchor-1" 240 536 basechar 0
AnchorPoint: "Anchor-0" 240 0 basechar 0
LayerCount: 2
Fore
SplineSet
0 0 m 1,0,-1
 0 41 l 1,1,-1
 264 466 l 1,2,-1
 173 466 l 2,3,4
 144 466 144 466 129 453.5 c 128,-1,5
 114 441 114 441 104 400 c 2,6,-1
 95 366 l 1,7,-1
 31 366 l 1,8,-1
 42 536 l 1,9,-1
 456 536 l 1,10,-1
 456 493 l 1,11,-1
 192 70 l 1,12,-1
 319 70 l 2,13,14
 357 70 357 70 374.5 86 c 128,-1,15
 392 102 392 102 401 152 c 2,16,-1
 407 189 l 1,17,-1
 469 189 l 1,18,-1
 464 0 l 1,19,-1
 0 0 l 1,0,-1
EndSplineSet
Substitution2: "'smcp' Lowercase to Small Capitals lookup 38 subtable" z.sc
Substitution2: "'aalt' Access All Alternates lookup 0 subtable" z.sc
EndChar

StartChar: braceleft
Encoding: 123 123 94
Width: 399
Flags: W
LayerCount: 2
Fore
SplineSet
283 -124 m 2,0,1
 200 -124 200 -124 157.5 -83.5 c 128,-1,2
 115 -43 115 -43 115 26 c 2,3,-1
 115 196 l 2,4,5
 115 233 115 233 101 251.5 c 128,-1,6
 87 270 87 270 64 276.5 c 128,-1,7
 41 283 41 283 13 285 c 1,8,-1
 13 354 l 1,9,10
 41 355 41 355 64.5 361.5 c 128,-1,11
 88 368 88 368 101.5 387 c 128,-1,12
 115 406 115 406 115 442 c 2,13,-1
 115 613 l 2,14,15
 115 683 115 683 157.5 721.5 c 128,-1,16
 200 760 200 760 283 760 c 2,17,-1
 386 760 l 1,18,-1
 386 704 l 1,19,-1
 346 704 l 2,20,21
 309 704 309 704 299.5 679.5 c 128,-1,22
 290 655 290 655 290 610 c 2,23,-1
 290 440 l 2,24,25
 290 396 290 396 268 368.5 c 128,-1,26
 246 341 246 341 194 326 c 1,27,-1
 194 315 l 1,28,29
 244 298 244 298 267 270 c 128,-1,30
 290 242 290 242 290 199 c 2,31,-1
 290 28 l 2,32,33
 290 -17 290 -17 299.5 -41.5 c 128,-1,34
 309 -66 309 -66 346 -66 c 2,35,-1
 386 -66 l 1,36,-1
 386 -124 l 1,37,-1
 283 -124 l 2,0,1
EndSplineSet
Substitution2: "'smcp' Lowercase to Small Capitals lookup 38 subtable" braceleft.sc
Substitution2: "'c2sc' Capitals to Small Capitals lookup 37 subtable" braceleft.sc
Substitution2: "'aalt' Access All Alternates lookup 0 subtable" braceleft.sc
EndChar

StartChar: bar
Encoding: 124 124 95
Width: 497
Flags: W
LayerCount: 2
Fore
SplineSet
213 -240 m 1,0,-1
 213 760 l 1,1,-1
 284 760 l 1,2,-1
 284 -240 l 1,3,-1
 213 -240 l 1,0,-1
EndSplineSet
EndChar

StartChar: braceright
Encoding: 125 125 96
Width: 399
Flags: W
LayerCount: 2
Fore
SplineSet
13 -124 m 1,0,-1
 13 -66 l 1,1,-1
 54 -66 l 2,2,3
 90 -66 90 -66 99.5 -41.5 c 128,-1,4
 109 -17 109 -17 109 28 c 2,5,-1
 109 199 l 2,6,7
 109 242 109 242 132 270 c 128,-1,8
 155 298 155 298 206 315 c 1,9,-1
 206 326 l 1,10,11
 153 341 153 341 131 368.5 c 128,-1,12
 109 396 109 396 109 440 c 2,13,-1
 109 610 l 2,14,15
 109 655 109 655 99.5 679.5 c 128,-1,16
 90 704 90 704 54 704 c 2,17,-1
 13 704 l 1,18,-1
 13 760 l 1,19,-1
 116 760 l 2,20,21
 200 760 200 760 242 721.5 c 128,-1,22
 284 683 284 683 284 613 c 2,23,-1
 284 442 l 2,24,25
 284 406 284 406 298 387 c 128,-1,26
 312 368 312 368 335 361.5 c 128,-1,27
 358 355 358 355 386 354 c 1,28,-1
 386 285 l 1,29,30
 358 283 358 283 335 276.5 c 128,-1,31
 312 270 312 270 298 251.5 c 128,-1,32
 284 233 284 233 284 196 c 2,33,-1
 284 26 l 2,34,35
 284 -43 284 -43 242 -83.5 c 128,-1,36
 200 -124 200 -124 116 -124 c 2,37,-1
 13 -124 l 1,0,-1
EndSplineSet
Substitution2: "'smcp' Lowercase to Small Capitals lookup 38 subtable" braceright.sc
Substitution2: "'c2sc' Capitals to Small Capitals lookup 37 subtable" braceright.sc
Substitution2: "'aalt' Access All Alternates lookup 0 subtable" braceright.sc
EndChar

StartChar: asciitilde
Encoding: 126 126 97
Width: 468
Flags: W
LayerCount: 2
Fore
SplineSet
18 259 m 1,0,1
 18 315 18 315 29.5 359 c 128,-1,2
 41 403 41 403 68 428.5 c 128,-1,3
 95 454 95 454 141 454 c 0,4,5
 171 454 171 454 195.5 440 c 128,-1,6
 220 426 220 426 261 386 c 0,7,8
 287 361 287 361 300 349.5 c 128,-1,9
 313 338 313 338 329 338 c 0,10,11
 352 338 352 338 363.5 364 c 128,-1,12
 375 390 375 390 375 454 c 1,13,-1
 451 454 l 1,14,15
 451 397 451 397 440 353 c 128,-1,16
 429 309 429 309 402.5 284 c 128,-1,17
 376 259 376 259 329 259 c 0,18,19
 300 259 300 259 275.5 272 c 128,-1,20
 251 285 251 285 212 324 c 0,21,22
 184 353 184 353 170.5 364 c 128,-1,23
 157 375 157 375 142 375 c 0,24,25
 119 375 119 375 106.5 349 c 128,-1,26
 94 323 94 323 94 259 c 1,27,-1
 18 259 l 1,0,1
EndSplineSet
EndChar

StartChar: cent
Encoding: 162 162 100
Width: 497
Flags: W
LayerCount: 2
Fore
SplineSet
249 0 m 1,0,-1
 249 80 l 1,1,2
 181 85 181 85 133 114 c 128,-1,3
 85 143 85 143 59.5 202 c 128,-1,4
 34 261 34 261 34 357 c 0,5,6
 34 457 34 457 60.5 517 c 128,-1,7
 87 577 87 577 135.5 606 c 128,-1,8
 184 635 184 635 249 640 c 1,9,-1
 249 714 l 1,10,-1
 312 714 l 1,11,-1
 312 640 l 1,12,13
 375 637 375 637 411.5 621 c 128,-1,14
 448 605 448 605 463 582 c 128,-1,15
 478 559 478 559 478 534 c 0,16,17
 478 514 478 514 470.5 492.5 c 128,-1,18
 463 471 463 471 435 455.5 c 128,-1,19
 407 440 407 440 347 440 c 1,20,21
 347 483 347 483 341 520 c 128,-1,22
 335 557 335 557 312 570 c 1,23,-1
 312 162 l 1,24,25
 358 164 358 164 392 188 c 128,-1,26
 426 212 426 212 440 247 c 1,27,28
 455 239 455 239 461.5 225.5 c 128,-1,29
 468 212 468 212 468 198 c 0,30,31
 468 175 468 175 450.5 150 c 128,-1,32
 433 125 433 125 398.5 106 c 128,-1,33
 364 87 364 87 312 82 c 1,34,-1
 312 0 l 1,35,-1
 249 0 l 1,0,-1
249 176 m 1,36,-1
 249 567 l 1,37,38
 225 550 225 550 215.5 501.5 c 128,-1,39
 206 453 206 453 206 358 c 0,40,41
 206 286 206 286 215 240.5 c 128,-1,42
 224 195 224 195 249 176 c 1,36,-1
EndSplineSet
EndChar

StartChar: sterling
Encoding: 163 163 101
Width: 497
Flags: W
LayerCount: 2
Fore
SplineSet
350 -10 m 0,0,1
 314 -10 314 -10 288.5 -2 c 128,-1,2
 263 6 263 6 243 13 c 0,3,4
 217 23 217 23 197 28.5 c 128,-1,5
 177 34 177 34 149 34 c 0,6,7
 125 34 125 34 98.5 24 c 128,-1,8
 72 14 72 14 51 4 c 2,9,-1
 27 -9 l 1,10,-1
 27 65 l 1,11,-1
 56 87 l 2,12,13
 71 98 71 98 88 117.5 c 128,-1,14
 105 137 105 137 117 166.5 c 128,-1,15
 129 196 129 196 129 237 c 0,16,17
 129 265 129 265 124 287 c 128,-1,18
 119 309 119 309 111 334 c 1,19,-1
 7 334 l 1,20,-1
 7 401 l 1,21,-1
 90 401 l 1,22,23
 82 423 82 423 73.5 459 c 128,-1,24
 65 495 65 495 65 532 c 0,25,26
 65 620 65 620 117.5 672 c 128,-1,27
 170 724 170 724 273 724 c 0,28,29
 341 724 341 724 382.5 707.5 c 128,-1,30
 424 691 424 691 443 663.5 c 128,-1,31
 462 636 462 636 462 603 c 0,32,33
 462 567 462 567 433 543 c 128,-1,34
 404 519 404 519 326 519 c 1,35,36
 326 554 326 554 322 586 c 128,-1,37
 318 618 318 618 305.5 638.5 c 128,-1,38
 293 659 293 659 268 659 c 0,39,40
 241 659 241 659 226.5 632 c 128,-1,41
 212 605 212 605 212 547 c 0,42,43
 212 509 212 509 221 466.5 c 128,-1,44
 230 424 230 424 238 401 c 1,45,-1
 399 401 l 1,46,-1
 399 334 l 1,47,-1
 258 335 l 1,48,49
 263 315 263 315 264.5 298 c 128,-1,50
 266 281 266 281 266 264 c 0,51,52
 266 227 266 227 243 191.5 c 128,-1,53
 220 156 220 156 183 126 c 1,54,-1
 186 123 l 1,55,56
 193 127 193 127 209.5 131.5 c 128,-1,57
 226 136 226 136 243 136 c 0,58,59
 261 136 261 136 278.5 132 c 128,-1,60
 296 128 296 128 315 124 c 0,61,62
 331 119 331 119 348 114.5 c 128,-1,63
 365 110 365 110 386 110 c 0,64,65
 412 110 412 110 437 123.5 c 128,-1,66
 462 137 462 137 479 162 c 1,67,-1
 479 64 l 1,68,69
 467 48 467 48 451.5 31 c 128,-1,70
 436 14 436 14 411.5 2 c 128,-1,71
 387 -10 387 -10 350 -10 c 0,0,1
EndSplineSet
EndChar

StartChar: currency
Encoding: 164 164 102
Width: 497
Flags: W
LayerCount: 2
Fore
SplineSet
112 147 m 1,0,-1
 61 202 l 1,1,-1
 108 257 l 1,2,3
 96 278 96 278 91 302.5 c 128,-1,4
 86 327 86 327 86 356 c 0,5,6
 86 383 86 383 92.5 409.5 c 128,-1,7
 99 436 99 436 111 457 c 1,8,-1
 63 516 l 1,9,-1
 112 569 l 1,10,-1
 162 511 l 1,11,12
 180 525 180 525 201.5 532.5 c 128,-1,13
 223 540 223 540 247 540 c 0,14,15
 294 540 294 540 332 509 c 1,16,-1
 384 570 l 1,17,-1
 433 516 l 1,18,-1
 383 455 l 1,19,20
 409 411 409 411 409 356 c 0,21,22
 409 327 409 327 403 302.5 c 128,-1,23
 397 278 397 278 386 257 c 1,24,-1
 433 201 l 1,25,-1
 384 147 l 1,26,-1
 337 203 l 1,27,28
 296 173 296 173 247 173 c 0,29,30
 197 173 197 173 158 201 c 1,31,-1
 112 147 l 1,0,-1
247 244 m 0,32,33
 288 244 288 244 314 276.5 c 128,-1,34
 340 309 340 309 340 356 c 256,35,36
 340 403 340 403 314 435.5 c 128,-1,37
 288 468 288 468 247 468 c 0,38,39
 207 468 207 468 180 435.5 c 128,-1,40
 153 403 153 403 153 356 c 256,41,42
 153 309 153 309 180 276.5 c 128,-1,43
 207 244 207 244 247 244 c 0,32,33
EndSplineSet
EndChar

StartChar: yen
Encoding: 165 165 103
Width: 497
Flags: W
LayerCount: 2
Fore
SplineSet
96 0 m 1,0,-1
 96 58 l 1,1,-1
 116 58 l 2,2,3
 145 58 145 58 157.5 75 c 128,-1,4
 170 92 170 92 170 123 c 2,5,-1
 170 155 l 1,6,-1
 47 155 l 1,7,-1
 47 219 l 1,8,-1
 170 219 l 1,9,-1
 170 277 l 1,10,-1
 47 277 l 1,11,-1
 47 341 l 1,12,-1
 157 341 l 1,13,-1
 56 604 l 2,14,15
 44 634 44 634 34.5 645.5 c 128,-1,16
 25 657 25 657 10 657 c 2,17,-1
 5 657 l 1,18,-1
 5 714 l 1,19,-1
 277 714 l 1,20,-1
 277 657 l 1,21,-1
 271 657 l 2,22,23
 224 657 224 657 224 618 c 0,24,25
 224 606 224 606 228 591.5 c 128,-1,26
 232 577 232 577 238 559 c 2,27,-1
 269 468 l 2,28,29
 288 407 288 407 294 369 c 1,30,31
 298 385 298 385 303 400.5 c 128,-1,32
 308 416 308 416 316 437 c 2,33,-1
 350 537 l 2,34,35
 358 558 358 558 363.5 578.5 c 128,-1,36
 369 599 369 599 369 617 c 0,37,38
 369 637 369 637 356 647 c 128,-1,39
 343 657 343 657 321 657 c 2,40,-1
 319 657 l 1,41,-1
 319 714 l 1,42,-1
 489 714 l 1,43,-1
 489 657 l 1,44,-1
 487 657 l 2,45,46
 469 657 469 657 458 641.5 c 128,-1,47
 447 626 447 626 430 579 c 2,48,-1
 340 341 l 1,49,-1
 460 341 l 1,50,-1
 460 277 l 1,51,-1
 336 277 l 1,52,-1
 336 219 l 1,53,-1
 460 219 l 1,54,-1
 460 155 l 1,55,-1
 336 155 l 1,56,-1
 336 124 l 2,57,58
 336 90 336 90 348.5 74 c 128,-1,59
 361 58 361 58 391 58 c 2,60,-1
 412 58 l 1,61,-1
 412 0 l 1,62,-1
 96 0 l 1,0,-1
EndSplineSet
EndChar

StartChar: brokenbar
Encoding: 166 166 104
Width: 497
Flags: W
LayerCount: 2
Fore
SplineSet
213 360 m 1,0,-1
 213 760 l 1,1,-1
 284 760 l 1,2,-1
 284 360 l 1,3,-1
 213 360 l 1,0,-1
213 -240 m 1,4,-1
 213 160 l 1,5,-1
 284 160 l 1,6,-1
 284 -240 l 1,7,-1
 213 -240 l 1,4,-1
EndSplineSet
EndChar

StartChar: section
Encoding: 167 167 105
Width: 481
Flags: W
LayerCount: 2
Fore
SplineSet
246 -113 m 0,0,1
 185 -113 185 -113 148 -100 c 128,-1,2
 111 -87 111 -87 92 -66.5 c 128,-1,3
 73 -46 73 -46 66.5 -23 c 128,-1,4
 60 0 60 0 60 21 c 0,5,6
 60 59 60 59 83.5 81 c 128,-1,7
 107 103 107 103 156 103 c 1,8,9
 156 31 156 31 183.5 -13.5 c 128,-1,10
 211 -58 211 -58 262 -58 c 0,11,12
 296 -58 296 -58 317 -30.5 c 128,-1,13
 338 -3 338 -3 338 40 c 0,14,15
 338 66 338 66 327 86.5 c 128,-1,16
 316 107 316 107 283.5 131 c 128,-1,17
 251 155 251 155 189 191 c 0,18,19
 113 234 113 234 81 277 c 128,-1,20
 49 320 49 320 49 378 c 0,21,22
 49 410 49 410 65.5 436.5 c 128,-1,23
 82 463 82 463 109 477 c 1,24,25
 95 494 95 494 81.5 525 c 128,-1,26
 68 556 68 556 68 599 c 0,27,28
 68 675 68 675 119.5 717.5 c 128,-1,29
 171 760 171 760 251 760 c 0,30,31
 333 760 333 760 376 728 c 128,-1,32
 419 696 419 696 419 649 c 0,33,34
 419 619 419 619 394 595 c 128,-1,35
 369 571 369 571 320 571 c 1,36,37
 320 600 320 600 314.5 630.5 c 128,-1,38
 309 661 309 661 293.5 682 c 128,-1,39
 278 703 278 703 247 703 c 0,40,41
 215 703 215 703 194 678.5 c 128,-1,42
 173 654 173 654 173 611 c 0,43,44
 173 565 173 565 195 542.5 c 128,-1,45
 217 520 217 520 255 500 c 0,46,47
 326 462 326 462 370 432 c 128,-1,48
 414 402 414 402 435 369.5 c 128,-1,49
 456 337 456 337 456 292 c 0,50,51
 456 256 456 256 438.5 224 c 128,-1,52
 421 192 421 192 396 178 c 1,53,54
 412 156 412 156 420.5 126.5 c 128,-1,55
 429 97 429 97 429 67 c 0,56,57
 429 -11 429 -11 381 -62 c 128,-1,58
 333 -113 333 -113 246 -113 c 0,0,1
346 219 m 1,59,60
 348 224 348 224 350.5 235 c 128,-1,61
 353 246 353 246 353 259 c 0,62,63
 353 293 353 293 331 322.5 c 128,-1,64
 309 352 309 352 249 386 c 0,65,66
 222 401 222 401 197 415 c 128,-1,67
 172 429 172 429 152 444 c 1,68,69
 147 436 147 436 145.5 425 c 128,-1,70
 144 414 144 414 144 403 c 0,71,72
 144 376 144 376 155.5 355.5 c 128,-1,73
 167 335 167 335 193.5 315.5 c 128,-1,74
 220 296 220 296 265 270 c 0,75,76
 296 252 296 252 313.5 239.5 c 128,-1,77
 331 227 331 227 346 219 c 1,59,60
EndSplineSet
EndChar

StartChar: dieresis
Encoding: 168 168 106
Width: 510
Flags: W
LayerCount: 2
Fore
SplineSet
352 619 m 0,0,1
 325 619 325 619 305 634.5 c 128,-1,2
 285 650 285 650 285 689 c 256,3,4
 285 728 285 728 305 743.5 c 128,-1,5
 325 759 325 759 352 759 c 0,6,7
 375 759 375 759 395.5 743.5 c 128,-1,8
 416 728 416 728 416 689 c 256,9,10
 416 650 416 650 395.5 634.5 c 128,-1,11
 375 619 375 619 352 619 c 0,0,1
157 619 m 0,12,13
 133 619 133 619 113 634.5 c 128,-1,14
 93 650 93 650 93 689 c 256,15,16
 93 728 93 728 113 743.5 c 128,-1,17
 133 759 133 759 157 759 c 0,18,19
 182 759 182 759 203 743.5 c 128,-1,20
 224 728 224 728 224 689 c 256,21,22
 224 650 224 650 203 634.5 c 128,-1,23
 182 619 182 619 157 619 c 0,12,13
EndSplineSet
EndChar

StartChar: copyright
Encoding: 169 169 107
Width: 747
Flags: W
LayerCount: 2
Fore
SplineSet
374 -10 m 0,0,1
 275 -10 275 -10 203 38.5 c 128,-1,2
 131 87 131 87 92.5 170.5 c 128,-1,3
 54 254 54 254 54 358 c 0,4,5
 54 463 54 463 93 546 c 128,-1,6
 132 629 132 629 204 677 c 128,-1,7
 276 725 276 725 374 725 c 0,8,9
 473 725 473 725 544 677 c 128,-1,10
 615 629 615 629 654 546 c 128,-1,11
 693 463 693 463 693 358 c 0,12,13
 693 252 693 252 654 169 c 128,-1,14
 615 86 615 86 543.5 38 c 128,-1,15
 472 -10 472 -10 374 -10 c 0,0,1
376 45 m 0,16,17
 457 45 457 45 514.5 85 c 128,-1,18
 572 125 572 125 603 195.5 c 128,-1,19
 634 266 634 266 634 358 c 256,20,21
 634 450 634 450 602.5 520.5 c 128,-1,22
 571 591 571 591 513 631 c 128,-1,23
 455 671 455 671 375 671 c 0,24,25
 294 671 294 671 235 630.5 c 128,-1,26
 176 590 176 590 144.5 519.5 c 128,-1,27
 113 449 113 449 113 358 c 0,28,29
 113 266 113 266 145.5 195 c 128,-1,30
 178 124 178 124 237 84.5 c 128,-1,31
 296 45 296 45 376 45 c 0,16,17
380 109 m 0,32,33
 290 109 290 109 241 175 c 128,-1,34
 192 241 192 241 192 362 c 0,35,36
 192 475 192 475 240 540 c 128,-1,37
 288 605 288 605 386 605 c 0,38,39
 434 605 434 605 464 590 c 128,-1,40
 494 575 494 575 509 552.5 c 128,-1,41
 524 530 524 530 524 507 c 0,42,43
 524 482 524 482 508.5 469.5 c 128,-1,44
 493 457 493 457 472 457 c 1,45,46
 472 495 472 495 454 525 c 128,-1,47
 436 555 436 555 385 555 c 0,48,49
 321 555 321 555 293.5 504.5 c 128,-1,50
 266 454 266 454 266 364 c 0,51,52
 266 264 266 264 297 212 c 128,-1,53
 328 160 328 160 386 160 c 0,54,55
 431 160 431 160 456 182.5 c 128,-1,56
 481 205 481 205 494 239 c 1,57,58
 507 234 507 234 513 227 c 128,-1,59
 519 220 519 220 519 207 c 0,60,61
 519 186 519 186 503.5 163.5 c 128,-1,62
 488 141 488 141 457 125 c 128,-1,63
 426 109 426 109 380 109 c 0,32,33
EndSplineSet
EndChar

StartChar: ordfeminine
Encoding: 170 170 108
Width: 396
GlyphClass: 2
Flags: W
AnchorPoint: "Anchor-1" 190 719 basechar 0
AnchorPoint: "Anchor-0" 184 386 basechar 0
LayerCount: 2
Fore
SplineSet
122 380 m 0,0,1
 76 380 76 380 49 405.5 c 128,-1,2
 22 431 22 431 22 477 c 0,3,4
 22 576 22 576 175 583 c 2,5,-1
 217 585 l 1,6,-1
 217 612 l 2,7,8
 217 639 217 639 211.5 657 c 128,-1,9
 206 675 206 675 184 675 c 0,10,11
 160 675 160 675 154 655.5 c 128,-1,12
 148 636 148 636 148 610 c 1,13,14
 94 610 94 610 70 615.5 c 128,-1,15
 46 621 46 621 46 643 c 0,16,17
 46 677 46 677 82 698 c 128,-1,18
 118 719 118 719 191 719 c 256,19,20
 264 719 264 719 300.5 694.5 c 128,-1,21
 337 670 337 670 337 614 c 2,22,-1
 337 472 l 2,23,24
 337 450 337 450 345.5 442 c 128,-1,25
 354 434 354 434 375 434 c 1,26,-1
 375 386 l 1,27,-1
 254 386 l 1,28,-1
 233 438 l 1,29,-1
 227 438 l 1,30,31
 210 414 210 414 184.5 397 c 128,-1,32
 159 380 159 380 122 380 c 0,0,1
170 443 m 0,33,34
 196 443 196 443 206.5 461 c 128,-1,35
 217 479 217 479 217 505 c 2,36,-1
 217 544 l 1,37,-1
 202 543 l 2,38,39
 142 540 142 540 142 485 c 0,40,41
 142 463 142 463 150.5 453 c 128,-1,42
 159 443 159 443 170 443 c 0,33,34
EndSplineSet
EndChar

StartChar: guillemotleft
Encoding: 171 171 109
Width: 515
Flags: W
LayerCount: 2
Fore
SplineSet
384 67 m 1,0,-1
 249 241 l 1,1,-1
 249 300 l 1,2,-1
 384 474 l 1,3,-1
 459 474 l 1,4,-1
 370 270 l 1,5,-1
 459 67 l 1,6,-1
 384 67 l 1,0,-1
192 67 m 1,7,-1
 57 241 l 1,8,-1
 57 300 l 1,9,-1
 192 474 l 1,10,-1
 267 474 l 1,11,-1
 178 270 l 1,12,-1
 267 67 l 1,13,-1
 192 67 l 1,7,-1
EndSplineSet
EndChar

StartChar: logicalnot
Encoding: 172 172 110
Width: 468
Flags: W
LayerCount: 2
Fore
SplineSet
352 148 m 1,0,-1
 352 323 l 1,1,-1
 42 323 l 1,2,-1
 42 398 l 1,3,-1
 423 398 l 1,4,-1
 423 148 l 1,5,-1
 352 148 l 1,0,-1
EndSplineSet
EndChar

StartChar: registered
Encoding: 174 174 112
Width: 747
Flags: W
LayerCount: 2
Fore
SplineSet
374 -10 m 0,0,1
 275 -10 275 -10 203 38.5 c 128,-1,2
 131 87 131 87 92.5 170.5 c 128,-1,3
 54 254 54 254 54 358 c 0,4,5
 54 463 54 463 93 546 c 128,-1,6
 132 629 132 629 204 677 c 128,-1,7
 276 725 276 725 374 725 c 0,8,9
 473 725 473 725 544 677 c 128,-1,10
 615 629 615 629 654 546 c 128,-1,11
 693 463 693 463 693 358 c 0,12,13
 693 252 693 252 654 169 c 128,-1,14
 615 86 615 86 543.5 38 c 128,-1,15
 472 -10 472 -10 374 -10 c 0,0,1
376 43 m 0,16,17
 457 43 457 43 515 83.5 c 128,-1,18
 573 124 573 124 604.5 195 c 128,-1,19
 636 266 636 266 636 358 c 0,20,21
 636 451 636 451 604.5 521.5 c 128,-1,22
 573 592 573 592 514.5 632 c 128,-1,23
 456 672 456 672 375 672 c 0,24,25
 293 672 293 672 234 631.5 c 128,-1,26
 175 591 175 591 143 520.5 c 128,-1,27
 111 450 111 450 111 358 c 0,28,29
 111 265 111 265 143.5 194 c 128,-1,30
 176 123 176 123 236 83 c 128,-1,31
 296 43 296 43 376 43 c 0,16,17
202 141 m 1,32,-1
 202 176 l 1,33,-1
 213 176 l 2,34,35
 230 176 230 176 242.5 182 c 128,-1,36
 255 188 255 188 255 211 c 2,37,-1
 255 502 l 2,38,39
 255 525 255 525 242.5 531 c 128,-1,40
 230 537 230 537 213 537 c 2,41,-1
 202 537 l 1,42,-1
 202 575 l 1,43,-1
 362 575 l 2,44,45
 515 575 515 575 515 454 c 0,46,47
 515 406 515 406 489.5 380 c 128,-1,48
 464 354 464 354 433 343 c 1,49,-1
 512 202 l 2,50,51
 520 186 520 186 529.5 181 c 128,-1,52
 539 176 539 176 560 176 c 1,53,-1
 560 141 l 1,54,-1
 467 141 l 1,55,-1
 368 327 l 1,56,-1
 324 327 l 1,57,-1
 324 211 l 2,58,59
 324 188 324 188 337 182 c 128,-1,60
 350 176 350 176 367 176 c 2,61,-1
 380 176 l 1,62,-1
 380 141 l 1,63,-1
 202 141 l 1,32,-1
324 371 m 1,64,-1
 361 371 l 2,65,66
 408 371 408 371 425 391 c 128,-1,67
 442 411 442 411 442 453 c 0,68,69
 442 496 442 496 423 514.5 c 128,-1,70
 404 533 404 533 358 533 c 2,71,-1
 324 533 l 1,72,-1
 324 371 l 1,64,-1
EndSplineSet
EndChar

StartChar: overscore
Encoding: 175 175 113
Width: 405
Flags: W
LayerCount: 2
Fore
SplineSet
-5 760 m 1,0,-1
 -5 819 l 1,1,-1
 409 819 l 1,2,-1
 409 760 l 1,3,-1
 -5 760 l 1,0,-1
EndSplineSet
Substitution2: "'smcp' Lowercase to Small Capitals lookup 38 subtable" overscore.sc
Substitution2: "'c2sc' Capitals to Small Capitals lookup 37 subtable" overscore.sc
Substitution2: "'aalt' Access All Alternates lookup 0 subtable" overscore.sc
EndChar

StartChar: degree
Encoding: 176 176 114
Width: 354
Flags: W
LayerCount: 2
Fore
SplineSet
176 418 m 0,0,1
 112 418 112 418 75 462 c 128,-1,2
 38 506 38 506 38 575 c 256,3,4
 38 644 38 644 75 688.5 c 128,-1,5
 112 733 112 733 176 733 c 0,6,7
 239 733 239 733 277 688.5 c 128,-1,8
 315 644 315 644 315 575 c 256,9,10
 315 506 315 506 277 462 c 128,-1,11
 239 418 239 418 176 418 c 0,0,1
178 481 m 0,12,13
 212 481 212 481 230.5 508 c 128,-1,14
 249 535 249 535 249 577 c 0,15,16
 249 620 249 620 230.5 646 c 128,-1,17
 212 672 212 672 178 672 c 0,18,19
 143 672 143 672 123.5 646 c 128,-1,20
 104 620 104 620 104 577 c 0,21,22
 104 535 104 535 123 508 c 128,-1,23
 142 481 142 481 178 481 c 0,12,13
EndSplineSet
EndChar

StartChar: plusminus
Encoding: 177 177 115
Width: 468
Flags: W
LayerCount: 2
Fore
SplineSet
195 141 m 1,0,-1
 195 320 l 1,1,-1
 42 320 l 1,2,-1
 42 395 l 1,3,-1
 195 395 l 1,4,-1
 195 574 l 1,5,-1
 273 574 l 1,6,-1
 273 395 l 1,7,-1
 426 395 l 1,8,-1
 426 320 l 1,9,-1
 273 320 l 1,10,-1
 273 141 l 1,11,-1
 195 141 l 1,0,-1
42 0 m 1,12,-1
 42 75 l 1,13,-1
 426 75 l 1,14,-1
 426 0 l 1,15,-1
 42 0 l 1,12,-1
EndSplineSet
EndChar

StartChar: uni00B2
Encoding: 178 178 116
Width: 353
Flags: W
LayerCount: 2
Fore
SplineSet
20 387 m 1,0,-1
 20 475 l 1,1,-1
 105 556 l 2,2,3
 154 602 154 602 178.5 635 c 128,-1,4
 203 668 203 668 203 711 c 0,5,6
 203 739 203 739 192 755 c 128,-1,7
 181 771 181 771 161 771 c 0,8,9
 130 771 130 771 123 744.5 c 128,-1,10
 116 718 116 718 116 682 c 1,11,12
 63 682 63 682 43 694.5 c 128,-1,13
 23 707 23 707 23 734 c 0,14,15
 23 771 23 771 59.5 798 c 128,-1,16
 96 825 96 825 175 825 c 0,17,18
 258 825 258 825 292.5 790.5 c 128,-1,19
 327 756 327 756 327 706 c 0,20,21
 327 672 327 672 311.5 645 c 128,-1,22
 296 618 296 618 257 588 c 128,-1,23
 218 558 218 558 147 515 c 1,24,-1
 97 481 l 1,25,-1
 257 481 l 2,26,27
 273 481 273 481 281.5 489 c 128,-1,28
 290 497 290 497 293 511 c 2,29,-1
 298 541 l 1,30,-1
 332 541 l 1,31,-1
 328 387 l 1,32,-1
 20 387 l 1,0,-1
EndSplineSet
EndChar

StartChar: uni00B3
Encoding: 179 179 117
Width: 353
Flags: W
LayerCount: 2
Fore
SplineSet
156 380 m 0,0,1
 80 380 80 380 46.5 406.5 c 128,-1,2
 13 433 13 433 13 470 c 0,3,4
 13 521 13 521 86 521 c 1,5,6
 86 483 86 483 100.5 460.5 c 128,-1,7
 115 438 115 438 144 438 c 0,8,9
 170 438 170 438 188 454 c 128,-1,10
 206 470 206 470 206 513 c 0,11,12
 206 543 206 543 190 562 c 128,-1,13
 174 581 174 581 132 581 c 2,14,-1
 99 581 l 1,15,-1
 99 636 l 1,16,-1
 132 636 l 2,17,18
 165 636 165 636 180 656.5 c 128,-1,19
 195 677 195 677 195 715 c 0,20,21
 195 742 195 742 184.5 758 c 128,-1,22
 174 774 174 774 155 774 c 0,23,24
 126 774 126 774 119.5 749.5 c 128,-1,25
 113 725 113 725 113 689 c 1,26,27
 71 689 71 689 49 700 c 128,-1,28
 27 711 27 711 27 737 c 0,29,30
 27 773 27 773 61 798.5 c 128,-1,31
 95 824 95 824 173 824 c 0,32,33
 252 824 252 824 286 796 c 128,-1,34
 320 768 320 768 320 722 c 0,35,36
 320 678 320 678 293 652.5 c 128,-1,37
 266 627 266 627 230 616 c 1,38,-1
 230 612 l 1,39,40
 257 608 257 608 281 596.5 c 128,-1,41
 305 585 305 585 320 564.5 c 128,-1,42
 335 544 335 544 335 510 c 0,43,44
 335 451 335 451 291 415.5 c 128,-1,45
 247 380 247 380 156 380 c 0,0,1
EndSplineSet
EndChar

StartChar: acute
Encoding: 180 180 118
Width: 344
Flags: W
LayerCount: 2
Fore
SplineSet
40 606 m 1,0,-1
 40 619 l 1,1,2
 53 639 53 639 71 664.5 c 128,-1,3
 89 690 89 690 106 717 c 128,-1,4
 123 744 123 744 132 766 c 1,5,-1
 304 766 l 1,6,-1
 304 756 l 1,7,8
 295 743 295 743 274.5 723.5 c 128,-1,9
 254 704 254 704 226.5 682 c 128,-1,10
 199 660 199 660 171 640 c 128,-1,11
 143 620 143 620 120 606 c 1,12,-1
 40 606 l 1,0,-1
EndSplineSet
EndChar

StartChar: uni00B5
Encoding: 181 181 119
Width: 621
Flags: W
LayerCount: 2
Fore
SplineSet
160 -240 m 0,0,1
 123 -240 123 -240 95.5 -210 c 128,-1,2
 68 -180 68 -180 68 -104 c 0,3,4
 68 -64 68 -64 70.5 -20 c 128,-1,5
 73 24 73 24 75.5 83 c 128,-1,6
 78 142 78 142 79 225 c 2,7,-1
 79 536 l 1,8,-1
 251 536 l 1,9,-1
 251 206 l 2,10,11
 251 157 251 157 262 120 c 128,-1,12
 273 83 273 83 303 83 c 0,13,14
 331 83 331 83 347 125 c 128,-1,15
 363 167 363 167 363 235 c 2,16,-1
 363 536 l 1,17,-1
 536 536 l 1,18,-1
 536 140 l 2,19,20
 536 94 536 94 548 76 c 128,-1,21
 560 58 560 58 599 58 c 2,22,-1
 607 58 l 1,23,-1
 607 0 l 1,24,-1
 509 0 l 2,25,26
 457 0 457 0 421.5 26.5 c 128,-1,27
 386 53 386 53 373 93 c 1,28,-1
 368 93 l 1,29,30
 347 46 347 46 321 18 c 128,-1,31
 295 -10 295 -10 248 -10 c 0,32,33
 212 -10 212 -10 186.5 6 c 128,-1,34
 161 22 161 22 144 50 c 1,35,36
 143 -10 143 -10 151 -54 c 128,-1,37
 159 -98 159 -98 183.5 -124.5 c 128,-1,38
 208 -151 208 -151 256 -157 c 1,39,40
 256 -193 256 -193 229 -216.5 c 128,-1,41
 202 -240 202 -240 160 -240 c 0,0,1
EndSplineSet
EndChar

StartChar: paragraph
Encoding: 182 182 120
Width: 560
Flags: W
LayerCount: 2
Fore
SplineSet
149 -111 m 1,0,-1
 149 -53 l 1,1,-1
 160 -53 l 2,2,3
 180 -53 180 -53 196.5 -49 c 128,-1,4
 213 -45 213 -45 223 -30 c 128,-1,5
 233 -15 233 -15 233 17 c 2,6,-1
 233 386 l 1,7,-1
 171 386 l 2,8,9
 119 386 119 386 89.5 413.5 c 128,-1,10
 60 441 60 441 47.5 485.5 c 128,-1,11
 35 530 35 530 35 582 c 0,12,13
 35 662 35 662 66 711 c 128,-1,14
 97 760 97 760 173 760 c 2,15,-1
 526 760 l 1,16,-1
 526 703 l 1,17,-1
 514 703 l 2,18,19
 485 703 485 703 463.5 690.5 c 128,-1,20
 442 678 442 678 442 631 c 2,21,-1
 442 17 l 2,22,23
 442 -15 442 -15 452 -30 c 128,-1,24
 462 -45 462 -45 478 -49 c 128,-1,25
 494 -53 494 -53 514 -53 c 2,26,-1
 526 -53 l 1,27,-1
 526 -111 l 1,28,-1
 371 -111 l 1,29,-1
 371 694 l 1,30,-1
 304 694 l 1,31,-1
 304 -111 l 1,32,-1
 149 -111 l 1,0,-1
EndSplineSet
EndChar

StartChar: periodcentered
Encoding: 183 183 121
Width: 289
Flags: W
LayerCount: 2
Fore
SplineSet
144 270 m 0,0,1
 108 270 108 270 83.5 289 c 128,-1,2
 59 308 59 308 59 355 c 0,3,4
 59 403 59 403 83.5 421 c 128,-1,5
 108 439 108 439 144 439 c 0,6,7
 178 439 178 439 204 421 c 128,-1,8
 230 403 230 403 230 355 c 0,9,10
 230 308 230 308 204 289 c 128,-1,11
 178 270 178 270 144 270 c 0,0,1
EndSplineSet
EndChar

StartChar: cedilla
Encoding: 184 184 122
Width: 294
Flags: W
LayerCount: 2
Fore
SplineSet
120 -239 m 0,0,1
 107 -239 107 -239 80.5 -236 c 128,-1,2
 54 -233 54 -233 37 -228 c 1,3,-1
 37 -164 l 1,4,5
 72 -172 72 -172 98 -172 c 0,6,7
 123 -172 123 -172 137.5 -164.5 c 128,-1,8
 152 -157 152 -157 152 -130 c 0,9,10
 152 -101 152 -101 133 -93.5 c 128,-1,11
 114 -86 114 -86 86 -83 c 1,12,-1
 104 9 l 1,13,-1
 160 9 l 1,14,-1
 152 -35 l 1,15,16
 195 -38 195 -38 224 -62 c 128,-1,17
 253 -86 253 -86 253 -127 c 0,18,19
 253 -179 253 -179 215 -209 c 128,-1,20
 177 -239 177 -239 120 -239 c 0,0,1
EndSplineSet
EndChar

StartChar: uni00B9
Encoding: 185 185 123
Width: 353
Flags: W
LayerCount: 2
Fore
SplineSet
40 387 m 1,0,-1
 40 443 l 1,1,-1
 81 443 l 2,2,3
 99 443 99 443 114 453.5 c 128,-1,4
 129 464 129 464 129 489 c 2,5,-1
 129 749 l 1,6,7
 110 719 110 719 94 698.5 c 128,-1,8
 78 678 78 678 62 678 c 0,9,10
 41 678 41 678 29 694.5 c 128,-1,11
 17 711 17 711 17 738 c 1,12,13
 29 740 29 740 49 751.5 c 128,-1,14
 69 763 69 763 87 777 c 2,15,-1
 142 819 l 1,16,-1
 245 819 l 1,17,-1
 245 489 l 2,18,19
 245 464 245 464 257.5 453.5 c 128,-1,20
 270 443 270 443 288 443 c 2,21,-1
 326 443 l 1,22,-1
 326 387 l 1,23,-1
 40 387 l 1,0,-1
EndSplineSet
EndChar

StartChar: ordmasculine
Encoding: 186 186 124
Width: 411
GlyphClass: 2
Flags: W
AnchorPoint: "Anchor-1" 209 719 basechar 0
AnchorPoint: "Anchor-0" 207 383 basechar 0
LayerCount: 2
Fore
SplineSet
206 380 m 0,0,1
 122 380 122 380 76.5 422.5 c 128,-1,2
 31 465 31 465 31 550 c 0,3,4
 31 719 31 719 208 719 c 0,5,6
 288 719 288 719 334.5 677.5 c 128,-1,7
 381 636 381 636 381 550 c 0,8,9
 381 465 381 465 336 422.5 c 128,-1,10
 291 380 291 380 206 380 c 0,0,1
207 433 m 0,11,12
 235 433 235 433 247 462.5 c 128,-1,13
 259 492 259 492 259 550 c 0,14,15
 259 607 259 607 246.5 635.5 c 128,-1,16
 234 664 234 664 206 664 c 0,17,18
 177 664 177 664 165.5 635.5 c 128,-1,19
 154 607 154 607 154 550 c 0,20,21
 154 492 154 492 165.5 462.5 c 128,-1,22
 177 433 177 433 207 433 c 0,11,12
EndSplineSet
EndChar

StartChar: guillemotright
Encoding: 187 187 125
Width: 515
Flags: W
LayerCount: 2
Fore
SplineSet
249 67 m 1,0,-1
 338 270 l 1,1,-1
 249 474 l 1,2,-1
 324 474 l 1,3,-1
 459 300 l 1,4,-1
 459 241 l 1,5,-1
 324 67 l 1,6,-1
 249 67 l 1,0,-1
57 67 m 1,7,-1
 146 270 l 1,8,-1
 57 474 l 1,9,-1
 133 474 l 1,10,-1
 267 300 l 1,11,-1
 267 241 l 1,12,-1
 133 67 l 1,13,-1
 57 67 l 1,7,-1
EndSplineSet
EndChar

StartChar: Aring
Encoding: 197 197 135
Width: 696
GlyphClass: 2
Flags: W
AnchorPoint: "Anchor-1" 349 875 basechar 0
AnchorPoint: "Anchor-0" 349 0 basechar 0
LayerCount: 2
Fore
SplineSet
6 0 m 1,0,-1
 6 58 l 1,1,-1
 12 58 l 2,2,3
 35 58 35 58 53 71 c 128,-1,4
 71 84 71 84 85 128 c 2,5,-1
 265 687 l 1,6,7
 247 716 247 716 247 766 c 0,8,9
 247 819 247 819 277.5 847 c 128,-1,10
 308 875 308 875 353 875 c 0,11,12
 397 875 397 875 428 847 c 128,-1,13
 459 819 459 819 459 766 c 0,14,15
 459 717 459 717 441 687 c 1,16,-1
 608 137 l 2,17,18
 623 91 623 91 641.5 74.5 c 128,-1,19
 660 58 660 58 677 58 c 2,20,-1
 696 58 l 1,21,-1
 696 0 l 1,22,-1
 369 0 l 1,23,-1
 369 58 l 1,24,-1
 414 58 l 2,25,26
 417 58 417 58 429 65.5 c 128,-1,27
 441 73 441 73 441 91 c 0,28,29
 441 105 441 105 438 119 c 128,-1,30
 435 133 435 133 432 140 c 2,31,-1
 405 233 l 1,32,-1
 203 233 l 1,33,-1
 183 157 l 2,34,35
 180 145 180 145 175.5 125.5 c 128,-1,36
 171 106 171 106 171 92 c 0,37,38
 171 76 171 76 181.5 67 c 128,-1,39
 192 58 192 58 196 58 c 2,40,-1
 246 58 l 1,41,-1
 246 0 l 1,42,-1
 6 0 l 1,0,-1
353 714 m 0,43,44
 372 714 372 714 386 726 c 128,-1,45
 400 738 400 738 400 766 c 0,46,47
 400 795 400 795 385.5 806.5 c 128,-1,48
 371 818 371 818 353 818 c 0,49,50
 333 818 333 818 319 806.5 c 128,-1,51
 305 795 305 795 305 766 c 0,52,53
 305 715 305 715 353 714 c 0,43,44
223 299 m 1,54,-1
 385 299 l 1,55,-1
 345 460 l 2,56,57
 338 489 338 489 328 532.5 c 128,-1,58
 318 576 318 576 311 609 c 1,59,60
 305 591 305 591 297 563.5 c 128,-1,61
 289 536 289 536 281 509 c 128,-1,62
 273 482 273 482 268 463 c 2,63,-1
 223 299 l 1,54,-1
EndSplineSet
Substitution2: "'c2sc' Capitals to Small Capitals lookup 37 subtable" aring.sc
Substitution2: "'aalt' Access All Alternates lookup 0 subtable" aring.sc
EndChar

StartChar: AE
Encoding: 198 198 136
Width: 905
GlyphClass: 2
Flags: W
AnchorPoint: "Anchor-1" 453 714 basechar 0
AnchorPoint: "Anchor-0" 453 0 basechar 0
LayerCount: 2
Fore
SplineSet
0 0 m 1,0,-1
 0 58 l 1,1,-1
 8 58 l 2,2,3
 31 58 31 58 49.5 77 c 128,-1,4
 68 96 68 96 87 137 c 2,5,-1
 330 652 l 1,6,-1
 279 657 l 1,7,-1
 279 714 l 1,8,-1
 851 714 l 1,9,-1
 853 526 l 1,10,-1
 779 526 l 1,11,-1
 775 574 l 2,12,13
 772 613 772 613 759.5 631 c 128,-1,14
 747 649 747 649 716 649 c 2,15,-1
 584 649 l 1,16,-1
 584 406 l 1,17,-1
 792 406 l 1,18,-1
 792 341 l 1,19,-1
 584 341 l 1,20,-1
 584 66 l 1,21,-1
 742 66 l 2,22,23
 770 66 770 66 784.5 86.5 c 128,-1,24
 799 107 799 107 804 140 c 2,25,-1
 811 188 l 1,26,-1
 883 188 l 1,27,-1
 877 0 l 1,28,-1
 326 0 l 1,29,-1
 326 58 l 1,30,-1
 356 58 l 2,31,32
 384 58 384 58 396 72 c 128,-1,33
 408 86 408 86 408 123 c 2,34,-1
 408 226 l 1,35,-1
 204 226 l 1,36,-1
 175 150 l 2,37,38
 162 115 162 115 162 97 c 0,39,40
 162 58 162 58 213 58 c 2,41,-1
 226 58 l 1,42,-1
 226 0 l 1,43,-1
 0 0 l 1,0,-1
236 289 m 1,44,-1
 408 289 l 1,45,-1
 408 649 l 1,46,-1
 402 649 l 1,47,-1
 236 289 l 1,44,-1
EndSplineSet
Substitution2: "'c2sc' Capitals to Small Capitals lookup 37 subtable" ae.sc
Substitution2: "'aalt' Access All Alternates lookup 0 subtable" ae.sc
EndChar

StartChar: Eth
Encoding: 208 208 146
Width: 704
GlyphClass: 2
Flags: W
AnchorPoint: "Anchor-1" 352 714 basechar 0
AnchorPoint: "Anchor-0" 352 0 basechar 0
LayerCount: 2
Fore
SplineSet
19 0 m 1,0,-1
 19 58 l 1,1,-1
 66 58 l 2,2,3
 82 58 82 58 91 73 c 128,-1,4
 100 88 100 88 100 114 c 2,5,-1
 100 341 l 1,6,-1
 34 341 l 1,7,-1
 34 406 l 1,8,-1
 100 406 l 1,9,-1
 100 600 l 2,10,11
 100 631 100 631 88.5 644 c 128,-1,12
 77 657 77 657 58 657 c 2,13,-1
 19 657 l 1,14,-1
 19 714 l 1,15,-1
 326 714 l 2,16,17
 480 714 480 714 568.5 629.5 c 128,-1,18
 657 545 657 545 657 375 c 0,19,20
 657 265 657 265 619.5 180.5 c 128,-1,21
 582 96 582 96 508 48 c 128,-1,22
 434 0 434 0 326 0 c 2,23,-1
 19 0 l 1,0,-1
276 67 m 1,24,-1
 305 67 l 2,25,26
 385 67 385 67 427 150.5 c 128,-1,27
 469 234 469 234 469 375 c 256,28,29
 469 516 469 516 427 582.5 c 128,-1,30
 385 649 385 649 305 649 c 2,31,-1
 276 649 l 1,32,-1
 276 406 l 1,33,-1
 357 406 l 1,34,-1
 357 341 l 1,35,-1
 276 341 l 1,36,-1
 276 67 l 1,24,-1
EndSplineSet
Substitution2: "'c2sc' Capitals to Small Capitals lookup 37 subtable" eth.sc
Substitution2: "'aalt' Access All Alternates lookup 0 subtable" eth.sc
EndChar

StartChar: multiply
Encoding: 215 215 153
Width: 468
Flags: W
LayerCount: 2
Fore
SplineSet
106 161 m 1,0,-1
 51 211 l 1,1,-1
 183 360 l 1,2,-1
 51 507 l 1,3,-1
 107 556 l 1,4,-1
 233 415 l 1,5,-1
 358 554 l 1,6,-1
 413 505 l 1,7,-1
 283 359 l 1,8,-1
 413 213 l 1,9,-1
 359 163 l 1,10,-1
 233 303 l 1,11,-1
 106 161 l 1,0,-1
EndSplineSet
EndChar

StartChar: Oslash
Encoding: 216 216 154
Width: 725
GlyphClass: 2
Flags: W
AnchorPoint: "Anchor-1" 362 714 basechar 0
AnchorPoint: "Anchor-0" 362 0 basechar 0
LayerCount: 2
Fore
SplineSet
143 -40 m 1,0,-1
 180 41 l 1,1,2
 114 86 114 86 81 168 c 128,-1,3
 48 250 48 250 48 359 c 0,4,5
 48 470 48 470 82.5 552 c 128,-1,6
 117 634 117 634 187.5 679.5 c 128,-1,7
 258 725 258 725 364 725 c 0,8,9
 399 725 399 725 430 719.5 c 128,-1,10
 461 714 461 714 489 703 c 1,11,-1
 513 755 l 1,12,-1
 584 755 l 1,13,-1
 545 672 l 1,14,15
 610 627 610 627 643.5 546 c 128,-1,16
 677 465 677 465 677 358 c 0,17,18
 677 247 677 247 640.5 164.5 c 128,-1,19
 604 82 604 82 534 36 c 128,-1,20
 464 -10 464 -10 363 -10 c 0,21,22
 293 -10 293 -10 237 11 c 1,23,-1
 214 -40 l 1,24,-1
 143 -40 l 1,0,-1
249 186 m 1,25,-1
 446 611 l 1,26,27
 415 656 415 656 364 656 c 0,28,29
 293 656 293 656 263.5 577.5 c 128,-1,30
 234 499 234 499 234 358 c 0,31,32
 234 307 234 307 237.5 263.5 c 128,-1,33
 241 220 241 220 249 186 c 1,25,-1
363 60 m 0,34,35
 434 60 434 60 463 138.5 c 128,-1,36
 492 217 492 217 492 358 c 0,37,38
 492 409 492 409 488.5 452 c 128,-1,39
 485 495 485 495 478 529 c 1,40,-1
 281 105 l 1,41,42
 311 60 311 60 363 60 c 0,34,35
EndSplineSet
Substitution2: "'c2sc' Capitals to Small Capitals lookup 37 subtable" oslash.sc
Substitution2: "'aalt' Access All Alternates lookup 0 subtable" oslash.sc
EndChar

StartChar: Thorn
Encoding: 222 222 160
Width: 586
GlyphClass: 2
Flags: W
AnchorPoint: "Anchor-1" 294 714 basechar 0
AnchorPoint: "Anchor-0" 294 0 basechar 0
LayerCount: 2
Fore
SplineSet
19 0 m 1,0,-1
 19 58 l 1,1,-1
 66 58 l 2,2,3
 77 58 77 58 88.5 70 c 128,-1,4
 100 82 100 82 100 109 c 2,5,-1
 100 601 l 2,6,7
 100 631 100 631 88.5 644 c 128,-1,8
 77 657 77 657 66 657 c 2,9,-1
 19 657 l 1,10,-1
 19 714 l 1,11,-1
 359 714 l 1,12,-1
 359 657 l 1,13,-1
 310 657 l 2,14,15
 277 657 277 657 277 603 c 2,16,-1
 277 589 l 1,17,-1
 306 589 l 2,18,19
 438 589 438 589 502 529 c 128,-1,20
 566 469 566 469 566 371 c 0,21,22
 566 311 566 311 538.5 257.5 c 128,-1,23
 511 204 511 204 449.5 170.5 c 128,-1,24
 388 137 388 137 287 137 c 2,25,-1
 277 137 l 1,26,-1
 277 111 l 2,27,28
 277 85 277 85 287 71.5 c 128,-1,29
 297 58 297 58 310 58 c 2,30,-1
 359 58 l 1,31,-1
 359 0 l 1,32,-1
 19 0 l 1,0,-1
277 200 m 1,33,-1
 289 200 l 2,34,35
 335 200 335 200 356 239.5 c 128,-1,36
 377 279 377 279 377 367 c 0,37,38
 377 445 377 445 357.5 484.5 c 128,-1,39
 338 524 338 524 292 524 c 2,40,-1
 277 524 l 1,41,-1
 277 200 l 1,33,-1
EndSplineSet
Substitution2: "'c2sc' Capitals to Small Capitals lookup 37 subtable" thorn.sc
Substitution2: "'aalt' Access All Alternates lookup 0 subtable" thorn.sc
EndChar

StartChar: germandbls
Encoding: 223 223 161
Width: 662
GlyphClass: 2
Flags: W
AnchorPoint: "Anchor-1" 332 773 basechar 0
AnchorPoint: "Anchor-0" 332 0 basechar 0
LayerCount: 2
Fore
SplineSet
438 -10 m 0,0,1
 350 -10 350 -10 312.5 24.5 c 128,-1,2
 275 59 275 59 275 108 c 0,3,4
 275 144 275 144 294 160 c 128,-1,5
 313 176 313 176 343 176 c 1,6,7
 354 118 354 118 378.5 85.5 c 128,-1,8
 403 53 403 53 442 53 c 0,9,10
 462 53 462 53 476 69.5 c 128,-1,11
 490 86 490 86 490 118 c 0,12,13
 490 149 490 149 469 174 c 128,-1,14
 448 199 448 199 398 228 c 0,15,16
 340 261 340 261 314 297.5 c 128,-1,17
 288 334 288 334 288 391 c 0,18,19
 288 444 288 444 308.5 476 c 128,-1,20
 329 508 329 508 361 524.5 c 128,-1,21
 393 541 393 541 428 546 c 1,22,23
 427 641 427 641 404 676.5 c 128,-1,24
 381 712 381 712 338 712 c 0,25,26
 299 712 299 712 273.5 679 c 128,-1,27
 248 646 248 646 248 570 c 2,28,-1
 248 0 l 1,29,-1
 -5 0 l 1,30,-1
 -5 58 l 1,31,-1
 52 58 l 2,32,33
 63 58 63 58 70 68 c 128,-1,34
 77 78 77 78 77 120 c 2,35,-1
 77 457 l 1,36,-1
 7 457 l 1,37,-1
 7 536 l 1,38,-1
 77 536 l 1,39,-1
 77 538 l 2,40,41
 77 626 77 626 111.5 677 c 128,-1,42
 146 728 146 728 204.5 750.5 c 128,-1,43
 263 773 263 773 336 773 c 0,44,45
 472 773 472 773 528.5 704 c 128,-1,46
 585 635 585 635 586 492 c 1,47,-1
 529 492 l 2,48,49
 489 492 489 492 461.5 476.5 c 128,-1,50
 434 461 434 461 434 422 c 0,51,52
 434 385 434 385 452.5 367 c 128,-1,53
 471 349 471 349 512 324 c 0,54,55
 542 304 542 304 569.5 282 c 128,-1,56
 597 260 597 260 613.5 229.5 c 128,-1,57
 630 199 630 199 630 157 c 0,58,59
 630 76 630 76 579.5 33 c 128,-1,60
 529 -10 529 -10 438 -10 c 0,0,1
EndSplineSet
Substitution2: "'smcp' Lowercase to Small Capitals lookup 38 subtable" germandbls.sc
Substitution2: "'aalt' Access All Alternates lookup 0 subtable" germandbls.sc
EndChar

StartChar: ae
Encoding: 230 230 168
Width: 796
GlyphClass: 2
Flags: W
AnchorPoint: "Anchor-1" 398 536 basechar 0
AnchorPoint: "Anchor-0" 398 0 basechar 0
LayerCount: 2
Fore
SplineSet
189 -10 m 0,0,1
 124 -10 124 -10 80 29 c 128,-1,2
 36 68 36 68 36 154 c 0,3,4
 36 236 36 236 84.5 275 c 128,-1,5
 133 314 133 314 231 318 c 2,6,-1
 303 321 l 1,7,-1
 303 374 l 2,8,9
 303 423 303 423 293 454 c 128,-1,10
 283 485 283 485 260 485 c 0,11,12
 233 485 233 485 222 454 c 128,-1,13
 211 423 211 423 211 377 c 1,14,15
 136 377 136 377 104.5 393 c 128,-1,16
 73 409 73 409 73 446 c 256,17,18
 73 483 73 483 99.5 506 c 128,-1,19
 126 529 126 529 169 539.5 c 128,-1,20
 212 550 212 550 262 550 c 0,21,22
 361 550 361 550 411 495 c 1,23,24
 437 520 437 520 473.5 535 c 128,-1,25
 510 550 510 550 558 550 c 0,26,27
 649 550 649 550 706.5 488.5 c 128,-1,28
 764 427 764 427 764 308 c 2,29,-1
 764 256 l 1,30,-1
 478 256 l 1,31,32
 479 159 479 159 508.5 114 c 128,-1,33
 538 69 538 69 595 69 c 0,34,35
 641 69 641 69 667.5 94.5 c 128,-1,36
 694 120 694 120 708 158 c 1,37,38
 725 154 725 154 736 141.5 c 128,-1,39
 747 129 747 129 747 111 c 0,40,41
 747 82 747 82 727.5 54.5 c 128,-1,42
 708 27 708 27 665 8.5 c 128,-1,43
 622 -10 622 -10 551 -10 c 0,44,45
 484 -10 484 -10 436 12.5 c 128,-1,46
 388 35 388 35 358 78 c 1,47,48
 328 37 328 37 287.5 13.5 c 128,-1,49
 247 -10 247 -10 189 -10 c 0,0,1
480 323 m 1,50,-1
 595 323 l 1,51,52
 595 398 595 398 583 440 c 128,-1,53
 571 482 571 482 545 482 c 0,54,55
 517 482 517 482 498.5 441.5 c 128,-1,56
 480 401 480 401 480 323 c 1,50,-1
246 66 m 0,57,58
 272 66 272 66 288 100 c 128,-1,59
 304 134 304 134 304 191 c 2,60,-1
 304 264 l 1,61,-1
 277 261 l 2,62,63
 240 257 240 257 226 230 c 128,-1,64
 212 203 212 203 212 151 c 0,65,66
 212 66 212 66 246 66 c 0,57,58
EndSplineSet
Substitution2: "'smcp' Lowercase to Small Capitals lookup 38 subtable" ae.sc
Substitution2: "'aalt' Access All Alternates lookup 0 subtable" ae.sc
EndChar

StartChar: eth
Encoding: 240 240 178
Width: 565
GlyphClass: 2
Flags: W
AnchorPoint: "Anchor-1" 283 762 basechar 0
AnchorPoint: "Anchor-0" 283 0 basechar 0
LayerCount: 2
Fore
SplineSet
280 -10 m 0,0,1
 166 -10 166 -10 101 56.5 c 128,-1,2
 36 123 36 123 36 257 c 256,3,4
 36 391 36 391 92 458 c 128,-1,5
 148 525 148 525 244 525 c 0,6,7
 280 525 280 525 306.5 515.5 c 128,-1,8
 333 506 333 506 346 494 c 1,9,10
 336 526 336 526 318 557.5 c 128,-1,11
 300 589 300 589 272 613 c 1,12,-1
 146 547 l 1,13,-1
 146 615 l 1,14,-1
 219 655 l 1,15,16
 197 671 197 671 170 679.5 c 128,-1,17
 143 688 143 688 121 692 c 1,18,-1
 121 761 l 1,19,20
 160 756 160 756 209.5 743.5 c 128,-1,21
 259 731 259 731 308 703 c 1,22,-1
 418 762 l 1,23,-1
 418 692 l 1,24,-1
 373 664 l 1,25,26
 447 604 447 604 488 513.5 c 128,-1,27
 529 423 529 423 529 290 c 0,28,29
 529 138 529 138 465 64 c 128,-1,30
 401 -10 401 -10 280 -10 c 0,0,1
283 58 m 0,31,32
 322 58 322 58 339 108.5 c 128,-1,33
 356 159 356 159 356 257 c 0,34,35
 356 359 356 359 339 407 c 128,-1,36
 322 455 322 455 282 455 c 0,37,38
 244 455 244 455 228 408 c 128,-1,39
 212 361 212 361 212 257 c 0,40,41
 212 159 212 159 227.5 108.5 c 128,-1,42
 243 58 243 58 283 58 c 0,31,32
EndSplineSet
Substitution2: "'smcp' Lowercase to Small Capitals lookup 38 subtable" eth.sc
Substitution2: "'aalt' Access All Alternates lookup 0 subtable" eth.sc
EndChar

StartChar: divide
Encoding: 247 247 185
Width: 468
Flags: W
LayerCount: 2
Fore
SplineSet
235 487 m 0,0,1
 210 487 210 487 195 501 c 128,-1,2
 180 515 180 515 180 550 c 0,3,4
 180 586 180 586 195 599.5 c 128,-1,5
 210 613 210 613 235 613 c 0,6,7
 257 613 257 613 272.5 599.5 c 128,-1,8
 288 586 288 586 288 550 c 0,9,10
 288 515 288 515 272.5 501 c 128,-1,11
 257 487 257 487 235 487 c 0,0,1
42 320 m 1,12,-1
 42 395 l 1,13,-1
 426 395 l 1,14,-1
 426 320 l 1,15,-1
 42 320 l 1,12,-1
235 102 m 0,16,17
 210 102 210 102 195 116 c 128,-1,18
 180 130 180 130 180 165 c 0,19,20
 180 201 180 201 195 214.5 c 128,-1,21
 210 228 210 228 235 228 c 0,22,23
 257 228 257 228 272.5 214.5 c 128,-1,24
 288 201 288 201 288 165 c 0,25,26
 288 130 288 130 272.5 116 c 128,-1,27
 257 102 257 102 235 102 c 0,16,17
EndSplineSet
EndChar

StartChar: oslash
Encoding: 248 248 186
Width: 565
GlyphClass: 2
Flags: W
AnchorPoint: "Anchor-1" 283 536 basechar 0
AnchorPoint: "Anchor-0" 283 0 basechar 0
LayerCount: 2
Fore
SplineSet
83 -40 m 1,0,-1
 124 40 l 1,1,2
 81 75 81 75 58.5 132.5 c 128,-1,3
 36 190 36 190 36 270 c 0,4,5
 36 411 36 411 99 480.5 c 128,-1,6
 162 550 162 550 284 550 c 0,7,8
 345 550 345 550 393 529 c 1,9,-1
 418 576 l 1,10,-1
 488 576 l 1,11,-1
 446 495 l 1,12,13
 485 460 485 460 507 404.5 c 128,-1,14
 529 349 529 349 529 270 c 0,15,16
 529 129 529 129 466 59.5 c 128,-1,17
 403 -10 403 -10 281 -10 c 0,18,19
 252 -10 252 -10 226.5 -5 c 128,-1,20
 201 0 201 0 178 9 c 1,21,-1
 153 -40 l 1,22,-1
 83 -40 l 1,0,-1
211 181 m 1,23,-1
 339 437 l 1,24,25
 322 482 322 482 282 482 c 256,26,27
 242 482 242 482 225.5 428.5 c 128,-1,28
 209 375 209 375 209 270 c 0,29,30
 209 245 209 245 209 222.5 c 128,-1,31
 209 200 209 200 211 181 c 1,23,-1
283 58 m 0,32,33
 322 58 322 58 338.5 111 c 128,-1,34
 355 164 355 164 355 268 c 0,35,36
 355 288 355 288 355 307.5 c 128,-1,37
 355 327 355 327 353 346 c 1,38,-1
 228 97 l 1,39,40
 237 77 237 77 249.5 67.5 c 128,-1,41
 262 58 262 58 283 58 c 0,32,33
EndSplineSet
Substitution2: "'smcp' Lowercase to Small Capitals lookup 38 subtable" oslash.sc
Substitution2: "'aalt' Access All Alternates lookup 0 subtable" oslash.sc
EndChar

StartChar: thorn
Encoding: 254 254 192
Width: 590
GlyphClass: 2
Flags: W
AnchorPoint: "Anchor-1" 296 760 basechar 0
AnchorPoint: "Anchor-0" 296 -240 basechar 0
LayerCount: 2
Fore
SplineSet
8 -240 m 1,0,-1
 8 -182 l 1,1,-1
 21 -182 l 2,2,3
 46 -182 46 -182 61.5 -170 c 128,-1,4
 77 -158 77 -158 77 -117 c 2,5,-1
 77 631 l 2,6,7
 77 678 77 678 64 690.5 c 128,-1,8
 51 703 51 703 29 703 c 2,9,-1
 22 703 l 1,10,-1
 22 760 l 1,11,-1
 250 760 l 1,12,-1
 250 575 l 2,13,14
 250 549 250 549 248 517 c 128,-1,15
 246 485 246 485 243 466 c 1,16,-1
 246 466 l 1,17,18
 265 503 265 503 293 524.5 c 128,-1,19
 321 546 321 546 372 546 c 0,20,21
 460 546 460 546 506.5 478.5 c 128,-1,22
 553 411 553 411 553 265 c 0,23,24
 553 120 553 120 508 54 c 128,-1,25
 463 -12 463 -12 378 -12 c 0,26,27
 328 -12 328 -12 298.5 6.5 c 128,-1,28
 269 25 269 25 250 62 c 1,29,-1
 245 62 l 1,30,31
 247 40 247 40 248.5 6.5 c 128,-1,32
 250 -27 250 -27 250 -60 c 2,33,-1
 250 -114 l 2,34,35
 250 -157 250 -157 265 -169.5 c 128,-1,36
 280 -182 280 -182 304 -182 c 2,37,-1
 327 -182 l 1,38,-1
 327 -240 l 1,39,-1
 8 -240 l 1,0,-1
316 64 m 0,40,41
 351 64 351 64 366 113 c 128,-1,42
 381 162 381 162 381 263 c 0,43,44
 381 360 381 360 366.5 414 c 128,-1,45
 352 468 352 468 319 468 c 0,46,47
 278 468 278 468 264 414 c 128,-1,48
 250 360 250 360 250 265 c 0,49,50
 250 162 250 162 263.5 113 c 128,-1,51
 277 64 277 64 316 64 c 0,40,41
EndSplineSet
Substitution2: "'smcp' Lowercase to Small Capitals lookup 38 subtable" thorn.sc
Substitution2: "'aalt' Access All Alternates lookup 0 subtable" thorn.sc
EndChar

StartChar: dcaron
Encoding: 271 271 209
Width: 597
GlyphClass: 2
Flags: W
AnchorPoint: "Anchor-3" 299 268 basechar 0
AnchorPoint: "Anchor-2" 571 760 basechar 0
AnchorPoint: "Anchor-1" 299 760 basechar 0
AnchorPoint: "Anchor-0" 299 0 basechar 0
LayerCount: 2
Fore
SplineSet
560 600 m 1,0,-1
 560 613 l 1,1,2
 566 632 566 632 574 658.5 c 128,-1,3
 582 685 582 685 589.5 712 c 128,-1,4
 597 739 597 739 601 760 c 1,5,-1
 722 760 l 1,6,-1
 722 750 l 1,7,8
 714 729 714 729 698 702.5 c 128,-1,9
 682 676 682 676 664 649 c 128,-1,10
 646 622 646 622 629 600 c 1,11,-1
 560 600 l 1,0,-1
215 -10 m 0,12,13
 129 -10 129 -10 81.5 56.5 c 128,-1,14
 34 123 34 123 34 267 c 0,15,16
 34 412 34 412 81 480 c 128,-1,17
 128 548 128 548 212 548 c 0,18,19
 260 548 260 548 289 528 c 128,-1,20
 318 508 318 508 336 478 c 1,21,-1
 341 478 l 1,22,23
 340 500 340 500 339.5 530.5 c 128,-1,24
 339 561 339 561 339 590 c 2,25,-1
 339 642 l 2,26,27
 339 682 339 682 318.5 692.5 c 128,-1,28
 298 703 298 703 269 703 c 2,29,-1
 261 703 l 1,30,-1
 261 760 l 1,31,-1
 512 760 l 1,32,-1
 512 137 l 2,33,34
 512 91 512 91 527.5 74.5 c 128,-1,35
 543 58 543 58 575 58 c 2,36,-1
 583 58 l 1,37,-1
 583 0 l 1,38,-1
 388 0 l 1,39,-1
 357 73 l 1,40,-1
 352 73 l 1,41,42
 332 34 332 34 299 12 c 128,-1,43
 266 -10 266 -10 215 -10 c 0,12,13
269 68 m 0,44,45
 310 68 310 68 324.5 119 c 128,-1,46
 339 170 339 170 339 269 c 0,47,48
 339 367 339 367 324.5 419.5 c 128,-1,49
 310 472 310 472 270 472 c 0,50,51
 236 472 236 472 222 419.5 c 128,-1,52
 208 367 208 367 208 268 c 0,53,54
 208 168 208 168 222 118 c 128,-1,55
 236 68 236 68 269 68 c 0,44,45
EndSplineSet
Substitution2: "'smcp' Lowercase to Small Capitals lookup 38 subtable" dcaron.sc
Substitution2: "'aalt' Access All Alternates lookup 0 subtable" dcaron.sc
EndChar

StartChar: dcroat
Encoding: 273 273 211
Width: 597
GlyphClass: 2
Flags: W
AnchorPoint: "Anchor-1" 299 760 basechar 0
AnchorPoint: "Anchor-0" 299 0 basechar 0
LayerCount: 2
Fore
SplineSet
215 -10 m 0,0,1
 129 -10 129 -10 81.5 54.5 c 128,-1,2
 34 119 34 119 34 249 c 0,3,4
 34 381 34 381 81 447 c 128,-1,5
 128 513 128 513 212 513 c 0,6,7
 260 513 260 513 289 493 c 128,-1,8
 318 473 318 473 336 442 c 1,9,-1
 341 442 l 1,10,11
 340 459 340 459 339.5 488.5 c 128,-1,12
 339 518 339 518 339 546 c 2,13,-1
 339 573 l 1,14,-1
 213 573 l 1,15,-1
 213 626 l 1,16,-1
 339 626 l 1,17,-1
 339 642 l 2,18,19
 339 682 339 682 318.5 692.5 c 128,-1,20
 298 703 298 703 269 703 c 2,21,-1
 261 703 l 1,22,-1
 261 760 l 1,23,-1
 512 760 l 1,24,-1
 512 626 l 1,25,-1
 586 626 l 1,26,-1
 586 573 l 1,27,-1
 512 573 l 1,28,-1
 512 137 l 2,29,30
 512 91 512 91 527.5 74.5 c 128,-1,31
 543 58 543 58 575 58 c 2,32,-1
 583 58 l 1,33,-1
 583 0 l 1,34,-1
 388 0 l 1,35,-1
 357 73 l 1,36,-1
 352 73 l 1,37,38
 332 34 332 34 299 12 c 128,-1,39
 266 -10 266 -10 215 -10 c 0,0,1
269 68 m 0,40,41
 310 68 310 68 324.5 116.5 c 128,-1,42
 339 165 339 165 339 251 c 0,43,44
 339 336 339 336 324.5 386.5 c 128,-1,45
 310 437 310 437 270 438 c 0,46,47
 236 437 236 437 222 386.5 c 128,-1,48
 208 336 208 336 208 250 c 0,49,50
 208 163 208 163 222 115.5 c 128,-1,51
 236 68 236 68 269 68 c 0,40,41
EndSplineSet
Substitution2: "'smcp' Lowercase to Small Capitals lookup 38 subtable" dcroat.sc
Substitution2: "'aalt' Access All Alternates lookup 0 subtable" dcroat.sc
EndChar

StartChar: eogonek
Encoding: 281 281 219
Width: 529
GlyphClass: 2
Flags: W
AnchorPoint: "Anchor-1" 265 536 basechar 0
AnchorPoint: "Anchor-0" 265 -239 basechar 0
LayerCount: 2
Fore
SplineSet
366 -239 m 0,0,1
 296 -239 296 -239 261 -212.5 c 128,-1,2
 226 -186 226 -186 226 -130 c 0,3,4
 226 -91 226 -91 249.5 -58 c 128,-1,5
 273 -25 273 -25 306 -9 c 1,6,7
 301 -10 301 -10 295 -10 c 128,-1,8
 289 -10 289 -10 283 -10 c 0,9,10
 157 -10 157 -10 96.5 62.5 c 128,-1,11
 36 135 36 135 36 265 c 0,12,13
 36 406 36 406 98 478 c 128,-1,14
 160 550 160 550 272 550 c 0,15,16
 376 550 376 550 436 488.5 c 128,-1,17
 496 427 496 427 496 308 c 2,18,-1
 496 256 l 1,19,-1
 210 256 l 1,20,21
 211 159 211 159 240.5 114 c 128,-1,22
 270 69 270 69 327 69 c 0,23,24
 373 69 373 69 399.5 94.5 c 128,-1,25
 426 120 426 120 441 158 c 1,26,27
 457 154 457 154 468 141.5 c 128,-1,28
 479 129 479 129 479 111 c 0,29,30
 479 83 479 83 460.5 55 c 128,-1,31
 442 27 442 27 400 10 c 1,32,33
 362 -17 362 -17 346 -45 c 128,-1,34
 330 -73 330 -73 330 -116 c 0,35,36
 330 -142 330 -142 347.5 -153.5 c 128,-1,37
 365 -165 365 -165 391 -165 c 0,38,39
 414 -165 414 -165 446 -156 c 1,40,-1
 446 -223 l 1,41,42
 433 -230 433 -230 406.5 -234.5 c 128,-1,43
 380 -239 380 -239 366 -239 c 0,0,1
212 323 m 1,44,-1
 327 323 l 1,45,46
 327 398 327 398 315 440 c 128,-1,47
 303 482 303 482 277 482 c 0,48,49
 249 482 249 482 230.5 441 c 128,-1,50
 212 400 212 400 212 323 c 1,44,-1
EndSplineSet
Substitution2: "'smcp' Lowercase to Small Capitals lookup 38 subtable" eogonek.sc
Substitution2: "'locl' Localized Forms in Latin lookup 9 subtable" eogonek.loclNAV
Ligature2: "'ccmp' Glyph Composition/Decomposition lookup 6 subtable" e uni0328
AlternateSubs2: "'aalt' Access All Alternates lookup 1 subtable" eogonek.loclNAV eogonek.sc
EndChar

StartChar: uni0123
Encoding: 291 291 229
Width: 509
GlyphClass: 2
Flags: W
AnchorPoint: "Anchor-2" 519 536 basechar 0
AnchorPoint: "Anchor-1" 254 766 basechar 0
AnchorPoint: "Anchor-0" 254 -234 basechar 0
LayerCount: 2
Fore
SplineSet
180 606 m 1,0,-1
 180 616 l 1,1,2
 189 637 189 637 204.5 663.5 c 128,-1,3
 220 690 220 690 238 717 c 128,-1,4
 256 744 256 744 272 766 c 1,5,-1
 336 766 l 1,6,-1
 336 753 l 1,7,8
 329 734 329 734 321 707.5 c 128,-1,9
 313 681 313 681 305.5 654 c 128,-1,10
 298 627 298 627 295 606 c 1,11,-1
 180 606 l 1,0,-1
211 -234 m 0,12,13
 -13 -234 -13 -234 -13 -101 c 0,14,15
 -13 -52 -13 -52 21 -20.5 c 128,-1,16
 55 11 55 11 113 16 c 1,17,18
 85 26 85 26 60.5 45.5 c 128,-1,19
 36 65 36 65 36 102 c 0,20,21
 36 136 36 136 62.5 161 c 128,-1,22
 89 186 89 186 132 209 c 1,23,24
 87 223 87 223 56 261.5 c 128,-1,25
 25 300 25 300 25 365 c 0,26,27
 25 454 25 454 74.5 502 c 128,-1,28
 124 550 124 550 231 550 c 0,29,30
 267 550 267 550 293 543.5 c 128,-1,31
 319 537 319 537 345 524 c 1,32,33
 367 549 367 549 389.5 566.5 c 128,-1,34
 412 584 412 584 448 584 c 0,35,36
 479 584 479 584 495.5 565.5 c 128,-1,37
 512 547 512 547 512 523 c 0,38,39
 512 497 512 497 497 478 c 128,-1,40
 482 459 482 459 443 459 c 1,41,42
 443 484 443 484 431.5 494.5 c 128,-1,43
 420 505 420 505 411 505 c 0,44,45
 401 505 401 505 394 501.5 c 128,-1,46
 387 498 387 498 382 496 c 1,47,48
 404 475 404 475 420 445 c 128,-1,49
 436 415 436 415 436 370 c 0,50,51
 436 289 436 289 387 238.5 c 128,-1,52
 338 188 338 188 231 188 c 0,53,54
 222 188 222 188 205 189 c 128,-1,55
 188 190 188 190 180 192 c 1,56,57
 171 188 171 188 162 174 c 128,-1,58
 153 160 153 160 153 144 c 0,59,60
 153 127 153 127 164.5 120 c 128,-1,61
 176 113 176 113 191 113 c 2,62,-1
 297 113 l 2,63,64
 391 113 391 113 437.5 73.5 c 128,-1,65
 484 34 484 34 484 -40 c 0,66,67
 484 -130 484 -130 417 -182 c 128,-1,68
 350 -234 350 -234 211 -234 c 0,12,13
229 251 m 0,69,70
 266 251 266 251 276 283.5 c 128,-1,71
 286 316 286 316 286 365 c 0,72,73
 286 416 286 416 276.5 451 c 128,-1,74
 267 486 267 486 230 486 c 0,75,76
 194 486 194 486 183.5 450 c 128,-1,77
 173 414 173 414 173 364 c 0,78,79
 173 316 173 316 183.5 283.5 c 128,-1,80
 194 251 194 251 229 251 c 0,69,70
214 -170 m 0,81,82
 279 -170 279 -170 316 -146.5 c 128,-1,83
 353 -123 353 -123 353 -81 c 0,84,85
 353 -58 353 -58 339.5 -42.5 c 128,-1,86
 326 -27 326 -27 296 -27 c 2,87,-1
 182 -27 l 2,88,89
 169 -27 169 -27 154 -33.5 c 128,-1,90
 139 -40 139 -40 128 -56 c 128,-1,91
 117 -72 117 -72 117 -100 c 0,92,93
 117 -136 117 -136 146 -153 c 128,-1,94
 175 -170 175 -170 214 -170 c 0,81,82
EndSplineSet
Substitution2: "'smcp' Lowercase to Small Capitals lookup 38 subtable" uni0123.sc
Substitution2: "'aalt' Access All Alternates lookup 0 subtable" uni0123.sc
EndChar

StartChar: Hbar
Encoding: 294 294 232
Width: 741
GlyphClass: 2
Flags: W
AnchorPoint: "Anchor-1" 371 714 basechar 0
AnchorPoint: "Anchor-0" 371 0 basechar 0
LayerCount: 2
Fore
SplineSet
19 0 m 1,0,-1
 19 58 l 1,1,-1
 66 58 l 2,2,3
 81 58 81 58 90.5 72.5 c 128,-1,4
 100 87 100 87 100 111 c 2,5,-1
 100 500 l 1,6,-1
 3 500 l 1,7,-1
 3 554 l 1,8,-1
 100 554 l 1,9,-1
 100 601 l 2,10,11
 100 631 100 631 87.5 644 c 128,-1,12
 75 657 75 657 57 657 c 2,13,-1
 19 657 l 1,14,-1
 19 714 l 1,15,-1
 342 714 l 1,16,-1
 342 657 l 1,17,-1
 308 657 l 2,18,19
 277 657 277 657 277 605 c 2,20,-1
 277 554 l 1,21,-1
 464 554 l 1,22,-1
 464 602 l 2,23,24
 464 631 464 631 456 644 c 128,-1,25
 448 657 448 657 428 657 c 2,26,-1
 401 657 l 1,27,-1
 401 714 l 1,28,-1
 723 714 l 1,29,-1
 723 657 l 1,30,-1
 676 657 l 2,31,32
 660 657 660 657 651 644 c 128,-1,33
 642 631 642 631 642 602 c 2,34,-1
 642 554 l 1,35,-1
 738 554 l 1,36,-1
 738 500 l 1,37,-1
 642 500 l 1,38,-1
 642 112 l 2,39,40
 642 86 642 86 651.5 72 c 128,-1,41
 661 58 661 58 676 58 c 2,42,-1
 723 58 l 1,43,-1
 723 0 l 1,44,-1
 401 0 l 1,45,-1
 401 58 l 1,46,-1
 429 58 l 2,47,48
 464 58 464 58 464 116 c 2,49,-1
 464 340 l 1,50,-1
 277 340 l 1,51,-1
 277 111 l 2,52,53
 277 87 277 87 285 72.5 c 128,-1,54
 293 58 293 58 308 58 c 2,55,-1
 342 58 l 1,56,-1
 342 0 l 1,57,-1
 19 0 l 1,0,-1
277 406 m 1,58,-1
 464 406 l 1,59,-1
 464 500 l 1,60,-1
 277 500 l 1,61,-1
 277 406 l 1,58,-1
EndSplineSet
Substitution2: "'c2sc' Capitals to Small Capitals lookup 37 subtable" hbar.sc
Substitution2: "'aalt' Access All Alternates lookup 0 subtable" hbar.sc
EndChar

StartChar: hbar
Encoding: 295 295 233
Width: 611
GlyphClass: 2
Flags: W
AnchorPoint: "Anchor-1" 305 760 basechar 0
AnchorPoint: "Anchor-0" 305 0 basechar 0
LayerCount: 2
Fore
SplineSet
18 0 m 1,0,-1
 18 58 l 1,1,-1
 22 58 l 2,2,3
 48 58 48 58 66 69.5 c 128,-1,4
 84 81 84 81 84 125 c 2,5,-1
 84 573 l 1,6,-1
 9 573 l 1,7,-1
 9 626 l 1,8,-1
 84 626 l 1,9,-1
 84 644 l 2,10,11
 84 670 84 670 74.5 682.5 c 128,-1,12
 65 695 65 695 52 699 c 128,-1,13
 39 703 39 703 28 703 c 2,14,-1
 15 703 l 1,15,-1
 15 760 l 1,16,-1
 256 760 l 1,17,-1
 256 626 l 1,18,-1
 382 626 l 1,19,-1
 382 573 l 1,20,-1
 256 573 l 1,21,-1
 256 537 l 2,22,23
 256 511 256 511 255 485.5 c 128,-1,24
 254 460 254 460 252 437 c 1,25,-1
 258 437 l 1,26,27
 274 467 274 467 303.5 490.5 c 128,-1,28
 333 514 333 514 390 514 c 0,29,30
 464 514 464 514 498.5 468.5 c 128,-1,31
 533 423 533 423 533 322 c 2,32,-1
 533 128 l 2,33,34
 533 82 533 82 544 70 c 128,-1,35
 555 58 555 58 585 58 c 2,36,-1
 589 58 l 1,37,-1
 589 0 l 1,38,-1
 360 0 l 1,39,-1
 360 286 l 2,40,41
 360 350 360 350 349 385.5 c 128,-1,42
 338 421 338 421 310 421 c 0,43,44
 287 421 287 421 275.5 398.5 c 128,-1,45
 264 376 264 376 260 341 c 128,-1,46
 256 306 256 306 256 268 c 2,47,-1
 256 122 l 2,48,49
 256 81 256 81 269 69.5 c 128,-1,50
 282 58 282 58 311 58 c 2,51,-1
 315 58 l 1,52,-1
 315 0 l 1,53,-1
 18 0 l 1,0,-1
EndSplineSet
Substitution2: "'smcp' Lowercase to Small Capitals lookup 38 subtable" hbar.sc
Substitution2: "'aalt' Access All Alternates lookup 0 subtable" hbar.sc
EndChar

StartChar: kgreenlandic
Encoding: 312 312 249
Width: 596
GlyphClass: 2
Flags: W
AnchorPoint: "Anchor-1" 298 536 basechar 0
AnchorPoint: "Anchor-0" 298 0 basechar 0
LayerCount: 2
Fore
SplineSet
14 0 m 1,0,-1
 14 58 l 1,1,-1
 28 58 l 2,2,3
 35 58 35 58 48 62 c 128,-1,4
 61 66 61 66 72 79 c 128,-1,5
 83 92 83 92 83 120 c 2,6,-1
 83 420 l 2,7,8
 83 446 83 446 72 458.5 c 128,-1,9
 61 471 61 471 47.5 475 c 128,-1,10
 34 479 34 479 28 479 c 2,11,-1
 14 479 l 1,12,-1
 14 536 l 1,13,-1
 256 536 l 1,14,-1
 256 374 l 2,15,16
 256 356 256 356 254.5 334 c 128,-1,17
 253 312 253 312 252 295.5 c 128,-1,18
 251 279 251 279 251 279 c 1,19,-1
 359 424 l 2,20,21
 367 433 367 433 367.5 440.5 c 128,-1,22
 368 448 368 448 368 452 c 0,23,24
 368 465 368 465 355 474 c 128,-1,25
 342 483 342 483 320 483 c 1,26,-1
 320 536 l 1,27,-1
 563 536 l 1,28,-1
 563 483 l 1,29,30
 533 483 533 483 503 464 c 128,-1,31
 473 445 473 445 439 401 c 2,32,-1
 388 333 l 1,33,-1
 505 134 l 2,34,35
 528 94 528 94 552.5 76 c 128,-1,36
 577 58 577 58 592 58 c 2,37,-1
 595 58 l 1,38,-1
 595 0 l 1,39,-1
 583 0 l 2,40,41
 508 0 508 0 462.5 5 c 128,-1,42
 417 10 417 10 389 28 c 128,-1,43
 361 46 361 46 340 86 c 2,44,-1
 268 220 l 1,45,-1
 256 198 l 1,46,-1
 256 122 l 2,47,48
 256 94 256 94 266.5 80 c 128,-1,49
 277 66 277 66 290 62 c 128,-1,50
 303 58 303 58 310 58 c 2,51,-1
 327 58 l 1,52,-1
 327 0 l 1,53,-1
 14 0 l 1,0,-1
EndSplineSet
EndChar

StartChar: Lcaron
Encoding: 317 317 254
Width: 598
GlyphClass: 2
Flags: W
AnchorPoint: "Anchor-3" 299 357 basechar 0
AnchorPoint: "Anchor-2" 578 714 basechar 0
AnchorPoint: "Anchor-1" 299 714 basechar 0
AnchorPoint: "Anchor-0" 299 0 basechar 0
LayerCount: 2
Fore
SplineSet
417 554 m 1,0,-1
 417 567 l 1,1,2
 424 586 424 586 432 612.5 c 128,-1,3
 440 639 440 639 447.5 666 c 128,-1,4
 455 693 455 693 459 714 c 1,5,-1
 579 714 l 1,6,-1
 579 704 l 1,7,8
 571 683 571 683 555.5 656.5 c 128,-1,9
 540 630 540 630 522 603 c 128,-1,10
 504 576 504 576 487 554 c 1,11,-1
 417 554 l 1,0,-1
19 0 m 1,12,-1
 19 58 l 1,13,-1
 66 58 l 2,14,15
 77 58 77 58 88.5 70 c 128,-1,16
 100 82 100 82 100 109 c 2,17,-1
 100 602 l 2,18,19
 100 631 100 631 87.5 644 c 128,-1,20
 75 657 75 657 58 657 c 2,21,-1
 19 657 l 1,22,-1
 19 714 l 1,23,-1
 359 714 l 1,24,-1
 359 657 l 1,25,-1
 316 657 l 2,26,27
 292 657 292 657 285 644.5 c 128,-1,28
 278 632 278 632 278 605 c 2,29,-1
 278 66 l 1,30,-1
 435 66 l 2,31,32
 459 66 459 66 476 85 c 128,-1,33
 493 104 493 104 505 151 c 2,34,-1
 523 226 l 1,35,-1
 575 226 l 1,36,-1
 570 0 l 1,37,-1
 19 0 l 1,12,-1
EndSplineSet
Substitution2: "'c2sc' Capitals to Small Capitals lookup 37 subtable" lcaron.sc
Substitution2: "'aalt' Access All Alternates lookup 0 subtable" lcaron.sc
EndChar

StartChar: lcaron
Encoding: 318 318 255
Width: 338
GlyphClass: 2
Flags: W
AnchorPoint: "Anchor-3" 170 268 basechar 0
AnchorPoint: "Anchor-2" 312 760 basechar 0
AnchorPoint: "Anchor-1" 170 760 basechar 0
AnchorPoint: "Anchor-0" 170 0 basechar 0
LayerCount: 2
Fore
SplineSet
303 600 m 1,0,-1
 303 613 l 1,1,2
 309 632 309 632 317.5 658.5 c 128,-1,3
 326 685 326 685 333.5 712 c 128,-1,4
 341 739 341 739 344 760 c 1,5,-1
 465 760 l 1,6,-1
 465 750 l 1,7,8
 457 729 457 729 441.5 702.5 c 128,-1,9
 426 676 426 676 407.5 649 c 128,-1,10
 389 622 389 622 373 600 c 1,11,-1
 303 600 l 1,0,-1
17 0 m 1,12,-1
 17 58 l 1,13,-1
 28 58 l 2,14,15
 52 58 52 58 67.5 72.5 c 128,-1,16
 83 87 83 87 83 128 c 2,17,-1
 83 644 l 2,18,19
 83 670 83 670 72 682.5 c 128,-1,20
 61 695 61 695 47.5 699 c 128,-1,21
 34 703 34 703 28 703 c 2,22,-1
 17 703 l 1,23,-1
 17 760 l 1,24,-1
 255 760 l 1,25,-1
 255 128 l 2,26,27
 255 87 255 87 271 72.5 c 128,-1,28
 287 58 287 58 311 58 c 2,29,-1
 320 58 l 1,30,-1
 320 0 l 1,31,-1
 17 0 l 1,12,-1
EndSplineSet
Substitution2: "'smcp' Lowercase to Small Capitals lookup 38 subtable" lcaron.sc
Substitution2: "'aalt' Access All Alternates lookup 0 subtable" lcaron.sc
EndChar

StartChar: Lslash
Encoding: 321 321 258
Width: 599
GlyphClass: 2
Flags: W
AnchorPoint: "Anchor-1" 300 714 basechar 0
AnchorPoint: "Anchor-0" 300 0 basechar 0
LayerCount: 2
Fore
SplineSet
19 0 m 1,0,-1
 19 58 l 1,1,-1
 66 58 l 2,2,3
 78 58 78 58 89 70 c 128,-1,4
 100 82 100 82 100 109 c 2,5,-1
 100 275 l 1,6,-1
 34 230 l 1,7,-1
 34 302 l 1,8,-1
 100 348 l 1,9,-1
 100 602 l 2,10,11
 100 631 100 631 88 644 c 128,-1,12
 76 657 76 657 58 657 c 2,13,-1
 19 657 l 1,14,-1
 19 714 l 1,15,-1
 359 714 l 1,16,-1
 359 657 l 1,17,-1
 316 657 l 2,18,19
 292 657 292 657 285 644.5 c 128,-1,20
 278 632 278 632 278 605 c 2,21,-1
 278 453 l 1,22,-1
 397 535 l 1,23,-1
 397 460 l 1,24,-1
 278 380 l 1,25,-1
 278 66 l 1,26,-1
 435 66 l 2,27,28
 459 66 459 66 476 85 c 128,-1,29
 493 104 493 104 505 151 c 2,30,-1
 523 226 l 1,31,-1
 575 226 l 1,32,-1
 570 0 l 1,33,-1
 19 0 l 1,0,-1
EndSplineSet
Substitution2: "'c2sc' Capitals to Small Capitals lookup 37 subtable" lslash.sc
Substitution2: "'aalt' Access All Alternates lookup 0 subtable" lslash.sc
EndChar

StartChar: lslash
Encoding: 322 322 259
Width: 330
GlyphClass: 2
Flags: W
AnchorPoint: "Anchor-1" 165 760 basechar 0
AnchorPoint: "Anchor-0" 165 0 basechar 0
LayerCount: 2
Fore
SplineSet
18 0 m 1,0,-1
 18 58 l 1,1,-1
 27 58 l 2,2,3
 51 58 51 58 67 72.5 c 128,-1,4
 83 87 83 87 83 128 c 2,5,-1
 83 283 l 1,6,-1
 13 232 l 1,7,-1
 13 304 l 1,8,-1
 83 354 l 1,9,-1
 83 644 l 2,10,11
 83 670 83 670 72 682.5 c 128,-1,12
 61 695 61 695 47.5 699 c 128,-1,13
 34 703 34 703 27 703 c 2,14,-1
 18 703 l 1,15,-1
 18 760 l 1,16,-1
 255 760 l 1,17,-1
 255 466 l 1,18,-1
 329 519 l 1,19,-1
 329 445 l 1,20,-1
 255 393 l 1,21,-1
 255 128 l 2,22,23
 255 87 255 87 271 72.5 c 128,-1,24
 287 58 287 58 311 58 c 2,25,-1
 320 58 l 1,26,-1
 320 0 l 1,27,-1
 18 0 l 1,0,-1
EndSplineSet
Substitution2: "'smcp' Lowercase to Small Capitals lookup 38 subtable" lslash.sc
Substitution2: "'aalt' Access All Alternates lookup 0 subtable" lslash.sc
EndChar

StartChar: Eng
Encoding: 330 330 267
Width: 712
GlyphClass: 2
Flags: W
AnchorPoint: "Anchor-1" 356 714 basechar 0
AnchorPoint: "Anchor-0" 356 -240 basechar 0
LayerCount: 2
Fore
SplineSet
424 -240 m 1,0,-1
 424 -177 l 1,1,-1
 443 -177 l 2,2,3
 484 -177 484 -177 516.5 -136.5 c 128,-1,4
 549 -96 549 -96 549 -9 c 2,5,-1
 549 1 l 1,6,-1
 175 544 l 1,7,-1
 175 120 l 2,8,9
 175 78 175 78 184.5 68 c 128,-1,10
 194 58 194 58 217 58 c 2,11,-1
 255 58 l 1,12,-1
 255 0 l 1,13,-1
 19 0 l 1,14,-1
 19 58 l 1,15,-1
 48 58 l 2,16,17
 72 58 72 58 86 68 c 128,-1,18
 100 78 100 78 100 120 c 2,19,-1
 100 598 l 2,20,21
 100 637 100 637 86.5 647 c 128,-1,22
 73 657 73 657 56 657 c 2,23,-1
 19 657 l 1,24,-1
 19 714 l 1,25,-1
 241 714 l 1,26,-1
 549 236 l 1,27,-1
 549 598 l 2,28,29
 549 632 549 632 536.5 644.5 c 128,-1,30
 524 657 524 657 507 657 c 2,31,-1
 468 657 l 1,32,-1
 468 714 l 1,33,-1
 705 714 l 1,34,-1
 705 657 l 1,35,-1
 668 657 l 2,36,37
 648 657 648 657 636 643 c 128,-1,38
 624 629 624 629 624 594 c 2,39,-1
 624 -1 l 2,40,41
 624 -91 624 -91 606 -143 c 128,-1,42
 588 -195 588 -195 554 -217.5 c 128,-1,43
 520 -240 520 -240 470 -240 c 2,44,-1
 424 -240 l 1,0,-1
EndSplineSet
Substitution2: "'c2sc' Capitals to Small Capitals lookup 37 subtable" eng.sc
AlternateSubs2: "'aalt' Access All Alternates lookup 1 subtable" Eng.alt1 Eng.alt2 Eng.alt3 eng.sc
EndChar

StartChar: eng
Encoding: 331 331 268
Width: 611
GlyphClass: 2
Flags: W
AnchorPoint: "Anchor-2" 581 536 basechar 0
AnchorPoint: "Anchor-1" 305 536 basechar 0
AnchorPoint: "Anchor-0" 305 -240 basechar 0
LayerCount: 2
Fore
SplineSet
264 -240 m 1,0,-1
 264 -172 l 1,1,-1
 269 -172 l 2,2,3
 310 -172 310 -172 332.5 -134.5 c 128,-1,4
 355 -97 355 -97 355 4 c 2,5,-1
 355 323 l 2,6,7
 355 386 355 386 345 421.5 c 128,-1,8
 335 457 335 457 307 457 c 0,9,10
 285 457 285 457 272.5 435.5 c 128,-1,11
 260 414 260 414 254.5 379.5 c 128,-1,12
 249 345 249 345 249 305 c 2,13,-1
 249 122 l 2,14,15
 249 81 249 81 262.5 69.5 c 128,-1,16
 276 58 276 58 305 58 c 2,17,-1
 308 58 l 1,18,-1
 308 0 l 1,19,-1
 12 0 l 1,20,-1
 12 58 l 1,21,-1
 16 58 l 2,22,23
 46 58 46 58 61.5 69.5 c 128,-1,24
 77 81 77 81 77 125 c 2,25,-1
 77 415 l 2,26,27
 77 456 77 456 63.5 467.5 c 128,-1,28
 50 479 50 479 20 479 c 2,29,-1
 16 479 l 1,30,-1
 16 536 l 1,31,-1
 234 536 l 1,32,-1
 246 469 l 1,33,-1
 250 469 l 1,34,35
 267 503 267 503 296 526.5 c 128,-1,36
 325 550 325 550 384 550 c 0,37,38
 454 550 454 550 490.5 504.5 c 128,-1,39
 527 459 527 459 527 358 c 2,40,-1
 527 -8 l 2,41,42
 527 -97 527 -97 495.5 -148 c 128,-1,43
 464 -199 464 -199 409 -219.5 c 128,-1,44
 354 -240 354 -240 283 -240 c 2,45,-1
 264 -240 l 1,0,-1
EndSplineSet
Substitution2: "'smcp' Lowercase to Small Capitals lookup 38 subtable" eng.sc
Substitution2: "'aalt' Access All Alternates lookup 0 subtable" eng.sc
EndChar

StartChar: OE
Encoding: 338 338 275
Width: 940
GlyphClass: 2
Flags: W
AnchorPoint: "Anchor-1" 470 714 basechar 0
AnchorPoint: "Anchor-0" 470 0 basechar 0
LayerCount: 2
Fore
SplineSet
363 -10 m 0,0,1
 257 -10 257 -10 187 36 c 128,-1,2
 117 82 117 82 82.5 165 c 128,-1,3
 48 248 48 248 48 359 c 256,4,5
 48 470 48 470 82.5 552 c 128,-1,6
 117 634 117 634 187.5 679.5 c 128,-1,7
 258 725 258 725 364 725 c 0,8,9
 387 725 387 725 413 722 c 128,-1,10
 439 719 439 719 460 714 c 1,11,-1
 885 714 l 1,12,-1
 888 526 l 1,13,-1
 814 526 l 1,14,-1
 810 574 l 2,15,16
 807 613 807 613 794 631 c 128,-1,17
 781 649 781 649 750 649 c 2,18,-1
 618 649 l 1,19,-1
 618 406 l 1,20,-1
 827 406 l 1,21,-1
 827 341 l 1,22,-1
 618 341 l 1,23,-1
 618 66 l 1,24,-1
 777 66 l 2,25,26
 805 66 805 66 819 86 c 128,-1,27
 833 106 833 106 838 140 c 2,28,-1
 845 188 l 1,29,-1
 918 188 l 1,30,-1
 911 0 l 1,31,-1
 456 0 l 1,32,33
 411 -10 411 -10 363 -10 c 0,0,1
363 60 m 0,34,35
 389 60 389 60 407.5 67.5 c 128,-1,36
 426 75 426 75 442 88 c 1,37,-1
 442 627 l 1,38,39
 429 639 429 639 410 647.5 c 128,-1,40
 391 656 391 656 364 656 c 0,41,42
 293 656 293 656 263.5 577.5 c 128,-1,43
 234 499 234 499 234 358 c 256,44,45
 234 217 234 217 263.5 138.5 c 128,-1,46
 293 60 293 60 363 60 c 0,34,35
EndSplineSet
Substitution2: "'c2sc' Capitals to Small Capitals lookup 37 subtable" oe.sc
Substitution2: "'aalt' Access All Alternates lookup 0 subtable" oe.sc
EndChar

StartChar: oe
Encoding: 339 339 276
Width: 847
GlyphClass: 2
Flags: W
AnchorPoint: "Anchor-1" 424 536 basechar 0
AnchorPoint: "Anchor-0" 424 0 basechar 0
LayerCount: 2
Fore
SplineSet
278 -10 m 0,0,1
 166 -10 166 -10 101 59.5 c 128,-1,2
 36 129 36 129 36 270 c 256,3,4
 36 411 36 411 98.5 480.5 c 128,-1,5
 161 550 161 550 281 550 c 0,6,7
 380 550 380 550 441 496 c 1,8,9
 497 550 497 550 595 550 c 0,10,11
 696 550 696 550 755.5 488.5 c 128,-1,12
 815 427 815 427 815 308 c 2,13,-1
 815 256 l 1,14,-1
 529 256 l 1,15,16
 530 166 530 166 557 117.5 c 128,-1,17
 584 69 584 69 645 69 c 0,18,19
 692 69 692 69 718 94.5 c 128,-1,20
 744 120 744 120 760 158 c 1,21,22
 776 153 776 153 787 141.5 c 128,-1,23
 798 130 798 130 798 111 c 0,24,25
 798 81 798 81 778 53.5 c 128,-1,26
 758 26 758 26 715.5 8 c 128,-1,27
 673 -10 673 -10 606 -10 c 0,28,29
 551 -10 551 -10 511.5 3.5 c 128,-1,30
 472 17 472 17 442 43 c 1,31,32
 385 -10 385 -10 278 -10 c 0,0,1
283 58 m 256,33,34
 323 58 323 58 338.5 111.5 c 128,-1,35
 354 165 354 165 354 270 c 0,36,37
 354 376 354 376 337.5 429 c 128,-1,38
 321 482 321 482 282 482 c 0,39,40
 242 482 242 482 227 428.5 c 128,-1,41
 212 375 212 375 212 270 c 0,42,43
 212 166 212 166 227.5 112 c 128,-1,44
 243 58 243 58 283 58 c 256,33,34
530 323 m 1,45,-1
 645 323 l 1,46,47
 646 399 646 399 633.5 440.5 c 128,-1,48
 621 482 621 482 595 482 c 0,49,50
 568 482 568 482 549 441 c 128,-1,51
 530 400 530 400 530 323 c 1,45,-1
EndSplineSet
Substitution2: "'smcp' Lowercase to Small Capitals lookup 38 subtable" oe.sc
Substitution2: "'aalt' Access All Alternates lookup 0 subtable" oe.sc
EndChar

StartChar: tcaron
Encoding: 357 357 294
Width: 393
GlyphClass: 2
Flags: W
AnchorPoint: "Anchor-3" 198 268 basechar 0
AnchorPoint: "Anchor-2" 388 660 basechar 0
AnchorPoint: "Anchor-1" 197 760 basechar 0
AnchorPoint: "Anchor-0" 197 0 basechar 0
LayerCount: 2
Fore
SplineSet
302 600 m 1,0,-1
 302 613 l 1,1,2
 309 632 309 632 317 658.5 c 128,-1,3
 325 685 325 685 332.5 712 c 128,-1,4
 340 739 340 739 343 760 c 1,5,-1
 464 760 l 1,6,-1
 464 750 l 1,7,8
 456 729 456 729 440.5 702.5 c 128,-1,9
 425 676 425 676 407 649 c 128,-1,10
 389 622 389 622 372 600 c 1,11,-1
 302 600 l 1,0,-1
235 -10 m 0,12,13
 167 -10 167 -10 126.5 25.5 c 128,-1,14
 86 61 86 61 86 149 c 2,15,-1
 86 466 l 1,16,-1
 21 466 l 1,17,-1
 21 520 l 1,18,19
 59 520 59 520 83.5 535.5 c 128,-1,20
 108 551 108 551 121 567 c 0,21,22
 133 581 133 581 144 604.5 c 128,-1,23
 155 628 155 628 161 660 c 1,24,-1
 259 660 l 1,25,-1
 259 536 l 1,26,-1
 370 536 l 1,27,-1
 370 466 l 1,28,-1
 259 466 l 1,29,-1
 259 165 l 2,30,31
 259 122 259 122 269 103 c 128,-1,32
 279 84 279 84 311 84 c 0,33,34
 349 84 349 84 378 93 c 1,35,-1
 378 19 l 1,36,37
 362 11 362 11 326 0.5 c 128,-1,38
 290 -10 290 -10 235 -10 c 0,12,13
EndSplineSet
Substitution2: "'smcp' Lowercase to Small Capitals lookup 38 subtable" tcaron.sc
Substitution2: "'aalt' Access All Alternates lookup 0 subtable" tcaron.sc
EndChar

StartChar: Tbar
Encoding: 358 358 295
Width: 603
GlyphClass: 2
Flags: W
AnchorPoint: "Anchor-1" 302 714 basechar 0
AnchorPoint: "Anchor-0" 302 0 basechar 0
LayerCount: 2
Fore
SplineSet
139 0 m 1,0,-1
 139 58 l 1,1,-1
 189 58 l 2,2,3
 200 58 200 58 206.5 69 c 128,-1,4
 213 80 213 80 213 122 c 2,5,-1
 213 331 l 1,6,-1
 101 331 l 1,7,-1
 101 385 l 1,8,-1
 213 385 l 1,9,-1
 213 649 l 1,10,-1
 153 649 l 2,11,12
 113 649 113 649 98 632 c 128,-1,13
 83 615 83 615 80 582 c 2,14,-1
 71 512 l 1,15,-1
 2 512 l 1,16,-1
 7 714 l 1,17,-1
 597 714 l 1,18,-1
 601 512 l 1,19,-1
 532 512 l 1,20,-1
 525 582 l 2,21,22
 521 615 521 615 506 632 c 128,-1,23
 491 649 491 649 452 649 c 2,24,-1
 392 649 l 1,25,-1
 392 385 l 1,26,-1
 503 385 l 1,27,-1
 503 331 l 1,28,-1
 392 331 l 1,29,-1
 392 120 l 2,30,31
 392 78 392 78 398.5 68 c 128,-1,32
 405 58 405 58 416 58 c 2,33,-1
 465 58 l 1,34,-1
 465 0 l 1,35,-1
 139 0 l 1,0,-1
EndSplineSet
Substitution2: "'c2sc' Capitals to Small Capitals lookup 37 subtable" tbar.sc
Substitution2: "'aalt' Access All Alternates lookup 0 subtable" tbar.sc
EndChar

StartChar: tbar
Encoding: 359 359 296
Width: 393
GlyphClass: 2
Flags: W
AnchorPoint: "Anchor-3" 197 268 basechar 0
AnchorPoint: "Anchor-2" 387 660 basechar 0
AnchorPoint: "Anchor-1" 197 660 basechar 0
AnchorPoint: "Anchor-0" 197 0 basechar 0
LayerCount: 2
Fore
SplineSet
234 -10 m 0,0,1
 166 -10 166 -10 125.5 25.5 c 128,-1,2
 85 61 85 61 85 149 c 2,3,-1
 85 278 l 1,4,-1
 24 278 l 1,5,-1
 24 332 l 1,6,-1
 85 332 l 1,7,-1
 85 466 l 1,8,-1
 20 466 l 1,9,-1
 20 520 l 1,10,11
 57 520 57 520 82 535.5 c 128,-1,12
 107 551 107 551 120 567 c 0,13,14
 132 581 132 581 143 604.5 c 128,-1,15
 154 628 154 628 160 660 c 1,16,-1
 258 660 l 1,17,-1
 258 536 l 1,18,-1
 369 536 l 1,19,-1
 369 466 l 1,20,-1
 258 466 l 1,21,-1
 258 332 l 1,22,-1
 359 332 l 1,23,-1
 359 278 l 1,24,-1
 258 278 l 1,25,-1
 258 165 l 2,26,27
 258 122 258 122 268 103 c 128,-1,28
 278 84 278 84 309 84 c 0,29,30
 348 84 348 84 377 93 c 1,31,-1
 377 19 l 1,32,33
 361 11 361 11 325 0.5 c 128,-1,34
 289 -10 289 -10 234 -10 c 0,0,1
EndSplineSet
Substitution2: "'smcp' Lowercase to Small Capitals lookup 38 subtable" tbar.sc
Substitution2: "'aalt' Access All Alternates lookup 0 subtable" tbar.sc
EndChar

StartChar: longs
Encoding: 383 383 320
Width: 371
GlyphClass: 2
Flags: W
AnchorPoint: "Anchor-1" 259 769 basechar 0
AnchorPoint: "Anchor-0" 186 0 basechar 0
LayerCount: 2
Fore
SplineSet
2 0 m 1,0,-1
 2 58 l 1,1,-1
 29 58 l 2,2,3
 53 58 53 58 68.5 72.5 c 128,-1,4
 84 87 84 87 84 128 c 2,5,-1
 84 567 l 2,6,7
 84 662 84 662 132.5 715.5 c 128,-1,8
 181 769 181 769 290 769 c 0,9,10
 355 769 355 769 389 756.5 c 128,-1,11
 423 744 423 744 435 725 c 128,-1,12
 447 706 447 706 447 686 c 0,13,14
 447 655 447 655 420 640 c 128,-1,15
 393 625 393 625 333 625 c 1,16,17
 333 660 333 660 325.5 683.5 c 128,-1,18
 318 707 318 707 295 707 c 0,19,20
 274 707 274 707 264.5 679.5 c 128,-1,21
 255 652 255 652 255 585 c 2,22,-1
 255 128 l 2,23,24
 255 88 255 88 271 73 c 128,-1,25
 287 58 287 58 311 58 c 2,26,-1
 359 58 l 1,27,-1
 359 0 l 1,28,-1
 2 0 l 1,0,-1
EndSplineSet
EndChar

StartChar: florin
Encoding: 402 402 321
Width: 444
GlyphClass: 2
Flags: W
AnchorPoint: "Anchor-2" 517 769 basechar 0
AnchorPoint: "Anchor-1" 323 769 basechar 0
AnchorPoint: "Anchor-0" 134 -11 basechar 0
LayerCount: 2
Fore
SplineSet
134 -11 m 0,0,1
 77 -11 77 -11 45.5 2 c 128,-1,2
 14 15 14 15 1.5 35.5 c 128,-1,3
 -11 56 -11 56 -11 79 c 0,4,5
 -11 115 -11 115 11.5 135 c 128,-1,6
 34 155 34 155 82 155 c 1,7,8
 82 99 82 99 89 75.5 c 128,-1,9
 96 52 96 52 118 52 c 0,10,11
 139 52 139 52 146 75.5 c 128,-1,12
 153 99 153 99 153 152 c 2,13,-1
 153 459 l 1,14,-1
 75 459 l 1,15,-1
 75 536 l 1,16,-1
 153 536 l 1,17,-1
 153 567 l 2,18,19
 153 662 153 662 197 715.5 c 128,-1,20
 241 769 241 769 350 769 c 0,21,22
 415 769 415 769 448.5 757.5 c 128,-1,23
 482 746 482 746 493.5 729 c 128,-1,24
 505 712 505 712 505 694 c 0,25,26
 505 675 505 675 496 658 c 128,-1,27
 487 641 487 641 462.5 630.5 c 128,-1,28
 438 620 438 620 390 620 c 1,29,30
 390 635 390 635 387.5 655.5 c 128,-1,31
 385 676 385 676 379 691.5 c 128,-1,32
 373 707 373 707 361 707 c 0,33,34
 344 707 344 707 334 682 c 128,-1,35
 324 657 324 657 324 589 c 2,36,-1
 324 536 l 1,37,-1
 444 536 l 1,38,-1
 444 459 l 1,39,-1
 324 459 l 1,40,-1
 324 194 l 2,41,42
 324 101 324 101 280 45 c 128,-1,43
 236 -11 236 -11 134 -11 c 0,0,1
EndSplineSet
Substitution2: "'ss03' Style Set 3 lookup 43 subtable" florin.ss03
EndChar

StartChar: Aringacute
Encoding: 506 506 322
Width: 696
GlyphClass: 2
Flags: W
AnchorPoint: "Anchor-1" 349 958 basechar 0
AnchorPoint: "Anchor-0" 349 0 basechar 0
LayerCount: 2
Fore
SplineSet
277 830 m 1,0,-1
 277 840 l 1,1,2
 289 856 289 856 307 876.5 c 128,-1,3
 325 897 325 897 342 918.5 c 128,-1,4
 359 940 359 940 368 958 c 1,5,-1
 540 958 l 1,6,-1
 540 950 l 1,7,8
 532 940 532 940 511 924 c 128,-1,9
 490 908 490 908 462.5 890.5 c 128,-1,10
 435 873 435 873 407 857 c 128,-1,11
 379 841 379 841 356 830 c 1,12,-1
 277 830 l 1,0,-1
6 0 m 1,13,-1
 6 58 l 1,14,-1
 12 58 l 2,15,16
 34 58 34 58 52.5 70 c 128,-1,17
 71 82 71 82 85 121 c 2,18,-1
 265 614 l 1,19,20
 248 642 248 642 248 694 c 0,21,22
 248 747 248 747 278.5 775 c 128,-1,23
 309 803 309 803 354 803 c 0,24,25
 398 803 398 803 429 775 c 128,-1,26
 460 747 460 747 460 694 c 0,27,28
 460 669 460 669 455 649 c 128,-1,29
 450 629 450 629 442 615 c 1,30,-1
 608 130 l 2,31,32
 622 89 622 89 641 73.5 c 128,-1,33
 660 58 660 58 677 58 c 2,34,-1
 696 58 l 1,35,-1
 696 0 l 1,36,-1
 369 0 l 1,37,-1
 369 58 l 1,38,-1
 414 58 l 2,39,40
 417 58 417 58 429 66 c 128,-1,41
 441 74 441 74 441 90 c 0,42,43
 441 104 441 104 438.5 116.5 c 128,-1,44
 436 129 436 129 434 136 c 2,45,-1
 410 209 l 1,46,-1
 203 209 l 1,47,-1
 187 153 l 2,48,49
 183 140 183 140 177 122 c 128,-1,50
 171 104 171 104 171 90 c 256,51,52
 171 76 171 76 181.5 67 c 128,-1,53
 192 58 192 58 196 58 c 2,54,-1
 246 58 l 1,55,-1
 246 0 l 1,56,-1
 6 0 l 1,13,-1
354 643 m 0,57,58
 401 643 401 643 401 694 c 0,59,60
 401 723 401 723 387 734.5 c 128,-1,61
 373 746 373 746 354 746 c 0,62,63
 334 746 334 746 320 734.5 c 128,-1,64
 306 723 306 723 306 694 c 0,65,66
 306 666 306 666 317 654.5 c 128,-1,67
 328 643 328 643 354 643 c 0,57,58
225 275 m 1,68,-1
 384 275 l 1,69,-1
 345 410 l 2,70,71
 340 427 340 427 333.5 452.5 c 128,-1,72
 327 478 327 478 321.5 505 c 128,-1,73
 316 532 316 532 311 553 c 1,74,75
 306 534 306 534 298 508 c 128,-1,76
 290 482 290 482 282 456.5 c 128,-1,77
 274 431 274 431 268 413 c 2,78,-1
 225 275 l 1,68,-1
EndSplineSet
Substitution2: "'c2sc' Capitals to Small Capitals lookup 37 subtable" aringacute.sc
Substitution2: "'aalt' Access All Alternates lookup 0 subtable" aringacute.sc
EndChar

StartChar: aringacute
Encoding: 507 507 323
Width: 554
GlyphClass: 2
Flags: W
AnchorPoint: "Anchor-1" 277 958 basechar 0
AnchorPoint: "Anchor-0" 277 0 basechar 0
LayerCount: 2
Fore
SplineSet
204 830 m 1,0,-1
 204 840 l 1,1,2
 217 856 217 856 235 876.5 c 128,-1,3
 253 897 253 897 270 918.5 c 128,-1,4
 287 940 287 940 297 958 c 1,5,-1
 468 958 l 1,6,-1
 468 950 l 1,7,8
 460 940 460 940 439 924 c 128,-1,9
 418 908 418 908 390.5 890.5 c 128,-1,10
 363 873 363 873 335 857 c 128,-1,11
 307 841 307 841 284 830 c 1,12,-1
 204 830 l 1,0,-1
282 584 m 0,13,14
 237 584 237 584 206.5 612 c 128,-1,15
 176 640 176 640 176 693 c 0,16,17
 176 747 176 747 206.5 774.5 c 128,-1,18
 237 802 237 802 282 802 c 0,19,20
 326 802 326 802 357 774.5 c 128,-1,21
 388 747 388 747 388 693 c 0,22,23
 388 640 388 640 357 612 c 128,-1,24
 326 584 326 584 282 584 c 0,13,14
282 642 m 0,25,26
 301 642 301 642 315 654 c 128,-1,27
 329 666 329 666 329 693 c 0,28,29
 329 721 329 721 315 732.5 c 128,-1,30
 301 744 301 744 282 744 c 0,31,32
 262 744 262 744 247.5 732.5 c 128,-1,33
 233 721 233 721 233 693 c 0,34,35
 233 666 233 666 247.5 654 c 128,-1,36
 262 642 262 642 282 642 c 0,25,26
176 -10 m 0,37,38
 119 -10 119 -10 77.5 30 c 128,-1,39
 36 70 36 70 36 154 c 0,40,41
 36 236 36 236 84.5 275 c 128,-1,42
 133 314 133 314 231 318 c 2,43,-1
 303 321 l 1,44,-1
 303 374 l 2,45,46
 303 423 303 423 297.5 454 c 128,-1,47
 292 485 292 485 269 485 c 0,48,49
 248 485 248 485 237 454 c 128,-1,50
 226 423 226 423 226 377 c 1,51,52
 151 377 151 377 112 393 c 128,-1,53
 73 409 73 409 73 446 c 256,54,55
 73 483 73 483 100.5 506 c 128,-1,56
 128 529 128 529 173 539.5 c 128,-1,57
 218 550 218 550 272 550 c 0,58,59
 374 550 374 550 425 512 c 128,-1,60
 476 474 476 474 476 381 c 2,61,-1
 476 128 l 2,62,63
 476 87 476 87 487 72.5 c 128,-1,64
 498 58 498 58 528 58 c 2,65,-1
 532 58 l 1,66,-1
 532 0 l 1,67,-1
 334 0 l 1,68,-1
 312 62 l 1,69,-1
 303 62 l 1,70,71
 283 35 283 35 266 19.5 c 128,-1,72
 249 4 249 4 228 -3 c 128,-1,73
 207 -10 207 -10 176 -10 c 0,37,38
246 68 m 0,74,75
 272 68 272 68 288 101.5 c 128,-1,76
 304 135 304 135 304 191 c 2,77,-1
 304 264 l 1,78,-1
 277 261 l 2,79,80
 240 257 240 257 226 230 c 128,-1,81
 212 203 212 203 212 151 c 0,82,83
 212 68 212 68 246 68 c 0,74,75
EndSplineSet
Substitution2: "'smcp' Lowercase to Small Capitals lookup 38 subtable" aringacute.sc
Substitution2: "'aalt' Access All Alternates lookup 0 subtable" aringacute.sc
EndChar

StartChar: circumflex
Encoding: 710 710 330
Width: 433
Flags: W
LayerCount: 2
Fore
SplineSet
40 606 m 1,0,-1
 40 619 l 1,1,2
 54 638 54 638 74.5 664 c 128,-1,3
 95 690 95 690 114.5 717 c 128,-1,4
 134 744 134 744 144 766 c 1,5,-1
 289 766 l 1,6,7
 299 744 299 744 318 717 c 128,-1,8
 337 690 337 690 358 664 c 128,-1,9
 379 638 379 638 393 619 c 1,10,-1
 393 606 l 1,11,-1
 312 606 l 1,12,13
 305 615 305 615 287 632.5 c 128,-1,14
 269 650 269 650 249 668 c 128,-1,15
 229 686 229 686 216 698 c 1,16,17
 202 685 202 685 183 668 c 128,-1,18
 164 651 164 651 147 634.5 c 128,-1,19
 130 618 130 618 121 606 c 1,20,-1
 40 606 l 1,0,-1
EndSplineSet
EndChar

StartChar: caron
Encoding: 711 711 331
Width: 433
Flags: W
LayerCount: 2
Fore
SplineSet
144 606 m 1,0,1
 134 629 134 629 114.5 655.5 c 128,-1,2
 95 682 95 682 74.5 708 c 128,-1,3
 54 734 54 734 40 753 c 1,4,-1
 40 766 l 1,5,-1
 121 766 l 1,6,7
 130 754 130 754 147.5 737.5 c 128,-1,8
 165 721 165 721 184 704 c 128,-1,9
 203 687 203 687 216 674 c 1,10,11
 229 687 229 687 248 704 c 128,-1,12
 267 721 267 721 285 737.5 c 128,-1,13
 303 754 303 754 312 766 c 1,14,-1
 393 766 l 1,15,-1
 393 753 l 1,16,17
 379 734 379 734 358 708 c 128,-1,18
 337 682 337 682 318 655.5 c 128,-1,19
 299 629 299 629 289 606 c 1,20,-1
 144 606 l 1,0,1
EndSplineSet
EndChar

StartChar: macron
Encoding: 713 713 332
Width: 336
Flags: W
LayerCount: 2
Fore
SplineSet
40 603 m 1,0,-1
 40 689 l 1,1,-1
 296 689 l 1,2,-1
 296 603 l 1,3,-1
 40 603 l 1,0,-1
EndSplineSet
EndChar

StartChar: breve
Encoding: 728 728 333
Width: 388
Flags: W
LayerCount: 2
Fore
SplineSet
195 606 m 0,0,1
 145 606 145 606 111 631.5 c 128,-1,2
 77 657 77 657 59 695.5 c 128,-1,3
 41 734 41 734 40 771 c 1,4,-1
 112 771 l 1,5,6
 119 735 119 735 141 719 c 128,-1,7
 163 703 163 703 195 703 c 256,8,9
 227 703 227 703 248.5 719 c 128,-1,10
 270 735 270 735 278 771 c 1,11,-1
 348 771 l 1,12,13
 348 734 348 734 330 695.5 c 128,-1,14
 312 657 312 657 278 631.5 c 128,-1,15
 244 606 244 606 195 606 c 0,0,1
EndSplineSet
EndChar

StartChar: dotaccent
Encoding: 729 729 334
Width: 268
Flags: W
LayerCount: 2
Fore
SplineSet
133 623 m 0,0,1
 94 623 94 623 67 642 c 128,-1,2
 40 661 40 661 40 698 c 0,3,4
 40 737 40 737 67 755 c 128,-1,5
 94 773 94 773 133 773 c 0,6,7
 171 773 171 773 199.5 755 c 128,-1,8
 228 737 228 737 228 698 c 0,9,10
 228 661 228 661 199.5 642 c 128,-1,11
 171 623 171 623 133 623 c 0,0,1
EndSplineSet
EndChar

StartChar: ring
Encoding: 730 730 335
Width: 294
Flags: W
LayerCount: 2
Fore
SplineSet
146 596 m 0,0,1
 102 596 102 596 71 624 c 128,-1,2
 40 652 40 652 40 705 c 256,3,4
 40 758 40 758 71 786 c 128,-1,5
 102 814 102 814 146 814 c 0,6,7
 191 814 191 814 221.5 786 c 128,-1,8
 252 758 252 758 252 705 c 256,9,10
 252 652 252 652 221.5 624 c 128,-1,11
 191 596 191 596 146 596 c 0,0,1
146 652 m 0,12,13
 166 652 166 652 180 664 c 128,-1,14
 194 676 194 676 194 705 c 256,15,16
 194 734 194 734 180 746 c 128,-1,17
 166 758 166 758 146 758 c 0,18,19
 127 758 127 758 113 746 c 128,-1,20
 99 734 99 734 99 705 c 256,21,22
 99 676 99 676 113 664 c 128,-1,23
 127 652 127 652 146 652 c 0,12,13
EndSplineSet
EndChar

StartChar: ogonek
Encoding: 731 731 336
Width: 442
Flags: W
LayerCount: 2
Fore
SplineSet
261 -239 m 0,0,1
 190 -239 190 -239 155.5 -212.5 c 128,-1,2
 121 -186 121 -186 121 -130 c 0,3,4
 121 -99 121 -99 136 -72 c 128,-1,5
 151 -45 151 -45 174.5 -26 c 128,-1,6
 198 -7 198 -7 225 0 c 1,7,-1
 306 0 l 1,8,9
 279 -10 279 -10 252 -39.5 c 128,-1,10
 225 -69 225 -69 225 -116 c 0,11,12
 225 -142 225 -142 242 -153.5 c 128,-1,13
 259 -165 259 -165 285 -165 c 0,14,15
 309 -165 309 -165 341 -156 c 1,16,-1
 341 -223 l 1,17,18
 328 -230 328 -230 301 -234.5 c 128,-1,19
 274 -239 274 -239 261 -239 c 0,0,1
EndSplineSet
EndChar

StartChar: tilde
Encoding: 732 732 337
Width: 456
Flags: W
LayerCount: 2
Fore
SplineSet
293 606 m 0,0,1
 269 606 269 606 249.5 615.5 c 128,-1,2
 230 625 230 625 214 637.5 c 128,-1,3
 198 650 198 650 183.5 659.5 c 128,-1,4
 169 669 169 669 154 669 c 256,5,6
 139 669 139 669 126 652.5 c 128,-1,7
 113 636 113 636 111 616 c 1,8,-1
 40 616 l 1,9,10
 42 661 42 661 60 697 c 128,-1,11
 78 733 78 733 105.5 754.5 c 128,-1,12
 133 776 133 776 165 776 c 0,13,14
 188 776 188 776 207.5 766.5 c 128,-1,15
 227 757 227 757 243.5 744.5 c 128,-1,16
 260 732 260 732 274.5 722.5 c 128,-1,17
 289 713 289 713 303 713 c 0,18,19
 316 713 316 713 330 729.5 c 128,-1,20
 344 746 344 746 346 766 c 1,21,-1
 416 766 l 1,22,23
 414 721 414 721 396.5 685 c 128,-1,24
 379 649 379 649 351.5 627.5 c 128,-1,25
 324 606 324 606 293 606 c 0,0,1
EndSplineSet
EndChar

StartChar: hungarumlaut
Encoding: 733 733 338
Width: 455
Flags: W
LayerCount: 2
Fore
SplineSet
214 606 m 1,0,-1
 214 619 l 1,1,2
 232 652 232 652 253.5 692 c 128,-1,3
 275 732 275 732 289 766 c 1,4,-1
 415 766 l 1,5,-1
 415 756 l 1,6,7
 406 739 406 739 383 710.5 c 128,-1,8
 360 682 360 682 334 653.5 c 128,-1,9
 308 625 308 625 288 606 c 1,10,-1
 214 606 l 1,0,-1
40 606 m 1,11,-1
 40 619 l 1,12,13
 58 652 58 652 79.5 692 c 128,-1,14
 101 732 101 732 115 766 c 1,15,-1
 240 766 l 1,16,-1
 240 756 l 1,17,18
 231 739 231 739 208.5 710.5 c 128,-1,19
 186 682 186 682 160 653.5 c 128,-1,20
 134 625 134 625 114 606 c 1,21,-1
 40 606 l 1,11,-1
EndSplineSet
EndChar

StartChar: tonos
Encoding: 900 900 339
Width: 510
Flags: W
LayerCount: 2
Fore
SplineSet
177 606 m 1,0,-1
 177 621 l 1,1,2
 185 661 185 661 195.5 708 c 128,-1,3
 206 755 206 755 212 796 c 1,4,-1
 363 796 l 1,5,-1
 363 784 l 1,6,7
 345 740 345 740 318 694 c 128,-1,8
 291 648 291 648 263 606 c 1,9,-1
 177 606 l 1,0,-1
EndSplineSet
EndChar

StartChar: dieresistonos
Encoding: 901 901 340
Width: 510
Flags: W
LayerCount: 2
Fore
SplineSet
200 692 m 1,0,-1
 200 705 l 1,1,2
 208 737 208 737 218 777.5 c 128,-1,3
 228 818 228 818 234 852 c 1,4,-1
 353 852 l 1,5,-1
 353 842 l 1,6,7
 336 805 336 805 314 766 c 128,-1,8
 292 727 292 727 271 692 c 1,9,-1
 200 692 l 1,0,-1
129 623 m 256,10,11
 106 623 106 623 87.5 638.5 c 128,-1,12
 69 654 69 654 69 691 c 0,13,14
 69 729 69 729 87.5 743.5 c 128,-1,15
 106 758 106 758 129 758 c 256,16,17
 152 758 152 758 171 743.5 c 128,-1,18
 190 729 190 729 190 691 c 0,19,20
 190 654 190 654 171 638.5 c 128,-1,21
 152 623 152 623 129 623 c 256,10,11
368 623 m 0,22,23
 343 623 343 623 324 638.5 c 128,-1,24
 305 654 305 654 305 691 c 0,25,26
 305 729 305 729 324 743.5 c 128,-1,27
 343 758 343 758 368 758 c 0,28,29
 390 758 390 758 408 743.5 c 128,-1,30
 426 729 426 729 426 691 c 0,31,32
 426 654 426 654 408 638.5 c 128,-1,33
 390 623 390 623 368 623 c 0,22,23
EndSplineSet
EndChar

StartChar: anoteleia
Encoding: 903 903 342
Width: 277
Flags: W
LayerCount: 2
Fore
SplineSet
139 377 m 0,0,1
 103 377 103 377 78 395 c 128,-1,2
 53 413 53 413 53 460 c 0,3,4
 53 510 53 510 78 527.5 c 128,-1,5
 103 545 103 545 139 545 c 0,6,7
 173 545 173 545 198.5 527.5 c 128,-1,8
 224 510 224 510 224 460 c 0,9,10
 224 413 224 413 198.5 395 c 128,-1,11
 173 377 173 377 139 377 c 0,0,1
EndSplineSet
EndChar

StartChar: Gamma
Encoding: 915 915 352
Width: 542
GlyphClass: 2
Flags: W
AnchorPoint: "Anchor-1" 271 714 basechar 0
AnchorPoint: "Anchor-0" 271 0 basechar 0
LayerCount: 2
Fore
SplineSet
19 0 m 1,0,-1
 19 58 l 1,1,-1
 56 58 l 2,2,3
 75 58 75 58 87.5 68 c 128,-1,4
 100 78 100 78 100 120 c 2,5,-1
 100 594 l 2,6,7
 100 636 100 636 87.5 646.5 c 128,-1,8
 75 657 75 657 56 657 c 2,9,-1
 19 657 l 1,10,-1
 19 714 l 1,11,-1
 533 714 l 1,12,-1
 540 509 l 1,13,-1
 471 509 l 1,14,-1
 462 563 l 2,15,16
 455 608 455 608 433.5 628.5 c 128,-1,17
 412 649 412 649 377 649 c 2,18,-1
 278 649 l 1,19,-1
 278 116 l 2,20,21
 278 77 278 77 287 67.5 c 128,-1,22
 296 58 296 58 320 58 c 2,23,-1
 376 58 l 1,24,-1
 376 0 l 1,25,-1
 19 0 l 1,0,-1
EndSplineSet
EndChar

StartChar: uni0394
Encoding: 916 916 353
Width: 679
GlyphClass: 2
Flags: W
AnchorPoint: "Anchor-1" 340 714 basechar 0
AnchorPoint: "Anchor-0" 340 0 basechar 0
LayerCount: 2
Fore
SplineSet
55 0 m 1,0,-1
 55 70 l 1,1,-1
 262 714 l 1,2,-1
 425 714 l 1,3,-1
 623 77 l 1,4,-1
 623 0 l 1,5,-1
 55 0 l 1,0,-1
147 84 m 1,6,-1
 458 84 l 1,7,-1
 344 453 l 2,8,9
 331 498 331 498 320 541 c 128,-1,10
 309 584 309 584 302 619 c 1,11,12
 295 584 295 584 284 547 c 128,-1,13
 273 510 273 510 259 464 c 2,14,-1
 147 84 l 1,6,-1
EndSplineSet
EndChar

StartChar: Theta
Encoding: 920 920 357
Width: 725
GlyphClass: 2
Flags: W
AnchorPoint: "Anchor-1" 362 714 basechar 0
AnchorPoint: "Anchor-0" 362 0 basechar 0
LayerCount: 2
Fore
SplineSet
363 -10 m 0,0,1
 257 -10 257 -10 187 36 c 128,-1,2
 117 82 117 82 82.5 165 c 128,-1,3
 48 248 48 248 48 359 c 256,4,5
 48 470 48 470 82.5 552 c 128,-1,6
 117 634 117 634 187.5 679.5 c 128,-1,7
 258 725 258 725 364 725 c 0,8,9
 465 725 465 725 534.5 679.5 c 128,-1,10
 604 634 604 634 640.5 551.5 c 128,-1,11
 677 469 677 469 677 358 c 256,12,13
 677 247 677 247 640.5 164.5 c 128,-1,14
 604 82 604 82 534 36 c 128,-1,15
 464 -10 464 -10 363 -10 c 0,0,1
363 60 m 0,16,17
 434 60 434 60 465 135 c 128,-1,18
 496 210 496 210 496 358 c 256,19,20
 496 506 496 506 465 581 c 128,-1,21
 434 656 434 656 364 656 c 0,22,23
 293 656 293 656 261 581 c 128,-1,24
 229 506 229 506 229 358 c 256,25,26
 229 210 229 210 261 135 c 128,-1,27
 293 60 293 60 363 60 c 0,16,17
251 266 m 1,28,-1
 251 462 l 1,29,-1
 303 462 l 1,30,-1
 307 443 l 2,31,32
 311 427 311 427 319.5 416.5 c 128,-1,33
 328 406 328 406 355 406 c 2,34,-1
 364 406 l 2,35,36
 394 406 394 406 404 417 c 128,-1,37
 414 428 414 428 417 443 c 2,38,-1
 421 462 l 1,39,-1
 474 462 l 1,40,-1
 474 266 l 1,41,-1
 421 266 l 1,42,-1
 417 285 l 2,43,44
 414 301 414 301 404.5 312 c 128,-1,45
 395 323 395 323 367 323 c 2,46,-1
 355 323 l 2,47,48
 327 323 327 323 319 312 c 128,-1,49
 311 301 311 301 307 285 c 2,50,-1
 303 266 l 1,51,-1
 251 266 l 1,28,-1
EndSplineSet
EndChar

StartChar: Lambda
Encoding: 923 923 360
Width: 632
GlyphClass: 2
Flags: W
AnchorPoint: "Anchor-1" 317 714 basechar 0
AnchorPoint: "Anchor-0" 317 0 basechar 0
LayerCount: 2
Fore
SplineSet
0 0 m 1,0,-1
 0 58 l 1,1,-1
 32 58 l 2,2,3
 51 58 51 58 62 71.5 c 128,-1,4
 73 85 73 85 86 129 c 2,5,-1
 264 714 l 1,6,-1
 370 714 l 1,7,-1
 556 104 l 2,8,9
 564 77 564 77 578 67.5 c 128,-1,10
 592 58 592 58 605 58 c 2,11,-1
 632 58 l 1,12,-1
 632 0 l 1,13,-1
 313 0 l 1,14,-1
 313 58 l 1,15,-1
 355 58 l 2,16,17
 381 58 381 58 381 82 c 0,18,19
 381 94 381 94 377 108 c 128,-1,20
 373 122 373 122 370 135 c 2,21,-1
 290 435 l 2,22,23
 283 459 283 459 278 482 c 128,-1,24
 273 505 273 505 270 524 c 1,25,26
 268 506 268 506 263 483 c 128,-1,27
 258 460 258 460 251 437 c 2,28,-1
 169 147 l 2,29,30
 163 127 163 127 158.5 110 c 128,-1,31
 154 93 154 93 154 82 c 0,32,33
 154 72 154 72 159 65 c 128,-1,34
 164 58 164 58 178 58 c 2,35,-1
 228 58 l 1,36,-1
 228 0 l 1,37,-1
 0 0 l 1,0,-1
EndSplineSet
EndChar

StartChar: Xi
Encoding: 926 926 363
Width: 565
GlyphClass: 2
Flags: W
AnchorPoint: "Anchor-1" 283 714 basechar 0
AnchorPoint: "Anchor-0" 283 0 basechar 0
LayerCount: 2
Fore
SplineSet
49 490 m 1,0,-1
 54 714 l 1,1,-1
 512 714 l 1,2,-1
 516 490 l 1,3,-1
 456 490 l 1,4,-1
 452 520 l 2,5,6
 448 551 448 551 432.5 573 c 128,-1,7
 417 595 417 595 377 595 c 2,8,-1
 188 595 l 2,9,10
 148 595 148 595 132.5 573 c 128,-1,11
 117 551 117 551 113 520 c 2,12,-1
 110 490 l 1,13,-1
 49 490 l 1,0,-1
159 268 m 1,14,-1
 159 457 l 1,15,-1
 212 457 l 1,16,-1
 216 438 l 2,17,18
 220 424 220 424 223 413.5 c 128,-1,19
 226 403 226 403 237 397.5 c 128,-1,20
 248 392 248 392 274 392 c 2,21,-1
 292 392 l 2,22,23
 327 392 327 392 337 404.5 c 128,-1,24
 347 417 347 417 352 438 c 2,25,-1
 355 457 l 1,26,-1
 408 457 l 1,27,-1
 408 268 l 1,28,-1
 355 268 l 1,29,-1
 352 287 l 2,30,31
 347 308 347 308 337 320.5 c 128,-1,32
 327 333 327 333 292 333 c 2,33,-1
 274 333 l 2,34,35
 248 333 248 333 237 327.5 c 128,-1,36
 226 322 226 322 223 312 c 128,-1,37
 220 302 220 302 216 287 c 2,38,-1
 212 268 l 1,39,-1
 159 268 l 1,14,-1
27 0 m 1,40,-1
 22 237 l 1,41,-1
 84 237 l 1,42,-1
 87 207 l 2,43,44
 91 175 91 175 106 153.5 c 128,-1,45
 121 132 121 132 161 132 c 2,46,-1
 404 132 l 2,47,48
 444 132 444 132 459 153.5 c 128,-1,49
 474 175 474 175 478 207 c 2,50,-1
 482 237 l 1,51,-1
 543 237 l 1,52,-1
 538 0 l 1,53,-1
 27 0 l 1,40,-1
EndSplineSet
EndChar

StartChar: Pi
Encoding: 928 928 365
Width: 745
GlyphClass: 2
Flags: W
AnchorPoint: "Anchor-1" 373 714 basechar 0
AnchorPoint: "Anchor-0" 373 0 basechar 0
LayerCount: 2
Fore
SplineSet
19 0 m 1,0,-1
 19 58 l 1,1,-1
 48 58 l 2,2,3
 72 58 72 58 86 68 c 128,-1,4
 100 78 100 78 100 120 c 2,5,-1
 100 598 l 2,6,7
 100 637 100 637 85.5 647 c 128,-1,8
 71 657 71 657 48 657 c 2,9,-1
 19 657 l 1,10,-1
 19 714 l 1,11,-1
 728 714 l 1,12,-1
 728 657 l 1,13,-1
 696 657 l 2,14,15
 673 657 673 657 659.5 646.5 c 128,-1,16
 646 636 646 636 646 594 c 2,17,-1
 646 115 l 2,18,19
 646 76 646 76 660.5 67 c 128,-1,20
 675 58 675 58 697 58 c 2,21,-1
 728 58 l 1,22,-1
 728 0 l 1,23,-1
 405 0 l 1,24,-1
 405 58 l 1,25,-1
 418 58 l 2,26,27
 442 58 442 58 455.5 68 c 128,-1,28
 469 78 469 78 469 120 c 2,29,-1
 469 649 l 1,30,-1
 277 649 l 1,31,-1
 277 120 l 2,32,33
 277 78 277 78 289 68 c 128,-1,34
 301 58 301 58 324 58 c 2,35,-1
 341 58 l 1,36,-1
 341 0 l 1,37,-1
 19 0 l 1,0,-1
EndSplineSet
EndChar

StartChar: Sigma
Encoding: 931 931 367
Width: 581
GlyphClass: 2
Flags: W
AnchorPoint: "Anchor-1" 291 714 basechar 0
AnchorPoint: "Anchor-0" 291 0 basechar 0
LayerCount: 2
Fore
SplineSet
20 0 m 1,0,-1
 20 76 l 1,1,-1
 220 335 l 1,2,-1
 39 662 l 1,3,-1
 39 714 l 1,4,-1
 511 714 l 1,5,-1
 517 517 l 1,6,-1
 453 517 l 1,7,-1
 442 582 l 2,8,9
 437 616 437 616 420 633 c 128,-1,10
 403 650 403 650 364 650 c 2,11,-1
 231 650 l 1,12,-1
 356 399 l 1,13,-1
 356 384 l 1,14,-1
 149 132 l 1,15,-1
 385 132 l 2,16,17
 426 132 426 132 444.5 156 c 128,-1,18
 463 180 463 180 469 222 c 2,19,-1
 475 257 l 1,20,-1
 542 257 l 1,21,-1
 524 0 l 1,22,-1
 20 0 l 1,0,-1
EndSplineSet
EndChar

StartChar: Phi
Encoding: 934 934 370
Width: 805
GlyphClass: 2
Flags: W
AnchorPoint: "Anchor-1" 403 714 basechar 0
AnchorPoint: "Anchor-0" 403 0 basechar 0
LayerCount: 2
Fore
SplineSet
239 0 m 1,0,-1
 239 58 l 1,1,-1
 250 58 l 2,2,3
 280 58 280 58 301.5 67.5 c 128,-1,4
 323 77 323 77 323 114 c 2,5,-1
 323 134 l 1,6,-1
 297 134 l 2,7,8
 196 134 196 134 136.5 167.5 c 128,-1,9
 77 201 77 201 51 255 c 128,-1,10
 25 309 25 309 25 370 c 0,11,12
 25 468 25 468 86 529 c 128,-1,13
 147 590 147 590 274 590 c 2,14,-1
 323 590 l 1,15,-1
 323 600 l 2,16,17
 323 637 323 637 301.5 647 c 128,-1,18
 280 657 280 657 250 657 c 2,19,-1
 239 657 l 1,20,-1
 239 714 l 1,21,-1
 568 714 l 1,22,-1
 568 657 l 1,23,-1
 557 657 l 2,24,25
 527 657 527 657 506 647 c 128,-1,26
 485 637 485 637 485 600 c 2,27,-1
 485 590 l 1,28,-1
 533 590 l 2,29,30
 661 590 661 590 722 529 c 128,-1,31
 783 468 783 468 783 370 c 0,32,33
 783 310 783 310 757 256 c 128,-1,34
 731 202 731 202 671 168 c 128,-1,35
 611 134 611 134 511 134 c 2,36,-1
 485 134 l 1,37,-1
 485 114 l 2,38,39
 485 77 485 77 506 67.5 c 128,-1,40
 527 58 527 58 557 58 c 2,41,-1
 568 58 l 1,42,-1
 568 0 l 1,43,-1
 239 0 l 1,0,-1
301 197 m 2,44,-1
 323 197 l 1,45,-1
 323 527 l 1,46,-1
 292 527 l 2,47,48
 239 527 239 527 212.5 489 c 128,-1,49
 186 451 186 451 186 367 c 0,50,51
 186 272 186 272 213.5 234.5 c 128,-1,52
 241 197 241 197 301 197 c 2,44,-1
485 197 m 1,53,-1
 505 197 l 2,54,55
 563 197 563 197 592 234.5 c 128,-1,56
 621 272 621 272 621 367 c 0,57,58
 621 451 621 451 594.5 489 c 128,-1,59
 568 527 568 527 516 527 c 2,60,-1
 485 527 l 1,61,-1
 485 197 l 1,53,-1
EndSplineSet
EndChar

